<?xml version="1.0" encoding="UTF-8"?>
<svg width="53px" height="53px" viewBox="0 0 53 53" version="1.1" xmlns="http://www.w3.org/2000/svg" xmlns:xlink="http://www.w3.org/1999/xlink">
    <!-- Generator: Sketch 52.6 (67491) - http://www.bohemiancoding.com/sketch -->
    <title>Catalogue icon</title>
    <desc>Created with Sketch.</desc>
    <g id="Desktop" stroke="none" stroke-width="1" fill="none" fill-rule="evenodd">
        <g id="ISV-Landing" transform="translate(-279.000000, -2470.000000)">
            <g id="Features-Section" transform="translate(-1.000000, 1611.000000)">
                <g id="Group-2" transform="translate(244.000000, 296.000000)">
                    <g id="3" transform="translate(0.000000, 531.000000)">
                        <g id="Catalogue-icon" transform="translate(37.000000, 32.000000)">
                            <polygon id="Fill-3" fill="#FFFFFF" points="0.6048 51.3404187 50.2048 51.3404187 50.2048 28.8788802 0.6048 28.8788802"></polygon>
                            <g id="Group-35" transform="translate(0.000000, 0.577342)">
                                <path d="M0.60472,18.6754055 L0.60472,28.3017791 C0.60472,31.4030758 3.11272,33.9171637 6.20472,33.9171637 L44.60472,33.9171637 C47.69672,33.9171637 50.20472,31.4030758 50.20472,28.3017791 L50.20472,18.6754055 L0.60472,18.6754055 Z" id="Fill-4" fill="#65CDEF"></path>
                                <polygon id="Fill-6" fill="#00B5E2" points="0.6048 22.6861538 50.2048 22.6861538 50.2048 18.6751648 0.6048 18.6751648"></polygon>
                                <path d="M50.20472,28.3017791 C50.20472,31.4030758 47.69672,33.9171637 44.60472,33.9171637 L6.20472,33.9171637 C3.11272,33.9171637 0.60472,31.4030758 0.60472,28.3017791" id="Stroke-8" stroke="#4D5152" stroke-width="1.6"></path>
                                <polygon id="Stroke-9" stroke="#4D5152" stroke-width="1.6" points="0.6048 50.7630769 50.2048 50.7630769 50.2048 18.6751648 0.6048 18.6751648"></polygon>
                                <path d="M21.40472,30.7083725 L29.40472,30.7083725" id="Stroke-10" stroke="#4D5152" stroke-width="1.6"></path>
                                <path d="M25.40472,28.3017791 L25.40472,26.6973835" id="Stroke-11" stroke="#4D5152" stroke-width="1.6"></path>
                                <polygon id="Fill-12" fill="#89E872" points="7.8048 50.7630769 12.6048 50.7630769 12.6048 17.0707692 7.8048 17.0707692"></polygon>
                                <polygon id="Stroke-13" stroke="#4D5152" stroke-width="1.6" points="7.8048 50.7630769 12.6048 50.7630769 12.6048 17.0707692 7.8048 17.0707692"></polygon>
                                <polygon id="Fill-14" fill="#FFFFFF" points="7.0048 37.1257143 13.4048 37.1257143 13.4048 30.7081319 7.0048 30.7081319"></polygon>
                                <polygon id="Stroke-15" stroke="#4D5152" stroke-width="1.6" points="7.0048 37.1257143 13.4048 37.1257143 13.4048 30.7081319 7.0048 30.7081319"></polygon>
                                <path d="M10.20472,33.1149659 L10.20472,37.1259549" id="Stroke-16" stroke="#4D5152" stroke-width="1.6"></path>
                                <path d="M10.20472,28.3017791 L10.20472,26.6973835" id="Stroke-17" stroke="#4D5152" stroke-width="1.6"></path>
                                <path d="M10.20472,39.5325484 L10.20472,41.136944" id="Stroke-18" stroke="#4D5152" stroke-width="1.6"></path>
                                <path d="M10.20472,42.7413396 L10.20472,44.3457352" id="Stroke-19" stroke="#4D5152" stroke-width="1.6"></path>
                                <polygon id="Fill-20" fill="#89E872" points="38.2048 50.7630769 43.0048 50.7630769 43.0048 17.0707692 38.2048 17.0707692"></polygon>
                                <polygon id="Stroke-21" stroke="#4D5152" stroke-width="1.6" points="38.2048 50.7630769 43.0048 50.7630769 43.0048 17.0707692 38.2048 17.0707692"></polygon>
                                <polygon id="Fill-22" fill="#FFFFFF" points="37.4048 37.1257143 43.8048 37.1257143 43.8048 30.7081319 37.4048 30.7081319"></polygon>
                                <polygon id="Stroke-23" stroke="#4D5152" stroke-width="1.6" points="37.4048 37.1257143 43.8048 37.1257143 43.8048 30.7081319 37.4048 30.7081319"></polygon>
                                <path d="M40.60472,33.1149659 L40.60472,37.1259549" id="Stroke-24" stroke="#4D5152" stroke-width="1.6"></path>
                                <path d="M40.60472,28.3017791 L40.60472,26.6973835" id="Stroke-25" stroke="#4D5152" stroke-width="1.6"></path>
                                <path d="M40.60472,39.5325484 L40.60472,41.136944" id="Stroke-26" stroke="#4D5152" stroke-width="1.6"></path>
                                <path d="M40.60472,42.7413396 L40.60472,44.3457352" id="Stroke-27" stroke="#4D5152" stroke-width="1.6"></path>
                                <path d="M35.00472,13.8622187 L35.00472,18.6754055 L15.80472,18.6754055 L15.80472,13.8622187 C15.80472,12.5337791 16.87992,11.4556253 18.20472,11.4556253 L32.60472,11.4556253 C33.92952,11.4556253 35.00472,12.5337791 35.00472,13.8622187 Z" id="Stroke-28" stroke="#4D5152" stroke-width="1.6"></path>
                                <path d="M29.40472,1.82925165 L29.40472,0.224856044 L19.80472,0.224856044 L19.80472,1.82925165 L17.40472,8.24683407 L17.40472,13.0600209 C17.40472,13.9456473 18.12152,14.6644165 19.00472,14.6644165 C19.88792,14.6644165 20.60472,13.9456473 20.60472,13.0600209 L20.60472,13.8622187 C20.60472,14.7478451 21.32152,15.4666143 22.20472,15.4666143 C23.08792,15.4666143 23.80472,14.7478451 23.80472,13.8622187 C23.80472,14.7478451 24.52152,15.4666143 25.40472,15.4666143 C26.28792,15.4666143 27.00472,14.7478451 27.00472,13.8622187 C27.00472,14.7478451 27.72152,15.4666143 28.60472,15.4666143 C29.48792,15.4666143 30.20472,14.7478451 30.20472,13.8622187 C30.20472,14.7478451 30.92152,15.4666143 31.80472,15.4666143 C32.68792,15.4666143 33.40472,14.7478451 33.40472,13.8622187 L33.40472,7.44463626 L29.40472,1.82925165 Z" id="Fill-29" fill="#FFC469"></path>
                                <path d="M19.80472,0.224856044 L19.80472,1.82925165 L17.40472,8.24683407 L17.40472,13.0600209 C17.40472,13.9456473 18.12152,14.6644165 19.00472,14.6644165 C19.88792,14.6644165 20.60472,13.9456473 20.60472,13.0600209 L20.60472,13.8622187 C20.60472,14.7478451 21.32152,15.4666143 22.20472,15.4666143 C23.08792,15.4666143 23.80472,14.7478451 23.80472,13.8622187 C23.80472,14.7478451 24.52152,15.4666143 25.40472,15.4666143 C26.28792,15.4666143 27.00472,14.7478451 27.00472,13.8622187 C27.00472,14.7478451 27.72152,15.4666143 28.60472,15.4666143 C29.48792,15.4666143 30.20472,14.7478451 30.20472,13.8622187 L30.20472,9.04903187" id="Stroke-30" stroke="#4D5152" stroke-width="1.6"></path>
                                <path d="M27.00472,13.8622187 L27.00472,12.2578231" id="Stroke-31" stroke="#4D5152" stroke-width="1.6"></path>
                                <path d="M23.80472,13.8622187 L23.80472,12.2578231" id="Stroke-32" stroke="#4D5152" stroke-width="1.6"></path>
                                <path d="M20.60472,13.0600209 L20.60472,12.2578231" id="Stroke-33" stroke="#4D5152" stroke-width="1.6"></path>
                                <path d="M30.20472,13.8622187 C30.20472,14.7478451 30.92152,15.4666143 31.80472,15.4666143 C32.68792,15.4666143 33.40472,14.7478451 33.40472,13.8622187 L33.40472,7.44463626 L29.40472,1.82925165 L29.40472,0.224856044" id="Stroke-34" stroke="#4D5152" stroke-width="1.6"></path>
                            </g>
                        </g>
                    </g>
                </g>
            </g>
        </g>
    </g>
</svg>
