<?xml version="1.0" encoding="UTF-8"?>
<svg width="414px" height="416px" viewBox="0 0 414 416" version="1.1" xmlns="http://www.w3.org/2000/svg" xmlns:xlink="http://www.w3.org/1999/xlink">
    <!-- Generator: Sketch 53 (72520) - https://sketchapp.com -->
    <title>illustration_cloud-technology</title>
    <desc>Created with Sketch.</desc>
    <defs>
        <path d="M23.7813606,0.095337931 C22.4870716,0.0975724138 21.5180179,1.34664828 21.3406168,2.30896552 L21.3406168,2.30896552 L0.566205273,57.374069 C0.566205273,59.1959172 1.84349341,61.4162483 3.41866761,62.3323862 L3.41866761,62.3323862 L80.4942844,107.065986 C82.0701977,107.982124 82.9697693,107.290179 83.3474859,105.427366 L83.3474859,105.427366 L105.705942,47.5080828 C106.080702,45.6124966 105.474581,43.9962207 103.898668,43.0793379 L103.898668,43.0793379 L24.8487241,0.373158621 C24.4791384,0.179503448 24.1228578,0.095337931 23.7887524,0.095337931 L23.7887524,0.095337931 L23.7813606,0.095337931 Z" id="path-1"></path>
        <linearGradient x1="0.000127751876%" y1="50.0000926%" x2="99.99995%" y2="50.0000926%" id="linearGradient-3">
            <stop stop-color="#C8CFE6" offset="0%"></stop>
            <stop stop-color="#EBEFF6" offset="100%"></stop>
        </linearGradient>
        <path d="M47.4822222,0.984440129 L1.0870628,24.1825761 C-0.794022043,25.1039482 0.0222000571,29.2736828 1.59914412,30.1653333 L1.59914412,30.1653333 L78.5785822,73.7032492 C80.1555263,74.5948997 82.5272324,74.7000129 83.8762559,73.9373981 L83.8762559,73.9373981 L130.172995,47.7518706 C130.828637,47.3814369 131.121677,46.8732686 131.068397,46.3462524 L131.068397,46.3462524 L131.068397,43.4081553 L127.376528,43.4081553 L52.7798958,1.21786408 C51.9111336,0.726368932 50.8011307,0.474097087 49.753288,0.474097087 L49.753288,0.474097087 C48.8993258,0.474097087 48.0875438,0.641553398 47.4822222,0.984440129" id="path-4"></path>
        <linearGradient x1="-7.5106142e-05%" y1="49.9999372%" x2="99.9999175%" y2="49.9999372%" id="linearGradient-6">
            <stop stop-color="#C8CFE6" offset="0%"></stop>
            <stop stop-color="#EBEFF6" offset="100%"></stop>
        </linearGradient>
        <path d="M21.5028757,0.584 L0.614871012,52.5270677 C0.614871012,52.8849323 0.868743769,53.3218346 1.18204917,53.5018647 L1.18204917,53.5018647 L76.8764862,97.0903659 C77.1897916,97.2711278 77.4443981,97.1276892 77.4443981,96.7683609 L77.4443981,96.7683609 L99.6377197,42.5456441 C99.6377197,42.1870476 99.3831132,41.7501454 99.0705415,41.5708471 L99.0705415,41.5708471 L22.0700539,0.260531328 C21.9783369,0.207839599 21.8924897,0.182957393 21.8161811,0.182957393 L21.8161811,0.182957393 C21.6305459,0.182957393 21.5028757,0.329323308 21.5028757,0.584" id="path-7"></path>
        <linearGradient x1="0.00021295672%" y1="50.0002445%" x2="99.9996595%" y2="50.0002445%" id="linearGradient-9">
            <stop stop-color="#C8CFE6" offset="0%"></stop>
            <stop stop-color="#EBEFF6" offset="100%"></stop>
        </linearGradient>
        <path d="M12.7250543,0.72525 L1.1232105,7.5465 C0.435290103,7.95075 0.360900424,8.562 0.956017857,8.91225 L0.956017857,8.91225 L26.2168379,23.76375 C26.8126919,24.114 27.8526743,24.06975 28.5405947,23.66625 L28.5405947,23.66625 L40.1431751,16.84425 C40.8310955,16.44 40.9054852,15.82875 40.3096312,15.47925 L40.3096312,15.47925 L15.0488111,0.62775 C14.7785041,0.46875 14.4176037,0.3915 14.0390265,0.39075 L14.0390265,0.39075 C13.582377,0.39075 13.1014219,0.50475 12.7250543,0.72525" id="path-10"></path>
        <linearGradient x1="-0.000384620117%" y1="50.0015628%" x2="99.999418%" y2="50.0015628%" id="linearGradient-12">
            <stop stop-color="#C8CFE6" offset="0%"></stop>
            <stop stop-color="#EBEFF6" offset="100%"></stop>
        </linearGradient>
        <path d="M5.34199153,0.592355556 L2.2182533,7.85351111 L1.53673729,6.05013333 C1.40294727,5.69671111 1.0252307,5.49475556 0.69334275,5.60071111 L0.69334275,5.60071111 C0.361454802,5.70595556 0.201054614,6.07928889 0.335583804,6.43342222 L0.335583804,6.43342222 L1.60252354,9.78417778 C1.66683145,9.95342222 1.79175141,10.0970667 1.95067326,10.1809778 L1.95067326,10.1809778 C2.10811676,10.2663111 2.28625706,10.2855111 2.44591808,10.2350222 L2.44591808,10.2350222 L5.58739642,9.23733333 C5.92002354,9.13137778 6.08042373,8.75804444 5.94663371,8.40391111 L5.94663371,8.40391111 C5.81210452,8.04906667 5.43438795,7.84711111 5.10176083,7.95306667 L5.10176083,7.95306667 L3.41127589,8.48995556 L6.53797081,1.22808889 C6.67841337,0.903111111 6.52392655,0.495644444 6.19425612,0.32 L6.19425612,0.32 C6.0915113,0.265244444 5.98433145,0.239644444 5.88084746,0.239644444 L5.88084746,0.239644444 C5.65022599,0.239644444 5.43882298,0.366933333 5.34199153,0.592355556" id="path-13"></path>
        <path d="M0.933129944,0.88 C0.801853107,1.20444444 0.950870056,1.60533333 1.26487006,1.77688889 L1.26487006,1.77688889 C1.57975706,1.94755556 1.94076836,1.82311111 2.07115819,1.49777778 L2.07115819,1.49777778 C2.20332203,1.17333333 2.05341808,0.772444444 1.73941808,0.600888889 L1.73941808,0.600888889 C1.64362147,0.549333333 1.54338983,0.524444444 1.44759322,0.524444444 L1.44759322,0.524444444 C1.22672881,0.524444444 1.02360452,0.653333333 0.933129944,0.88" id="path-15"></path>
        <linearGradient x1="-0.0133324187%" y1="50.0086056%" x2="99.9935858%" y2="50.0086056%" id="linearGradient-17">
            <stop stop-color="#C8CFE6" offset="0%"></stop>
            <stop stop-color="#EBEFF6" offset="100%"></stop>
        </linearGradient>
        <path d="M0.704282486,0.830222222 C0.57300565,1.15555556 0.722022599,1.55644444 1.0369096,1.728 L1.0369096,1.728 C1.3509096,1.89955556 1.71280791,1.77511111 1.84319774,1.44977778 L1.84319774,1.44977778 C1.97447458,1.12444444 1.82634463,0.722666667 1.51145763,0.552 L1.51145763,0.552 C1.41566102,0.499555556 1.31542938,0.475555556 1.21874576,0.475555556 L1.21874576,0.475555556 C0.997881356,0.475555556 0.795644068,0.604444444 0.704282486,0.830222222" id="path-18"></path>
        <linearGradient x1="-0.00422201226%" y1="49.9848775%" x2="100.029997%" y2="49.9848775%" id="linearGradient-20">
            <stop stop-color="#C8CFE6" offset="0%"></stop>
            <stop stop-color="#EBEFF6" offset="100%"></stop>
        </linearGradient>
        <path d="M0.357241525,0.586 C0.259449153,0.83 0.37054661,1.132 0.607377119,1.26 L0.607377119,1.26 C0.843542373,1.38866667 1.1149661,1.29533333 1.21342373,1.05133333 L1.21342373,1.05133333 C1.3112161,0.807333333 1.20011864,0.506666667 0.963288136,0.378 L0.963288136,0.378 C0.891440678,0.338666667 0.816266949,0.320666667 0.743754237,0.320666667 L0.743754237,0.320666667 C0.578105932,0.320666667 0.426427966,0.417333333 0.357241525,0.586" id="path-21"></path>
        <linearGradient x1="0.0157791057%" y1="49.9735985%" x2="99.9914966%" y2="49.9735985%" id="linearGradient-23">
            <stop stop-color="#C8CFE6" offset="0%"></stop>
            <stop stop-color="#EBEFF6" offset="100%"></stop>
        </linearGradient>
        <polygon id="path-24" points="0 1.3167283 49.2271043 1.3167283 49.2271043 38.71732 0 38.71732"></polygon>
        <polygon id="path-26" points="1.33592609 0.21257 9.83973913 0.21257 9.83973913 21.35502 1.33592609 21.35502"></polygon>
        <path d="M7.45,3.721 C4.495,2.004 1.371,2.827 0.472,5.558 L0.472,5.558 C-0.426,8.291 1.24,11.897 4.194,13.614 L4.194,13.614 L21.135,23.457 C24.09,25.173 27.214,24.35 28.113,21.618 L28.113,21.618 C28.919,19.167 27.821,16.047 25.146,14.494 L25.146,14.494 C25.824,12.433 25.029,10.006 22.354,8.453 L22.354,8.453 L21.909,8.194 C21.361,5.458 19.44,2.831 16.753,1.269 L16.753,1.269 C15.361,0.461 13.939,0.075 12.632,0.075 L12.632,0.075 C10.24,0.075 8.224,1.365 7.45,3.721 L7.45,3.721 Z" id="path-28"></path>
        <path d="M1.632,3.809 L0.684,6.694 L3.358,8.249 L4.307,5.363 C4.832,3.77 6.654,3.29 8.378,4.291 L8.378,4.291 C10.101,5.292 11.073,7.397 10.548,8.99 L10.548,8.99 L9.599,11.875 L12.274,13.429 L13.223,10.544 C14.197,7.584 12.392,3.678 9.191,1.818 L9.191,1.818 C8.059,1.161 6.904,0.847 5.841,0.846 L5.841,0.846 C3.898,0.846 2.261,1.896 1.632,3.809 L1.632,3.809 Z" id="path-30"></path>
        <path d="M3.493,0.895 L0.509,9.964 C0.284,10.646 0.701,11.549 1.439,11.977 L1.439,11.977 L13.922,19.23 C14.66,19.659 15.441,19.452 15.666,18.77 L15.666,18.77 L18.65,9.702 C18.875,9.02 18.458,8.117 17.72,7.688 L17.72,7.688 L5.237,0.435 C4.976,0.283 4.71,0.211 4.464,0.211 L4.464,0.211 C4.016,0.211 3.638,0.453 3.493,0.895 L3.493,0.895 Z" id="path-32"></path>
        <polygon id="path-34" points="0.823 0.96 3.498 2.516 7.878 2.114 5.204 0.56"></polygon>
        <polygon id="path-36" points="0.281 0.551 2.956 2.105 7.336 1.705 4.661 0.15"></polygon>
        <polygon id="path-38" points="0.739 1.142 4.751 3.473 5.565 0.999 5.119 0.741"></polygon>
        <polygon id="path-40" points="0.594 2.666 1.039 2.924 5.42 2.524 1.408 0.193"></polygon>
        <polygon id="path-42" points="0 0.37104 182.63136 0.37104 182.63136 112 0 112"></polygon>
        <polygon id="path-44" points="0 0 182.63136 0 182.63136 111.62824 0 111.62824"></polygon>
        <path d="M100.271765,35.362197 L57.0385578,62.1661112 C53.8915781,64.1168963 48.741321,64.1168963 45.5943413,62.1661112 L2.36023479,35.362197 C-0.78674493,33.4104999 -0.78674493,30.2184721 2.36023479,28.267687 L45.5943413,1.46377279 C48.741321,-0.487924264 53.8915781,-0.487924264 57.0385578,1.46377279 L100.271765,28.267687 C103.418745,30.2184721 103.418745,33.4104999 100.271765,35.362197" id="path-46"></path>
        <linearGradient x1="50.0001809%" y1="100%" x2="50.0001809%" y2="-0.801863354%" id="linearGradient-48">
            <stop stop-color="#95E0F9" offset="0%"></stop>
            <stop stop-color="#95E0F9" stop-opacity="0" offset="100%"></stop>
        </linearGradient>
        <linearGradient x1="50.0001809%" y1="0%" x2="50.0001809%" y2="144.332919%" id="linearGradient-49">
            <stop stop-color="#CEE9F7" offset="0%"></stop>
            <stop stop-color="#FFFFFF" offset="100%"></stop>
        </linearGradient>
        <linearGradient x1="29.0129241%" y1="23.7962289%" x2="77.8019696%" y2="84.9401261%" id="linearGradient-50">
            <stop stop-color="#71BF5D" offset="0.0338692197%"></stop>
            <stop stop-color="#89E872" offset="100%"></stop>
        </linearGradient>
        <path d="M0.0622773552,1.74742726 L3.32147736,16.9154273 C3.61267736,17.8738273 4.81107736,18.1906273 5.53747736,17.5042273 L14.1054774,9.49622726 C14.7470774,8.88982726 14.6414774,7.84182726 13.8942774,7.37302726 L2.06707736,0.209827263 C1.00947736,-0.450972737 -0.302522645,0.555427263 0.0622773552,1.74742726" id="path-51"></path>
        <linearGradient x1="77.1624742%" y1="23.8263343%" x2="76.2633735%" y2="8.71077935%" id="linearGradient-53">
            <stop stop-color="#96EA81" offset="0.0338692197%"></stop>
            <stop stop-color="#A4E693" offset="100%"></stop>
        </linearGradient>
        <path d="M1.01504,17.78752 L2.91424,18.95392 C3.40384,19.25152 3.79904,18.93472 3.79904,18.24032 L3.79904,4.83552 C3.79904,4.14432 3.40384,3.33952 2.91424,3.03872 L1.01504,1.87552 C0.52544,1.57472 0.13024,1.89312 0.13024,2.58592 L0.13024,15.99232 C0.13024,16.68512 0.52544,17.48832 1.01504,17.78752" id="path-54"></path>
        <path d="M1.01504,17.78752 L2.91424,18.95392 C3.40384,19.25152 3.79904,18.93472 3.79904,18.24032 L3.79904,4.83552 C3.79904,4.14432 3.40384,3.33952 2.91424,3.03872 L1.01504,1.87552 C0.52544,1.57472 0.13024,1.89312 0.13024,2.58592 L0.13024,15.99232 C0.13024,16.68512 0.52544,17.48832 1.01504,17.78752" id="path-56"></path>
        <path d="M1.01504,17.78752 L2.91424,18.95392 C3.40384,19.25152 3.79904,18.93472 3.79904,18.24032 L3.79904,4.83552 C3.79904,4.14432 3.40384,3.33952 2.91424,3.03872 L1.01504,1.87552 C0.52544,1.57472 0.13024,1.89312 0.13024,2.58592 L0.13024,15.99232 C0.13024,16.68512 0.52544,17.48832 1.01504,17.78752" id="path-58"></path>
        <polygon id="path-60" points="0 0.0014217141 85.8594483 0.0014217141 85.8594483 74.9733757 0 74.9733757"></polygon>
        <polygon id="path-62" points="0.0791186441 0.55090283 86.6621695 0.55090283 86.6621695 76 0.0791186441 76"></polygon>
        <polygon id="path-64" points="0 0.00208518068 125.794075 0.00208518068 125.794075 109.960951 0 109.960951"></polygon>
        <polygon id="path-66" points="0.116404442 0.811856802 127.502962 0.811856802 127.502962 112 0.116404442 112"></polygon>
    </defs>
    <g id="Desktop" stroke="none" stroke-width="1" fill="none" fill-rule="evenodd">
        <g id="ISV-Landing" transform="translate(-783.000000, -181.000000)">
            <g id="Hero" transform="translate(0.000000, 101.000000)">
                <g id="illustration_cloud-technology" transform="translate(783.000000, 80.000000)">
                    <g id="Group-6" transform="translate(32.000000, 173.000000)">
                        <polygon id="Stroke-2-Copy-2" fill="#234363" fill-rule="nonzero" points="0 100.595185 0 104.041022 10.6641128 110.16196 75 72.0260744 75 70.2034346 64.3358872 64.171875"></polygon>
                        <g id="Group-13">
                            <polygon id="Fill-1" fill="#2BB0F7" points="66.1625581 9.49379531 66.1625581 67.8902016 74.43 63.1432172 74.4317442 4.74854531"></polygon>
                            <polygon id="Fill-2" fill="#1798DD" points="66.1625581 67.8905484 57.8933721 63.1435641 57.8916279 4.74715781 66.1625581 9.49414219"></polygon>
                            <polygon id="Fill-3" fill="#4AC8FF" points="66.1597674 0.0001734375 57.8905814 4.74715781 66.1632558 9.49414219 74.4324419 4.74889219 66.165 0.0001734375"></polygon>
                            <polygon id="Fill-4" fill="#FF6482" points="55.1326744 74.2199766 46.8652326 78.9669609 46.8652326 44.1528516 55.1344186 39.4076016"></polygon>
                            <polygon id="Fill-5" fill="#F43B5F" points="46.8648837 78.9674812 38.5956977 74.2204969 38.5939535 39.4046531 46.8648837 44.1533719"></polygon>
                            <polygon id="Fill-6" fill="#FF8AA6" points="38.5944767 39.4055203 46.865407 34.6602703 55.134593 39.4072547 46.865407 44.1525047"></polygon>
                            <polygon id="Fill-7" fill="#FDCC59" points="35.8351744 85.2969094 27.5677326 90.0438937 27.5677326 34.5560344 35.8369186 29.80905"></polygon>
                            <polygon id="Fill-8" fill="#F9B050" points="27.5672093 90.0444141 19.2980233 85.2974297 19.2980233 29.8078359 27.5672093 34.5565547"></polygon>
                            <polygon id="Fill-9" fill="#FFE780" points="19.2976744 29.8071422 27.5686047 25.0618922 35.8377907 29.8088766 27.5668605 34.5558609"></polygon>
                            <polygon id="Fill-10" fill="#93E85D" points="8.27110465 78.9680016 8.27110465 101.122908 16.5385465 96.3741891 16.5402907 74.2192828"></polygon>
                            <polygon id="Fill-11" fill="#74D350" points="0.00156976744 96.3755766 8.27075581 101.122561 8.27075581 78.9676547 -0.000174418605 74.2189359"></polygon>
                            <polygon id="Fill-12" fill="#CDF46C" points="0 74.2196297 8.27093023 78.9683484 16.5401163 74.2196297 8.27093023 69.4743797"></polygon>
                        </g>
                    </g>
                    <g id="Laptop" transform="translate(257.000000, 121.000000)">
                        <path d="M130.811783,120.573844 L84.1861284,147.476242 C82.828266,148.259757 80.4389648,148.151763 78.8508174,147.235677 L1.32447774,102.504603 C-0.263669738,101.588516 -0.449984553,100.209918 0.908623076,99.4256592 L47.5335328,72.5240059 C48.8921404,71.7404915 51.2814416,71.8477406 52.8695891,72.7645716 L130.395183,117.494901 C131.984076,118.412477 132.170391,119.79033 130.811783,120.573844" id="Fill-1" fill="#234363"></path>
                        <g id="Group-5" transform="translate(50.559322, 0.000000)">
                            <mask id="mask-2" fill="white">
                                <use xlink:href="#path-1"></use>
                            </mask>
                            <g id="Clip-4"></g>
                            <path d="M23.7813606,0.095337931 C22.4870716,0.0975724138 21.5180179,1.34664828 21.3406168,2.30896552 L21.3406168,2.30896552 L0.566205273,57.374069 C0.566205273,59.1959172 1.84349341,61.4162483 3.41866761,62.3323862 L3.41866761,62.3323862 L80.4942844,107.065986 C82.0701977,107.982124 82.9697693,107.290179 83.3474859,105.427366 L83.3474859,105.427366 L105.705942,47.5080828 C106.080702,45.6124966 105.474581,43.9962207 103.898668,43.0793379 L103.898668,43.0793379 L24.8487241,0.373158621 C24.4791384,0.179503448 24.1228578,0.095337931 23.7887524,0.095337931 L23.7887524,0.095337931 L23.7813606,0.095337931 Z" id="Fill-3" fill="url(#linearGradient-3)" mask="url(#mask-2)"></path>
                        </g>
                        <g id="Group-8" transform="translate(0.000000, 61.333333)">
                            <mask id="mask-5" fill="white">
                                <use xlink:href="#path-4"></use>
                            </mask>
                            <g id="Clip-7"></g>
                            <path d="M47.4822222,0.984440129 L1.0870628,24.1825761 C-0.794022043,25.1039482 0.0222000571,29.2736828 1.59914412,30.1653333 L1.59914412,30.1653333 L78.5785822,73.7032492 C80.1555263,74.5948997 82.5272324,74.7000129 83.8762559,73.9373981 L83.8762559,73.9373981 L130.172995,47.7518706 C130.828637,47.3814369 131.121677,46.8732686 131.068397,46.3462524 L131.068397,46.3462524 L131.068397,43.4081553 L127.376528,43.4081553 L52.7798958,1.21786408 C51.9111336,0.726368932 50.8011307,0.474097087 49.753288,0.474097087 L49.753288,0.474097087 C48.8993258,0.474097087 48.0875438,0.641553398 47.4822222,0.984440129" id="Fill-6" fill="url(#linearGradient-6)" mask="url(#mask-5)"></path>
                        </g>
                        <path d="M155.575212,47.4196105 L133.229908,104.643676 C132.780017,106.461876 131.953371,107.183972 130.379123,106.27302 L53.5320488,61.7926522 C50.4869766,60.276621 50.3576976,58.634686 50.6805255,56.8624034 L71.710879,1.94608264 C71.9598332,0.627794699 72.9874158,-0.595695009 74.5616635,0.315256771 L153.732803,43.0166769 C155.30779,43.9276287 155.923157,45.571045 155.575212,47.4196105" id="Fill-9" fill="#234363"></path>
                        <g id="Group-13" transform="translate(53.220339, 4.000000)">
                            <mask id="mask-8" fill="white">
                                <use xlink:href="#path-7"></use>
                            </mask>
                            <g id="Clip-12"></g>
                            <path d="M21.5028757,0.584 L0.614871012,52.5270677 C0.614871012,52.8849323 0.868743769,53.3218346 1.18204917,53.5018647 L1.18204917,53.5018647 L76.8764862,97.0903659 C77.1897916,97.2711278 77.4443981,97.1276892 77.4443981,96.7683609 L77.4443981,96.7683609 L99.6377197,42.5456441 C99.6377197,42.1870476 99.3831132,41.7501454 99.0705415,41.5708471 L99.0705415,41.5708471 L22.0700539,0.260531328 C21.9783369,0.207839599 21.8924897,0.182957393 21.8161811,0.182957393 L21.8161811,0.182957393 C21.6305459,0.182957393 21.5028757,0.329323308 21.5028757,0.584" id="Fill-11" fill="url(#linearGradient-9)" mask="url(#mask-8)"></path>
                        </g>
                        <path d="M130.811783,106.38868 L84.1861284,132.818159 C82.828266,133.588653 80.4389648,133.482555 78.8508174,132.582548 L1.32447774,88.6358562 C-0.263669738,87.735849 -0.449984553,86.381448 0.908623076,85.610954 L47.5335328,59.1814753 C48.8921404,58.4117131 51.2814416,58.5170797 52.8695891,59.4178186 L130.395183,103.363778 C131.984076,104.264517 132.170391,105.618187 130.811783,106.38868" id="Fill-14" fill="#FFFFFF"></path>
                        <g id="Group-18" transform="translate(30.601695, 92.000000)">
                            <mask id="mask-11" fill="white">
                                <use xlink:href="#path-10"></use>
                            </mask>
                            <g id="Clip-17"></g>
                            <path d="M12.7250543,0.72525 L1.1232105,7.5465 C0.435290103,7.95075 0.360900424,8.562 0.956017857,8.91225 L0.956017857,8.91225 L26.2168379,23.76375 C26.8126919,24.114 27.8526743,24.06975 28.5405947,23.66625 L28.5405947,23.66625 L40.1431751,16.84425 C40.8310955,16.44 40.9054852,15.82875 40.3096312,15.47925 L40.3096312,15.47925 L15.0488111,0.62775 C14.7785041,0.46875 14.4176037,0.3915 14.0390265,0.39075 L14.0390265,0.39075 C13.582377,0.39075 13.1014219,0.50475 12.7250543,0.72525" id="Fill-16" fill="url(#linearGradient-12)" mask="url(#mask-11)"></path>
                        </g>
                        <g id="Group-29" transform="translate(27.940678, 17.333333)">
                            <path d="M1.51218497,89.8846667 C1.66458141,89.8742512 1.82360379,89.8772271 1.98704345,89.8928502 C2.46558299,89.936744 2.97283492,90.0885121 3.39763079,90.3355072 L21.2015106,100.722696 C21.7706046,101.055246 22.0422678,101.475585 21.9752723,101.823014 C21.823612,101.83343 21.6638534,101.830454 21.5004138,101.814831 C21.0218742,101.770937 20.5146223,101.618425 20.0898264,101.370686 L2.28668282,90.9849855 C1.71758887,90.6524348 1.44592565,90.2320966 1.51218497,89.8846667" id="Fill-19" fill="#D6DCED"></path>
                            <path d="M62.7035523,96.0085101 L66.2395915,98.1020174 C66.447204,98.224771 66.4494127,98.4226647 66.244745,98.5424425 L65.2412844,99.130172 C65.0358805,99.2499498 64.701639,99.2477179 64.4940265,99.1249643 L60.9594597,97.031457 C60.7518472,96.9079594 60.7496385,96.7108097 60.9550424,96.5910319 L61.9562944,96.0033024 C62.1616983,95.8835246 62.4959398,95.8857565 62.7035523,96.0085101 L62.7035523,96.0085101 Z M65.0425064,94.6373894 L68.5807542,96.7308966 C68.7891029,96.8536502 68.7913116,97.0508 68.5859077,97.1705778 L67.6568048,97.7159014 C67.4514009,97.8356792 67.1164232,97.8334473 66.9080744,97.7099498 L63.3720353,95.6171865 C63.1644227,95.4944329 63.1622141,95.2965391 63.3668818,95.1767614 L64.2952485,94.6321816 C64.4999162,94.5116599 64.8348939,94.5138918 65.0425064,94.6373894 L65.0425064,94.6373894 Z M57.7444102,92.9850512 L61.2745596,95.0748386 C61.4821722,95.1975923 61.4843808,95.394742 61.2789769,95.5152638 L60.2033672,96.146143 C59.9986996,96.2666647 59.6644581,96.2636889 59.4568455,96.1409353 L55.9289048,94.0504039 C55.7220284,93.9283942 55.7198198,93.7312444 55.9244875,93.6107227 L56.9986247,92.9805874 C57.2032924,92.8608097 57.5375339,92.8622976 57.7444102,92.9850512 L57.7444102,92.9850512 Z M63.3396418,92.623486 L60.0708486,90.6906744 C59.8632361,90.5679208 59.8610274,90.370771 60.0656951,90.2509932 L63.2932603,88.3561237 C63.4986642,88.2356019 63.8329057,88.2378338 64.0405182,88.3598435 L67.3129925,90.2926551 C67.520605,90.4154087 67.5228137,90.6125585 67.318146,90.7330802 L64.0868997,92.6286937 C63.8814958,92.7484715 63.5472544,92.7462396 63.3396418,92.623486 L63.3396418,92.623486 Z M67.4455111,88.7526551 L70.6789661,86.8555536 C70.88437,86.7350319 71.2193476,86.7372638 71.4276964,86.8600174 L74.7075328,88.7935729 C74.9158816,88.9170705 74.9180902,89.1134763 74.7126863,89.234742 L71.4755504,91.1318435 C71.2701465,91.2523652 70.9351688,91.2501333 70.72682,91.1273797 L67.4506646,89.1930802 C67.2430521,89.0703266 67.2408435,88.8731768 67.4455111,88.7526551 L67.4455111,88.7526551 Z M62.5239159,86.2849353 C62.3170396,86.1621816 62.314831,85.9650319 62.5194987,85.8452541 L65.7485363,83.9481527 C65.953204,83.8276309 66.2881816,83.8291188 66.4957942,83.9518725 L69.7704771,85.8824522 C69.9780897,86.0052058 69.9802983,86.2023556 69.7748944,86.3221333 L66.5421757,88.2199787 C66.337508,88.3397565 66.0025304,88.3382686 65.7949178,88.215515 L62.5239159,86.2849353 Z M54.7553785,88.6819787 L58.2811107,90.7680464 C58.487987,90.890056 58.4901957,91.0872058 58.285528,91.2077275 L55.0616439,93.1003652 C54.8569762,93.220143 54.5234709,93.2179111 54.3165946,93.0959014 L50.7945435,91.0090899 C50.5876672,90.8863362 50.5861948,90.6906744 50.7901262,90.5694087 L54.0095931,88.677515 C54.2142607,88.5569932 54.547766,88.5592251 54.7553785,88.6819787 L54.7553785,88.6819787 Z M58.3738737,85.4502106 C58.5785414,85.3296889 58.9127829,85.3311768 59.1196592,85.4531865 L62.38698,87.3830222 C62.5945926,87.5057758 62.596065,87.7029256 62.3913973,87.8227034 L59.1645683,89.7175729 C58.9606368,89.8380947 58.6256592,89.8358628 58.4187828,89.7131092 L55.1558793,87.7832734 C54.9482668,87.6605198 54.9460581,87.464858 55.1507258,87.3443362 L58.3738737,85.4502106 Z M57.4734832,84.9182783 L54.2518077,86.8124039 C54.04714,86.9321816 53.7136348,86.9306937 53.5067584,86.8086841 L50.2490084,84.8818242 C50.0421321,84.7590705 50.0399235,84.5626647 50.2445911,84.442143 L53.4625855,82.5487614 C53.6672532,82.4282396 54.0007585,82.4297275 54.2068986,82.5524812 L57.4690659,84.4785971 C57.6759422,84.6006068 57.6781509,84.7977565 57.4734832,84.9182783 L57.4734832,84.9182783 Z M52.6969223,80.4820367 C52.4900459,80.3600271 52.4885735,80.1636213 52.692505,80.0430995 L55.9119718,78.147486 C56.1166395,78.0277082 56.4501448,78.0284522 56.6570211,78.1504618 L59.9206608,80.0750899 C60.1275371,80.1970995 60.1297458,80.3942493 59.9250781,80.514771 L56.7019302,82.4103845 C56.4972625,82.5309063 56.1637572,82.5294184 55.9561447,82.4066647 L52.6969223,80.4820367 Z M61.5719904,81.0489353 L64.8407836,82.9757952 C65.0491323,83.0985488 65.0506048,83.2956986 64.8459371,83.4162203 L61.6176357,85.3125778 C61.412968,85.4330995 61.0787265,85.4308676 60.8718502,85.308858 L57.606738,83.3805101 C57.3991255,83.2585005 57.3969168,83.0620947 57.6015845,82.9423169 L60.8262049,81.0459594 C61.0308726,80.9254377 61.365114,80.9269256 61.5719904,81.0489353 L61.5719904,81.0489353 Z M48.4268771,84.9376213 L53.1062576,87.7066454 C53.313134,87.8286551 53.3153426,88.0258048 53.1106749,88.1455826 L49.8919443,90.0382203 C49.6872766,90.1579981 49.3545076,90.1557662 49.1476313,90.0337565 L44.4741404,87.2639884 C44.2672641,87.1419787 44.2657916,86.9455729 44.4697231,86.8257952 L47.6833002,84.9339014 C47.8872317,84.8141237 48.220737,84.8156116 48.4268771,84.9376213 L48.4268771,84.9376213 Z M45.3458186,81.5459014 L48.5601319,79.6525198 C48.7633272,79.532742 49.0968324,79.533486 49.3029726,79.6562396 L52.5592501,81.5786357 C52.7661265,81.7013894 52.7683351,81.8970512 52.5636674,82.0175729 L49.3464092,83.9109546 C49.1424778,84.0314763 48.8089725,84.0299884 48.6028324,83.9072348 L45.3502359,81.9840947 C45.1440958,81.862085 45.1418871,81.6664232 45.3458186,81.5459014 L45.3458186,81.5459014 Z M37.8850189,73.3467034 L34.6810126,75.2385971 C34.4770811,75.3591188 34.1457845,75.3576309 33.9403806,75.2363652 L30.7047171,73.3221527 C30.4993132,73.200887 30.4978407,73.0052251 30.701036,72.8854473 L33.900625,70.9935536 C34.1038203,70.8737758 34.4358531,70.8745198 34.641257,70.9957855 L37.8806016,72.9092541 C38.0860055,73.0305198 38.0882142,73.2269256 37.8850189,73.3467034 L37.8850189,73.3467034 Z M36.3794599,70.8484812 L33.1415877,68.9365005 C32.9361838,68.8152348 32.9347114,68.6203169 33.1379066,68.4990512 L36.3389681,66.6064135 C36.5428996,66.4851478 36.8741962,66.4866357 37.0796001,66.6071575 L40.3211533,68.5191382 C40.5265572,68.6404039 40.5287659,68.8368097 40.3255706,68.9565874 L37.1200919,70.850713 C36.9168966,70.9704908 36.5848638,70.9697469 36.3794599,70.8484812 L36.3794599,70.8484812 Z M41.2200715,69.484056 C41.4240029,69.3642783 41.7560358,69.3650222 41.9621759,69.4862879 L45.2081465,71.4005005 C45.4150228,71.5225101 45.4164952,71.7189159 45.2125637,71.8386937 L42.0026677,73.7335633 C41.7994724,73.8533411 41.4674396,73.8525971 41.2612995,73.7305874 L38.0182738,71.8156309 C37.8121337,71.6936213 37.8106613,71.4987034 38.0138565,71.3781816 L41.2200715,69.484056 Z M42.7690672,76.2325295 L39.5606436,78.1251671 C39.3574483,78.2449449 39.0254155,78.243457 38.8192754,78.1214473 L35.5784583,76.2050029 C35.3723182,76.0829932 35.3708458,75.8873314 35.574041,75.7668097 L38.7787836,73.8749159 C38.982715,73.7551382 39.3140116,73.7558821 39.5201518,73.8778918 L42.7646499,75.7943362 C42.9715262,75.9156019 42.9729987,76.1120077 42.7690672,76.2325295 L42.7690672,76.2325295 Z M46.8521139,72.3698821 L50.1039741,74.2870705 C50.3108505,74.4090802 50.3123229,74.604742 50.1083914,74.7260077 L46.8940781,76.6201333 C46.6901466,76.741399 46.3573776,76.7399111 46.1512375,76.6179014 L42.902322,74.6992251 C42.6969181,74.5779594 42.6947095,74.3822976 42.898641,74.2617758 L46.1092732,72.3676502 C46.3132047,72.2471285 46.6452375,72.2486164 46.8521139,72.3698821 L46.8521139,72.3698821 Z M47.66195,79.1228193 L44.4498453,81.016201 C44.2459139,81.1359787 43.9131448,81.1344908 43.7070047,81.0124812 L40.4602979,79.0923169 C40.2541578,78.9703072 40.2519492,78.7739014 40.4558806,78.6541237 L43.6650405,76.761486 C43.8689719,76.6417082 44.201741,76.6424522 44.4071449,76.7644618 L47.6575327,78.6838821 C47.8644091,78.8058918 47.8666177,79.0022976 47.66195,79.1228193 L47.66195,79.1228193 Z M51.7501502,75.2571961 L55.0079002,77.1781043 C55.2147765,77.300858 55.2169852,77.4972638 55.0123175,77.6170415 L51.7935868,79.5126551 C51.5896554,79.6331768 51.2561501,79.6316889 51.0492738,79.5096792 L47.7952049,77.5880271 C47.5890648,77.4667614 47.5875923,77.2703556 47.7915238,77.1498338 L51.0065733,75.2549643 C51.2105048,75.1344425 51.5432739,75.1359304 51.7501502,75.2571961 L51.7501502,75.2571961 Z M25.296484,71.6884135 C25.4996792,71.5678918 25.8302396,71.5686357 26.0349073,71.6899014 L46.7821735,83.9652638 C46.9883136,84.0872734 46.989786,84.2829353 46.7858545,84.402713 L43.5730136,86.2946068 C43.3690822,86.4143845 43.0370493,86.4136406 42.830173,86.290143 L22.1072019,74.0140367 C21.9025342,73.8920271 21.9010618,73.6971092 22.1035209,73.5773314 L25.296484,71.6884135 Z M25.8353931,70.0085488 L29.0313011,68.117399 C29.2344963,67.9968773 29.5650567,67.9983652 29.7704606,68.118887 L33.0039155,70.0286357 C33.2093194,70.1499014 33.2115281,70.3463072 33.0083328,70.466085 L29.8087438,72.3579787 C29.6055485,72.4777565 29.2749881,72.4762686 29.0695842,72.3550029 L25.8390742,70.4452541 C25.6344065,70.3239884 25.6321979,70.1283266 25.8353931,70.0085488 L25.8353931,70.0085488 Z M28.1397451,67.5906744 L24.9445733,69.4818242 C24.7421143,69.6016019 24.4115539,69.600858 24.2068862,69.4795923 L20.9822659,67.5720754 C20.7775982,67.4508097 20.7761258,67.2558918 20.9785848,67.13537 L24.1700755,65.2449643 C24.3725345,65.1251865 24.7023587,65.1259304 24.9077626,65.2464522 L28.136064,67.1539691 C28.3407317,67.2752348 28.3429404,67.4708966 28.1397451,67.5906744 L28.1397451,67.5906744 Z M26.640812,65.0976599 L23.413983,63.1931188 C23.2093153,63.0725971 23.2078429,62.8769353 23.4103019,62.7571575 L26.6025288,60.8645198 C26.8057241,60.744742 27.1355483,60.744742 27.3409522,60.8660077 L30.570726,62.7698048 C30.7761299,62.8910705 30.7783385,63.0867324 30.5751433,63.2065101 L27.3792353,65.0998918 C27.1760401,65.2196696 26.8454797,65.2189256 26.640812,65.0976599 L26.640812,65.0976599 Z M31.4666993,63.7324908 C31.6698945,63.612713 32.0011911,63.613457 32.206595,63.7339787 L35.4422586,65.6422396 C35.6476625,65.7635053 35.6491349,65.9584232 35.4459397,66.0796889 L32.2456144,67.9723266 C32.0424192,68.0928483 31.7111226,68.0921043 31.5057187,67.9700947 L28.2737362,66.0625778 C28.0690685,65.9413121 28.0668598,65.7456502 28.2700551,65.6258725 L31.4666993,63.7324908 Z M18.9591479,67.9381043 C19.1608707,67.8175826 19.4914311,67.8183266 19.6960988,67.9395923 L24.4027193,70.7242396 C24.607387,70.8455053 24.6088594,71.0404232 24.4064004,71.1616889 L21.2141735,73.0498628 C21.0117145,73.1696406 20.6811541,73.1688966 20.4764864,73.0476309 L15.7750194,70.2622396 C15.5703517,70.1409739 15.5696155,69.946056 15.7713383,69.8262783 L18.9591479,67.9381043 Z M16.1298749,64.268143 L19.316212,62.3784812 C19.5186711,62.2587034 19.8484953,62.2594473 20.0531629,62.3799691 L23.2763109,64.2830222 C23.4809785,64.4050319 23.482451,64.5992058 23.2799919,64.7197275 L20.0892375,66.6101333 C19.8867784,66.7306551 19.5569542,66.7299111 19.3530228,66.6079014 L16.1335559,64.7041043 C15.9288883,64.5835826 15.9274158,64.3886647 16.1298749,64.268143 L16.1298749,64.268143 Z M21.7832675,62.2304329 L18.5623282,60.3288676 C18.3583967,60.2076019 18.3561881,60.0126841 18.5586471,59.8929063 L21.7471929,58.0010126 C21.949652,57.8804908 22.2794762,57.8812348 22.4841439,58.0017565 L25.7087642,59.9033217 C25.9134319,60.0238435 25.9149043,60.2195053 25.7124453,60.3400271 L22.5209546,62.2319208 C22.3184955,62.3516986 21.9879352,62.3516986 21.7832675,62.2304329 L21.7832675,62.2304329 Z M13.1894334,64.5240657 C13.3911562,64.4042879 13.7202442,64.4050319 13.9249119,64.5255536 L18.0668557,66.9761623 C18.2707872,67.097428 18.2729958,67.2916019 18.0705368,67.4121237 L14.8834634,69.3002976 C14.6817406,69.4200754 14.3519164,69.4193314 14.1479849,69.2980657 L10.0104584,66.847457 C9.8065269,66.7261913 9.80505447,66.5312734 10.0067773,66.4114957 L13.1894334,64.5240657 Z M8.35323911,61.6620464 C8.55496193,61.5422686 8.88331368,61.5430126 9.08724515,61.6635343 L12.2986136,63.5636116 C12.5025451,63.6841333 12.5040175,63.8790512 12.3022947,63.9995729 L9.12111103,65.8870029 C8.9193882,66.0067807 8.59103645,66.0060367 8.38710498,65.884771 L5.17868137,63.9839498 C4.97548611,63.863428 4.97327747,63.6685101 5.17500029,63.5487324 L8.35323911,61.6620464 Z M7.46462798,60.7030802 C7.66782323,60.8236019 7.67003188,61.0185198 7.46757284,61.1382976 L4.29080645,63.0249836 C4.08908363,63.1447614 3.76073188,63.1440174 3.55753662,63.0242396 L0.355002723,61.1263942 C0.151807469,61.0058725 0.15033504,60.8109546 0.352057864,60.6919208 L3.52514318,58.8052348 C3.726866,58.685457 4.05448154,58.686201 4.25841301,58.8059787 L7.46462798,60.7030802 Z M18.4246561,61.4180271 C18.6285875,61.5385488 18.6307962,61.7342106 18.4283371,61.8539884 L15.242,63.7436502 C15.0402771,63.863428 14.7104529,63.8626841 14.5065215,63.7421623 L5.20739374,58.242056 C5.00346227,58.1215343 5.00198984,57.9266164 5.20371267,57.8068386 L8.38047905,55.9186647 C8.58220188,55.798143 8.91055363,55.798887 9.1144851,55.9186647 L18.4246561,61.4180271 Z M20.8541645,57.0405585 C21.0588322,57.1610802 21.0603046,57.356742 20.8578456,57.4765198 L17.6707722,59.3684135 C17.4683132,59.4881913 17.1392252,59.4881913 16.9345575,59.3676696 L10.1010128,55.3324232 C9.89708131,55.2126454 9.89560888,55.0177275 10.0973317,54.8972058 L13.2777792,53.0068 C13.479502,52.8870222 13.80859,52.8870222 14.0125214,53.0068 L20.8541645,57.0405585 Z M25.6461859,52.4614763 C25.4437269,52.5819981 25.1139027,52.5812541 24.909235,52.4614763 L19.9169632,49.5191092 C19.7130318,49.3985874 19.7115593,49.2036696 19.9132822,49.0831478 L21.5947965,48.0765681 C21.7972555,47.9567903 22.1263435,47.9567903 22.3310112,48.0765681 L27.3291727,51.0181913 C27.5338404,51.138713 27.5353128,51.3343749 27.3328538,51.4541527 L25.6461859,52.4614763 Z M30.4993132,55.3227517 C30.2968541,55.4425295 29.9662937,55.4417855 29.7616261,55.3212638 L26.5377419,53.4211865 C26.3338105,53.3006647 26.332338,53.1057469 26.5347971,52.9852251 L28.2222011,51.9779014 C28.4246602,51.8573797 28.7552206,51.8581237 28.9598883,51.9786454 L32.1867172,53.8779787 C32.3921211,53.9985005 32.3935936,54.1941623 32.1911345,54.3146841 L30.4993132,55.3227517 Z M35.361275,58.1870029 C35.1580797,58.3075246 34.8275193,58.3067807 34.6228516,58.1862589 L31.393814,56.2832058 C31.1884101,56.1619401 31.1869377,55.9670222 31.3893967,55.8472444 L33.0819543,54.8391768 C33.2851496,54.7186551 33.61571,54.719399 33.8203776,54.8399208 L37.0530963,56.7429739 C37.2585002,56.8634957 37.2607089,57.0591575 37.0575136,57.1796792 L35.361275,58.1870029 Z M40.2320714,61.0579498 C40.0288761,61.1784715 39.6968433,61.1777275 39.4914394,61.0564618 L36.2572483,59.1496889 C36.0518444,59.0284232 36.0503719,58.8327614 36.252831,58.7129836 L37.9498058,57.7049159 C38.1530011,57.5843942 38.4842977,57.5851382 38.6897016,57.7056599 L41.9275738,59.6116889 C42.1337139,59.7329546 42.1359226,59.9286164 41.9319911,60.0491382 L40.2320714,61.0579498 Z M45.1102299,63.9326164 C44.9070346,64.0531382 44.5750018,64.0523942 44.3688617,63.9311285 L41.1287809,62.0206357 C40.923377,61.89937 40.9219045,61.7044522 41.1250998,61.5846744 L42.8257557,60.5751188 C43.0296872,60.4545971 43.36172,60.4553411 43.5671239,60.5766068 L46.8108858,62.4856116 C47.0170259,62.6076213 47.0184984,62.8025391 46.8145669,62.9230609 L45.1102299,63.9326164 Z M49.2543824,66.8102589 L46.009148,64.8975343 C45.8030079,64.7762686 45.8015355,64.5806068 46.0047307,64.460085 L47.7105402,63.4505295 C47.9144716,63.3300077 48.2465045,63.3307517 48.4526446,63.4520174 L51.7022962,65.364742 C51.9084363,65.4867517 51.9099088,65.6824135 51.7059773,65.8021913 L49.997223,66.8124908 C49.7932915,66.9330126 49.4605225,66.9322686 49.2543824,66.8102589 L49.2543824,66.8102589 Z M54.1487376,69.6953411 L50.8976136,67.7788966 C50.6914735,67.6576309 50.6892648,67.4612251 50.8931963,67.3407034 L52.603423,66.3304039 C52.8073545,66.2098821 53.1401235,66.21137 53.3469998,66.3326357 L56.6010688,68.2490802 C56.8079451,68.3703459 56.8101537,68.5667517 56.6062223,68.6865295 L54.8923145,69.6975729 C54.6876468,69.8180947 54.3548778,69.8166068 54.1487376,69.6953411 L54.1487376,69.6953411 Z M59.0511913,72.584887 L55.7941775,70.6654667 C55.5873011,70.543457 55.5858287,70.3470512 55.7897602,70.2265295 L57.5044042,69.215486 C57.7083357,69.0957082 58.0418409,69.0964522 58.2487172,69.2184618 L61.5094121,71.1371382 C61.7162884,71.2591478 61.7184971,71.4555536 61.5138294,71.5760754 L59.7955043,72.5871188 C59.5908366,72.7076406 59.2573314,72.7061527 59.0511913,72.584887 L59.0511913,72.584887 Z M63.961007,75.4781527 L60.6988397,73.5557565 C60.4919634,73.4337469 60.490491,73.238085 60.6944224,73.1168193 L62.4134837,72.1057758 C62.6181514,71.9852541 62.9523929,71.986742 63.1592692,72.1087517 L66.4251176,74.0311478 C66.6327301,74.1531575 66.6349388,74.3503072 66.4302711,74.470829 L64.7067925,75.4818725 C64.5021248,75.6016502 64.1686196,75.6009063 63.961007,75.4781527 L63.961007,75.4781527 Z M68.8803936,78.378114 L65.6123366,76.4519981 C65.404724,76.3299884 65.4032516,76.1328386 65.6079193,76.0123169 L67.3321341,75.0012734 C67.5360655,74.8807517 67.8710432,74.8822396 68.0786558,75.0042493 L71.3496576,76.9296213 C71.5572702,77.0523749 71.5594788,77.2487807 71.3548111,77.3693024 L69.6269153,78.3818338 C69.4222476,78.5023556 69.0880061,78.5001237 68.8803936,78.378114 L68.8803936,78.378114 Z M73.8078785,81.2817952 L70.5339318,79.3527034 C70.3263192,79.2299498 70.3248468,79.033544 70.5295145,78.9130222 L72.2581466,77.9012348 C72.4628142,77.780713 72.7977919,77.782201 73.0061407,77.9042106 L76.2830323,79.8333024 C76.491381,79.956056 76.4928535,80.1532058 76.2874496,80.2737275 L74.5558726,81.2862589 C74.3504687,81.4060367 74.015491,81.4045488 73.8078785,81.2817952 L73.8078785,81.2817952 Z M78.7434618,84.191428 L75.4643615,82.2593604 C75.2560128,82.1366068 75.2538041,81.939457 75.459208,81.8189353 L77.1922574,80.8056599 C77.3976613,80.6851382 77.7333752,80.6866261 77.941724,80.8093797 L81.2237691,82.7414473 C81.4321178,82.864201 81.4350627,83.0620947 81.2296588,83.1826164 L79.4921921,84.1951478 C79.2867882,84.3156696 78.9510743,84.3141816 78.7434618,84.191428 L78.7434618,84.191428 Z M83.6871434,87.1055246 L80.4028897,85.1697372 C80.1945409,85.0469836 80.1923323,84.8498338 80.3977362,84.7293121 L82.1359391,83.7160367 C82.3413429,83.594771 82.6770568,83.5962589 82.8861418,83.7190126 L86.1740766,85.6548 C86.3831616,85.7782976 86.3853702,85.9754473 86.1792301,86.096713 L84.4373462,87.1099884 C84.2319423,87.2305101 83.8962284,87.2282783 83.6871434,87.1055246 L83.6871434,87.1055246 Z M88.6396596,90.024829 L85.3495162,88.0853217 C85.1411674,87.9625681 85.1389588,87.7646744 85.3443627,87.6441527 L87.0869828,86.6308773 C87.2931229,86.5096116 87.6288368,86.5110995 87.838658,86.6345971 L91.1317463,88.5733604 C91.3408313,88.696858 91.3437762,88.8940077 91.1376361,89.0152734 L89.3913348,90.0292928 C89.1851947,90.1498145 88.8487446,90.1475826 88.6396596,90.024829 L88.6396596,90.024829 Z M20.729008,55.3629256 C20.526549,55.4827034 20.197461,55.4827034 19.9927933,55.3621816 L15.0005215,52.4198145 C14.7965901,52.3000367 14.7951176,52.1043749 14.9968405,51.9845971 L18.180969,50.0919594 C18.3826918,49.9714377 18.712516,49.9714377 18.9164475,50.0919594 L23.914609,53.0335826 C24.1192767,53.1541043 24.1207491,53.3490222 23.9182901,53.469544 L20.729008,55.3629256 Z M25.5828715,58.223457 C25.3804124,58.3439787 25.049852,58.3432348 24.8451844,58.222713 L21.6220365,56.3226357 C21.4173688,56.202114 21.4151601,56.0064522 21.6176192,55.8866744 L24.8076374,53.9925488 C25.0100965,53.872771 25.3406568,53.872771 25.5453245,53.9932928 L28.7728897,55.89337 C28.9775574,56.0138918 28.9790298,56.2095536 28.7765708,56.3293314 L25.5828715,58.223457 Z M30.4448333,61.0884522 C30.2423742,61.2097179 29.9110776,61.2089739 29.70641,61.0877082 L26.4766361,59.1846551 C26.2719684,59.0641333 26.270496,58.8684715 26.472955,58.7479498 L29.6673906,56.8538242 C29.8705858,56.7333024 30.2011462,56.7340464 30.4065501,56.8545681 L33.6385326,58.7576213 C33.8446727,58.878143 33.8461452,59.0738048 33.6429499,59.1943266 L30.4448333,61.0884522 Z M35.3148935,63.959399 C35.1116982,64.0791768 34.7804016,64.0784329 34.5749977,63.9579111 L31.3408066,62.0503942 C31.1354027,61.9298725 31.1339302,61.7349546 31.3371255,61.6144329 L34.5352421,59.7195633 C34.7391736,59.5997855 35.069734,59.5997855 35.2758741,59.7210512 L38.5137463,61.6263362 C38.7191502,61.7476019 38.7213588,61.9432638 38.5174274,62.0637855 L35.3148935,63.959399 Z M40.1937882,66.8340657 C39.9898567,66.9545874 39.6585601,66.9530995 39.45242,66.8318338 L36.2123392,64.922829 C36.0069353,64.8015633 36.0047266,64.6059014 36.2086581,64.4853797 L39.4119282,62.5897662 C39.6151235,62.4699884 39.9471563,62.4707324 40.1525602,62.5912541 L43.3963221,64.5002589 C43.6024622,64.6222686 43.6046709,64.8179304 43.4007394,64.9384522 L40.1937882,66.8340657 Z M44.3379407,69.7117082 L41.0927063,67.7989836 C40.8865662,67.6777179 40.8850938,67.4813121 41.0882891,67.3615343 L44.2967127,65.4651768 C44.4999079,65.3446551 44.832677,65.345399 45.0380809,65.4666647 L48.2877325,67.3801333 C48.4938726,67.501399 48.4960813,67.6970609 48.2921498,67.8175826 L45.0807813,69.7139401 C44.8768498,69.8344618 44.5440808,69.8329739 44.3379407,69.7117082 L44.3379407,69.7117082 Z M49.2322959,72.5960464 L45.9811719,70.6803459 C45.7742955,70.5583362 45.7728231,70.3626744 45.9767546,70.2421527 L49.1895955,68.3457952 C49.3927907,68.2252734 49.726296,68.2260174 49.9324361,68.3472831 L53.1872413,70.2637275 C53.3933814,70.3857372 53.39559,70.581399 53.1916585,70.7019208 L49.9751366,72.5990222 C49.7712051,72.7188 49.4384361,72.718056 49.2322959,72.5960464 L49.2322959,72.5960464 Z M54.1340133,75.4855923 L50.8777358,73.566172 C50.6708594,73.4449063 50.6686508,73.2485005 50.8733185,73.1279787 L54.0898405,71.2308773 C54.2945081,71.1103556 54.6280134,71.1110995 54.8348897,71.2331092 L58.0948484,73.1517855 C58.3017247,73.2737952 58.3039333,73.4709449 58.1000019,73.5907227 L54.8790626,75.4885681 C54.6743949,75.6090899 54.3408897,75.6076019 54.1340133,75.4855923 L54.1340133,75.4855923 Z M59.0445653,78.3803459 L55.782398,76.4579498 C55.5755217,76.3359401 55.5733131,76.1387903 55.7779807,76.0190126 L58.9996562,74.1211671 C59.2043239,74.0006454 59.5378292,74.0013894 59.7454417,74.123399 L63.0105539,76.0457952 C63.2189026,76.1678048 63.220375,76.3649546 63.0157074,76.4854763 L59.7903508,78.3833217 C59.5856831,78.5038435 59.2521779,78.5023556 59.0445653,78.3803459 L59.0445653,78.3803459 Z M63.9632157,81.2795633 L60.6958949,79.3534473 C60.4890185,79.2314377 60.4868099,79.0350319 60.6914776,78.9137662 L63.9175704,77.0159208 C64.122238,76.896143 64.4564795,76.896887 64.664092,77.0188966 L67.9358301,78.9442686 C68.1434427,79.0670222 68.1456513,79.263428 67.9402474,79.3839498 L64.7104736,81.2825391 C64.5058059,81.4030609 64.1715644,81.4015729 63.9632157,81.2795633 L63.9632157,81.2795633 Z M68.8907006,84.1832444 L65.6174901,82.2548966 C65.4098775,82.132143 65.4076689,81.9349932 65.6130728,81.8144715 L68.8435828,79.9158821 C69.0489867,79.7953604 69.3839644,79.7968483 69.591577,79.918858 L72.8684685,81.8479498 C73.0768173,81.9707034 73.0790259,82.1678531 72.873622,82.2883749 L69.6386947,84.1869643 C69.434027,84.307486 69.0990493,84.306742 68.8907006,84.1832444 L68.8907006,84.1832444 Z M73.8262839,87.0928773 L70.5479198,85.1600657 C70.3395711,85.0373121 70.3373624,84.8401623 70.5427663,84.7196406 L73.7776937,82.8203072 C73.9838338,82.6997855 74.3188115,82.7012734 74.5271602,82.8240271 L77.8099415,84.7568386 C78.0182903,84.8795923 78.0204989,85.076742 77.815095,85.1972638 L74.5757504,87.0965971 C74.3703465,87.2178628 74.0353688,87.2156309 73.8262839,87.0928773 L73.8262839,87.0928773 Z M78.7707017,90.0069739 L75.486448,88.0711865 C75.2780992,87.9484329 75.2758906,87.7505391 75.4812945,87.6300174 L78.7213753,85.7306841 C78.9267792,85.6094184 79.2632293,85.6116502 79.4715781,85.7344039 L82.7595129,87.6701913 C82.9685979,87.7929449 82.9708065,87.9908386 82.7646664,88.1113604 L79.5209045,90.0106937 C79.3155006,90.1319594 78.9790505,90.1304715 78.7707017,90.0069739 L78.7707017,90.0069739 Z M83.7232179,92.9255343 L80.4338107,90.986771 C80.2247257,90.8640174 80.2217809,90.6661237 80.427921,90.5456019 L83.6724191,88.6455246 C83.8785592,88.5242589 84.2150093,88.5264908 84.4240943,88.6492444 L87.7179188,90.5887517 C87.9270038,90.7115053 87.9292124,90.909399 87.7230723,91.0299208 L84.4748931,92.930742 C84.268753,93.0512638 83.9323029,93.0490319 83.7232179,92.9255343 L83.7232179,92.9255343 Z M78.7257926,95.8500464 L72.3847755,92.1071768 C72.1771629,91.9836792 72.1749543,91.7865295 72.3803582,91.6660077 L75.6182304,89.7681623 C75.8236343,89.6476406 76.1593482,89.6498725 76.3684332,89.7726261 L82.7160762,93.5154957 C82.9251612,93.6382493 82.9273698,93.836143 82.7212297,93.9566647 L79.4767316,95.8552541 C79.2705915,95.9757758 78.9348776,95.973544 78.7257926,95.8500464 L78.7257926,95.8500464 Z M73.734257,98.7715826 L64.9939162,93.6025391 C64.7863037,93.4797855 64.784095,93.2826357 64.9894989,93.162114 L68.2214814,91.2665005 C68.4268853,91.1467227 68.761863,91.1489546 68.9694755,91.2717082 L77.7193871,96.4392638 C77.9284721,96.5627614 77.9306807,96.7606551 77.7245406,96.8804329 L74.4837236,98.7767903 C74.2783197,98.8973121 73.9426058,98.8950802 73.734257,98.7715826 L73.734257,98.7715826 Z M69.4642118,102.068819 L65.9237554,99.9723362 C65.7154066,99.8488386 65.713198,99.6516889 65.9186019,99.5311671 L66.9964202,98.9002879 C67.2018241,98.7805101 67.5368018,98.782742 67.7444143,98.9062396 L71.2870794,101.002723 C71.4946919,101.12622 71.4969006,101.324114 71.2914967,101.443892 L70.2129422,102.074771 C70.006802,102.195293 69.6718244,102.193061 69.4642118,102.068819 L69.4642118,102.068819 Z" id="Fill-21" fill="#234363"></path>
                            <path d="M109.445602,34.8824135 L57.8200194,6.62824928 C57.1861386,6.28156329 56.4580223,6.53451014 56.1944574,7.19514783 L40.7324765,45.8528676 C40.4711203,46.5068097 40.7670786,47.3229353 41.3950697,47.6763169 L92.4994124,76.4586937 C93.1472813,76.8232348 93.8923306,76.5829353 94.1625214,75.9200657 L110.137644,36.7423169 C110.41078,36.0734957 110.100833,35.2402589 109.445602,34.8824135" id="Fill-23" fill="#0C223D"></path>
                            <path d="M106.668968,28.6691459 L55.0433857,0.414981643 C54.4095049,0.0690396135 53.6813886,0.321986473 53.4178237,0.981880193 L37.9558428,39.6396 C37.6944866,40.293542 37.9904449,41.1104116 38.618436,41.4630493 L89.7227787,70.2454261 C90.3706476,70.6107111 91.1156969,70.3704116 91.3858876,69.707542 L107.361746,30.5297932 C107.634146,29.860972 107.324199,29.0277353 106.668968,28.6691459 M52.4695792,3.35362899 L52.6087238,3.00471111 L106.525407,32.5794068 L106.381108,32.9327884 L52.4695792,3.35362899" id="Fill-25" fill="#FFFFFF"></path>
                        </g>
                        <g id="Group-40" transform="translate(93.135593, 46.666667)">
                            <mask id="mask-14" fill="white">
                                <use xlink:href="#path-13"></use>
                            </mask>
                            <g id="Clip-39"></g>
                        </g>
                        <polygon id="Fill-41" fill="#DFE4F1" points="134.381356 48.9862537 81.2980109 20 81.1610169 20.3419755 134.239288 49.3333333"></polygon>
                        <g id="Group-45" transform="translate(82.491525, 17.333333)">
                            <mask id="mask-16" fill="white">
                                <use xlink:href="#path-15"></use>
                            </mask>
                            <g id="Clip-44"></g>
                            <path d="M0.933129944,0.88 C0.801853107,1.20444444 0.950870056,1.60533333 1.26487006,1.77688889 L1.26487006,1.77688889 C1.57975706,1.94755556 1.94076836,1.82311111 2.07115819,1.49777778 L2.07115819,1.49777778 C2.20332203,1.17333333 2.05341808,0.772444444 1.73941808,0.600888889 L1.73941808,0.600888889 C1.64362147,0.549333333 1.54338983,0.524444444 1.44759322,0.524444444 L1.44759322,0.524444444 C1.22672881,0.524444444 1.02360452,0.653333333 0.933129944,0.88" id="Fill-43" fill="url(#linearGradient-17)" mask="url(#mask-16)"></path>
                        </g>
                        <g id="Group-48" transform="translate(83.822034, 18.666667)">
                            <mask id="mask-19" fill="white">
                                <use xlink:href="#path-18"></use>
                            </mask>
                            <g id="Clip-47"></g>
                            <path d="M0.704282486,0.830222222 C0.57300565,1.15555556 0.722022599,1.55644444 1.0369096,1.728 L1.0369096,1.728 C1.3509096,1.89955556 1.71280791,1.77511111 1.84319774,1.44977778 L1.84319774,1.44977778 C1.97447458,1.12444444 1.82634463,0.722666667 1.51145763,0.552 L1.51145763,0.552 C1.41566102,0.499555556 1.31542938,0.475555556 1.21874576,0.475555556 L1.21874576,0.475555556 C0.997881356,0.475555556 0.795644068,0.604444444 0.704282486,0.830222222" id="Fill-46" fill="url(#linearGradient-20)" mask="url(#mask-19)"></path>
                        </g>
                        <g id="Group-51" transform="translate(85.152542, 20.000000)">
                            <mask id="mask-22" fill="white">
                                <use xlink:href="#path-21"></use>
                            </mask>
                            <g id="Clip-50"></g>
                            <path d="M0.357241525,0.586 C0.259449153,0.83 0.37054661,1.132 0.607377119,1.26 L0.607377119,1.26 C0.843542373,1.38866667 1.1149661,1.29533333 1.21342373,1.05133333 L1.21342373,1.05133333 C1.3112161,0.807333333 1.20011864,0.506666667 0.963288136,0.378 L0.963288136,0.378 C0.891440678,0.338666667 0.816266949,0.320666667 0.743754237,0.320666667 L0.743754237,0.320666667 C0.578105932,0.320666667 0.426427966,0.417333333 0.357241525,0.586" id="Fill-49" fill="url(#linearGradient-23)" mask="url(#mask-22)"></path>
                        </g>
                    </g>
                    <g id="Group-4" transform="translate(326.000000, 296.000000)">
                        <ellipse id="Oval" fill="#234363" fill-rule="nonzero" cx="33" cy="42.05" rx="33" ry="15.95"></ellipse>
                        <g id="graph">
                            <path d="M22.499113,38.849705 L22.499113,47.003055 C17.7973304,46.089555 13.3767652,44.545305 9.63772174,42.363055 C3.21850435,38.611905 0.00602608697,33.705105 0.000286956533,28.796855 L0.000286956533,20.643505 C0.000286956533,25.556105 3.21276522,30.470155 9.63772174,34.214055 C13.3767652,36.396305 17.7973304,37.940555 22.499113,38.849705" id="Fill-1" fill="#FF6482"></path>
                            <g id="Group-5" transform="translate(0.000000, 0.132820)">
                                <mask id="mask-25" fill="white">
                                    <use xlink:href="#path-24"></use>
                                </mask>
                                <g id="Clip-4"></g>
                                <path d="M32.8978435,20.51112 L22.4985391,38.71732 C17.7981913,37.80817 13.3776261,36.26247 9.63714783,34.08022 C3.21362609,30.33632 -0.000286956533,25.42372 -0.000286956533,20.51112 L-0.000286956533,20.41832 C0.0398869565,15.53327 3.25236522,10.66127 9.63714783,6.94057 C20.3650174,0.68092 36.6612783,-0.35583 49.2271043,3.84337 L32.8978435,20.51112 Z" id="Fill-3" fill="#FF8AA6" mask="url(#mask-25)"></path>
                            </g>
                            <polygon id="Fill-6" fill="#F43B5F" points="22.499113 47.004505 32.8969826 28.788155 32.8984174 20.643505 22.499113 38.849705"></polygon>
                            <polygon id="Fill-8" fill="#F43B5F" points="49.2304043 3.978945 32.8982739 20.643795 32.8968391 28.786995 49.2304043 12.120695"></polygon>
                            <path d="M35.751913,19.454505 L50.8716522,4.563005 C57.9551739,7.139655 62.1088696,11.520105 63.5235652,13.625505 L35.751913,19.454505 Z" id="Fill-10" fill="#FFE780"></path>
                            <polygon id="Fill-12" fill="#F9B050" points="35.751913 19.454505 35.751913 26.388405 63.5235652 20.643505 63.5235652 13.625505"></polygon>
                            <path d="M64.0903043,14.536685 C67.0918696,19.771185 66.7862609,27.119785 57.2923043,33.702785 L35.0861739,20.568685 L64.0903043,14.536685 Z" id="Fill-14" fill="#CDF46C"></path>
                            <g id="Group-18" transform="translate(55.956522, 20.432820)">
                                <mask id="mask-27" fill="white">
                                    <use xlink:href="#path-26"></use>
                                </mask>
                                <g id="Clip-17"></g>
                                <path d="M9.8327087,0.21257 L9.83988261,8.35287 C9.83988261,11.75022 6.93014348,18.03742 1.33592609,21.35502 L1.33592609,13.26982 C5.58862174,10.46842 8.35057826,6.27067 9.0894913,4.27402 C9.5844913,2.93567 9.8327087,1.57412 9.8327087,0.21257" id="Fill-16" fill="#93E85D" mask="url(#mask-27)"></path>
                            </g>
                            <polygon id="Fill-19" fill="#74D350" points="35.0857435 20.568975 35.0857435 28.710725 57.2933087 41.788275 57.2933087 33.703075"></polygon>
                            <path d="M56.159113,42.36291 C47.3452435,47.50171 34.782287,49.11556 23.621113,47.20736 C23.5995913,47.14356 23.5924174,47.10731 23.5924174,47.10731 L23.5924174,39.05256 C34.7650696,40.96801 47.3352,39.35996 56.159113,34.21536 L56.159113,42.36291 Z" id="Fill-21" fill="#2BB0F7"></path>
                            <path d="M23.5927043,39.05227 C34.7653565,40.96772 47.3340522,39.35967 56.1594,34.21507 L33.6419217,21.07807 L23.5927043,39.05227 Z" id="Fill-23" fill="#4AC8FF"></path>
                        </g>
                    </g>
                    <g id="Group-47" transform="translate(358.643436, 176.374094) rotate(-0.500000) translate(-358.643436, -176.374094) translate(344.143436, 159.874094)">
                        <g id="Group-3" transform="translate(0.000000, 0.630000)">
                            <mask id="mask-29" fill="white">
                                <use xlink:href="#path-28"></use>
                            </mask>
                            <g id="Clip-2"></g>
                            <polygon id="Fill-1" fill="#89E872" mask="url(#mask-29)" points="2.4938 -9.8461 35.2508 9.1869 28.2618 30.4269 -4.4952 11.3949"></polygon>
                        </g>
                        <path d="M16.2311,21.2371 L21.1351,24.0871 C24.0891,25.8031 27.2131,24.9801 28.1121,22.2481 C28.9191,19.7971 27.8211,16.6771 25.1461,15.1241 C25.8241,13.0621 25.0291,10.6361 22.3551,9.0831 L21.9091,8.8241 C21.3611,6.0881 19.4401,3.4611 16.7521,1.8991 C12.8141,-0.3889 8.6481,0.7081 7.4501,4.3501 C4.4951,2.6331 1.3711,3.4571 0.4721,6.1881 C-0.4269,8.9211 1.2401,12.5271 4.1941,14.2441 L9.0981,17.0921" id="Stroke-4" stroke="#4D5152" stroke-width="0.938"></path>
                        <g id="Group-8" transform="translate(7.000000, 6.630000)">
                            <mask id="mask-31" fill="white">
                                <use xlink:href="#path-30"></use>
                            </mask>
                            <g id="Clip-7"></g>
                            <polygon id="Fill-6" fill="#65CDEF" mask="url(#mask-31)" points="1.6193 -5.4125 18.3273 4.2955 14.0503 17.2915 -2.6567 7.5845"></polygon>
                        </g>
                        <g id="Group-11" transform="translate(2.000000, 12.630000)">
                            <mask id="mask-33" fill="white">
                                <use xlink:href="#path-32"></use>
                            </mask>
                            <g id="Clip-10"></g>
                            <polygon id="Fill-9" fill="#65CDEF" mask="url(#mask-33)" points="2.1232 -4.2045 22.3972 7.5755 17.0362 23.8695 -3.2378 12.0895"></polygon>
                        </g>
                        <g id="Group-14" transform="translate(5.000000, 19.630000)">
                            <mask id="mask-35" fill="white">
                                <use xlink:href="#path-34"></use>
                            </mask>
                            <g id="Clip-13"></g>
                            <polygon id="Fill-12" fill="#FFFFFF" mask="url(#mask-35)" points="-0.1395 -5.3754 11.2185 1.2246 8.8405 8.4496 -2.5175 1.8506"></polygon>
                        </g>
                        <g id="Group-17" transform="translate(10.000000, 22.630000)">
                            <mask id="mask-37" fill="white">
                                <use xlink:href="#path-36"></use>
                            </mask>
                            <g id="Clip-16"></g>
                            <polygon id="Fill-15" fill="#FFFFFF" mask="url(#mask-37)" points="-0.6815 -5.7845 10.6765 0.8145 8.2985 8.0405 -3.0595 1.4415"></polygon>
                        </g>
                        <g id="Group-20" transform="translate(14.000000, 24.630000)">
                            <mask id="mask-39" fill="white">
                                <use xlink:href="#path-38"></use>
                            </mask>
                            <g id="Clip-19"></g>
                            <polygon id="Fill-18" fill="#FFFFFF" mask="url(#mask-39)" points="-0.2235 -5.1947 8.9055 0.1103 6.5275 7.3353 -2.6015 2.0313"></polygon>
                        </g>
                        <g id="Group-23" transform="translate(3.000000, 16.630000)">
                            <mask id="mask-41" fill="white">
                                <use xlink:href="#path-40"></use>
                            </mask>
                            <g id="Clip-22"></g>
                            <polygon id="Fill-21" fill="#FFFFFF" mask="url(#mask-41)" points="-0.3685 -3.6703 8.7605 1.6347 6.3825 8.8597 -2.7465 3.5557"></polygon>
                        </g>
                        <g id="Group-46" transform="translate(2.000000, 6.630000)" stroke="#4D5152" stroke-width="0.938">
                            <path d="M15.6661,24.7701 C15.4411,25.4531 14.6601,25.6591 13.9221,25.2301 L1.4391,17.9771 C0.7011,17.5481 0.2841,16.6461 0.5091,15.9631 L3.4931,6.8951 C3.7171,6.2121 4.4991,6.0061 5.2371,6.4351 L17.7201,13.6881 C18.4581,14.1171 18.8751,15.0191 18.6501,15.7021 L15.6661,24.7701 Z" id="Stroke-24"></path>
                            <path d="M6.6324,3.8092 L5.8184,6.2822" id="Stroke-26"></path>
                            <path d="M18.2233,10.5436 L17.4103,13.0176" id="Stroke-28"></path>
                            <path d="M9.3073,5.3629 L8.4933,7.8369" id="Stroke-30"></path>
                            <path d="M15.5485,8.9899 L14.7345,11.4629" id="Stroke-32"></path>
                            <path d="M0.6447,15.5514 L15.8017,24.3584" id="Stroke-40"></path>
                            <path d="M9.3073,5.3629 C9.8313,3.7689 11.6543,3.2899 13.3773,4.2909 C15.1013,5.2929 16.0733,7.3959 15.5483,8.9899" id="Stroke-42"></path>
                            <path d="M6.6324,3.8092 C7.6064,0.8492 10.9904,-0.0428 14.1914,1.8182 C17.3914,3.6772 19.1974,7.5832 18.2234,10.5432" id="Stroke-44"></path>
                        </g>
                    </g>
                    <g id="Group-17" transform="translate(88.000000, 215.000000)">
                        <g id="Group-3" transform="translate(0.000000, 89.000000)">
                            <mask id="mask-43" fill="white">
                                <use xlink:href="#path-42"></use>
                            </mask>
                            <g id="Clip-2"></g>
                            <path d="M178.43136,62.40944 L101.49856,109.43344 C95.89856,112.85584 86.73376,112.85584 81.13376,109.43344 L4.19936,62.40944 C-1.40064,58.98544 -1.40064,53.38544 4.19936,49.96304 L81.13376,2.93904 C86.73376,-0.48496 95.89856,-0.48496 101.49856,2.93904 L178.43136,49.96304 C184.03136,53.38544 184.03136,58.98544 178.43136,62.40944" id="Fill-1" fill="#234363" mask="url(#mask-43)"></path>
                        </g>
                        <g id="Group-6" transform="translate(0.000000, 33.000000)">
                            <mask id="mask-45" fill="white">
                                <use xlink:href="#path-44"></use>
                            </mask>
                            <g id="Clip-5"></g>
                            <path d="M178.43136,63.63744 L101.49856,110.66144 C95.89856,114.08384 86.73376,114.08384 81.13376,110.66144 L4.19936,63.63744 C-1.40064,60.21344 -1.40064,54.61344 4.19936,51.19104 L81.13376,4.16704 C86.73376,0.74304 95.89856,0.74304 101.49856,4.16704 L178.43136,51.19104 C184.03136,54.61344 184.03136,60.21344 178.43136,63.63744" id="Fill-4" fill="#ECF9FF" mask="url(#mask-45)"></path>
                        </g>
                        <g id="Fill-4-Copy" transform="translate(40.000000, 57.000000)">
                            <mask id="mask-47" fill="white">
                                <use xlink:href="#path-46"></use>
                            </mask>
                            <use id="Mask" fill="#00C3E5" xlink:href="#path-46"></use>
                            <path d="M100.271765,41.362197 L57.0385578,68.1661112 C53.8915781,70.1168963 48.741321,70.1168963 45.5943413,68.1661112 L2.36023479,41.362197 C-0.78674493,39.4104999 -0.78674493,36.2184721 2.36023479,34.267687 L45.5943413,7.46377279 C48.741321,5.51207574 53.8915781,5.51207574 57.0385578,7.46377279 L100.271765,34.267687 C103.418745,36.2184721 103.418745,39.4104999 100.271765,41.362197" fill="#65CDEF" mask="url(#mask-47)"></path>
                            <path d="M92.6397183,43.8046547 L56.1464294,66.3960511 C53.4900537,68.0402496 49.1427052,68.0402496 46.4863296,66.3960511 L9.99228175,43.8046547 C7.33590608,42.1596874 7.33590608,39.4693204 9.99228175,37.8251218 L46.4863296,15.2337255 C49.1427052,13.5887582 53.4900537,13.5887582 56.1464294,15.2337255 L92.6397183,37.8251218 C95.2960939,39.4693204 95.2960939,42.1596874 92.6397183,43.8046547" id="Fill-4-Copy-2" fill="#95E0F9" mask="url(#mask-47)"></path>
                        </g>
                        <g id="Rectangle" transform="translate(48.000000, 0.000000)" fill="url(#linearGradient-48)" fill-opacity="0.5" fill-rule="nonzero">
                            <rect x="0" y="0" width="87" height="96"></rect>
                        </g>
                        <path d="M178.43136,95.03744 L153.41376,110.33024 L101.49856,142.06144 C98.69856,143.77184 95.00736,144.62784 91.31616,144.62784 C87.62496,144.62784 83.93376,143.77184 81.13376,142.06144 L29.21856,110.33024 L4.19936,95.03744 C1.83936,93.59584 0.48576,91.76224 0.11616,89.87104 L0.11616,121.18624 L0.11616,123.30144 C0.48576,125.19424 1.83936,127.02464 4.19936,128.46784 L81.13376,175.49024 C83.93376,177.20384 87.62496,178.05824 91.31616,178.05824 C95.00736,178.05824 98.69856,177.20384 101.49856,175.49024 L178.43136,128.46784 C180.79296,127.02464 182.14496,125.19424 182.51616,123.30144 L182.51616,121.18624 L182.51616,89.87104 C182.14496,91.76224 180.79296,93.59584 178.43136,95.03744" id="Fill-7" fill="url(#linearGradient-49)"></path>
                        <g id="Fill-9-Copy" transform="translate(62.000000, 141.000000)">
                            <mask id="mask-52" fill="white">
                                <use xlink:href="#path-51"></use>
                            </mask>
                            <use id="Mask" fill="url(#linearGradient-50)" xlink:href="#path-51"></use>
                            <path d="M1.06227736,0.747427263 L4.32147736,15.9154273 C4.61267736,16.8738273 5.81107736,17.1906273 6.53747736,16.5042273 L15.1054774,8.49622726 C15.7470774,7.88982726 15.6414774,6.84182726 14.8942774,6.37302726 L3.06707736,-0.790172737 C2.00947736,-1.45097274 0.697477355,-0.444572737 1.06227736,0.747427263" fill="url(#linearGradient-53)" mask="url(#mask-52)"></path>
                        </g>
                        <g id="vent" transform="translate(8.000000, 105.000000)">
                            <mask id="mask-55" fill="white">
                                <use xlink:href="#path-54"></use>
                            </mask>
                            <use id="Mask" fill="#00C3E5" xlink:href="#path-54"></use>
                            <path d="M1.9646751,17.5226859 L4.0353249,18.8708511 C4.56912342,19.2148273 5,18.848659 5,18.0460477 L5,2.55232013 C5,1.75340747 4.56912342,0.823192025 4.0353249,0.475517068 L1.9646751,-0.868949385 C1.43087658,-1.21662434 1,-0.848606702 1,-0.0478447011 L1,15.4477322 C1,16.2484942 1.43087658,17.1768603 1.9646751,17.5226859" id="Fill-11-Copy" fill="#00B5E2" mask="url(#mask-55)"></path>
                        </g>
                        <g id="vent-copy" transform="translate(14.000000, 109.000000)">
                            <mask id="mask-57" fill="white">
                                <use xlink:href="#path-56"></use>
                            </mask>
                            <use id="Mask" fill="#00C3E5" xlink:href="#path-56"></use>
                            <path d="M1.9646751,17.5226859 L4.0353249,18.8708511 C4.56912342,19.2148273 5,18.848659 5,18.0460477 L5,2.55232013 C5,1.75340747 4.56912342,0.823192025 4.0353249,0.475517068 L1.9646751,-0.868949385 C1.43087658,-1.21662434 1,-0.848606702 1,-0.0478447011 L1,15.4477322 C1,16.2484942 1.43087658,17.1768603 1.9646751,17.5226859" id="Fill-11-Copy" fill="#00B5E2" mask="url(#mask-57)"></path>
                        </g>
                        <g id="vent-copy-2" transform="translate(20.000000, 113.000000)">
                            <mask id="mask-59" fill="white">
                                <use xlink:href="#path-58"></use>
                            </mask>
                            <use id="Mask" fill="#00C3E5" xlink:href="#path-58"></use>
                            <path d="M1.9646751,17.5226859 L4.0353249,18.8708511 C4.56912342,19.2148273 5,18.848659 5,18.0460477 L5,2.55232013 C5,1.75340747 4.56912342,0.823192025 4.0353249,0.475517068 L1.9646751,-0.868949385 C1.43087658,-1.21662434 1,-0.848606702 1,-0.0478447011 L1,15.4477322 C1,16.2484942 1.43087658,17.1768603 1.9646751,17.5226859" id="Fill-11-Copy" fill="#00B5E2" mask="url(#mask-59)"></path>
                        </g>
                    </g>
                    <g id="Group-13" opacity="0.69703311" transform="translate(0.000000, 65.000000)">
                        <g id="Group-3">
                            <mask id="mask-61" fill="white">
                                <use xlink:href="#path-60"></use>
                            </mask>
                            <g id="Clip-2"></g>
                            <path d="M85.8594483,13.2273788 C85.8594483,3.42764808 78.9877225,-0.545255769 70.5112135,4.35460962 C68.0766761,5.76134038 65.7826497,7.76037885 63.7385849,10.1088788 C61.1088112,0.186244231 52.0909653,-3.03294808 41.3662808,3.16555192 C29.4169324,10.0718596 19.5826437,26.2240904 18.3491053,40.3743212 C16.7946103,40.535725 15.0951671,41.1058212 13.3099383,42.1379173 C5.96047522,46.387725 0.00281021934,56.7175712 0.00281021934,65.2127442 C0.00281021934,65.4318981 0.0220380359,65.6318019 0.0309124128,65.8420712 L-0.000147906281,65.8613212 C-0.000147906281,74.0011096 5.70755548,77.3002635 12.7478945,73.2296288 L73.1114059,38.3397442 C80.1517449,34.2691096 85.8594483,24.3716481 85.8594483,16.2333404 L85.8594483,13.6227442 L85.8416996,13.6331096 C85.8446577,13.4998404 85.8594483,13.3606481 85.8594483,13.2273788" id="Fill-1" fill="#ADD0D8" mask="url(#mask-61)"></path>
                        </g>
                        <polygon id="Fill-4" fill="#ADD0D8" points="82.7584515 3 90 6.67275383 88.153217 9 81 6.54419284"></polygon>
                        <polygon id="Fill-8" fill="#ADD0D8" points="4 75.3599209 9.42113888 79 10 72.2346737 4 68"></polygon>
                        <g id="Group-12" transform="translate(7.000000, 3.000000)">
                            <mask id="mask-63" fill="white">
                                <use xlink:href="#path-62"></use>
                            </mask>
                            <g id="Clip-11"></g>
                            <path d="M86.6621695,13.8610588 C86.6621695,3.99894118 79.7325424,0.000745098039 71.1846102,4.93180392 C68.7295593,6.34898039 66.4162034,8.3592549 64.3534237,10.7227059 C61.7029831,0.736901961 52.6091525,-2.50278431 41.7941017,3.73517647 C29.7425763,10.685451 19.8269153,26.9405098 18.5829831,41.1808235 C17.0153898,41.3432549 15.3016271,41.9169804 13.5013559,42.9556471 C6.0899661,47.2310196 0.0821016949,57.6281176 0.0821016949,66.1773725 C0.0821016949,66.3979216 0.101491525,66.599098 0.110440678,66.8107059 L0.0791186441,66.8300784 C0.0791186441,75.0216863 5.83491525,78.3418431 12.9345763,74.2452941 L73.8067119,39.1332941 C80.9063729,35.0367451 86.6621695,25.0762745 86.6621695,16.8861569 L86.6621695,14.2589412 L86.6442712,14.2693725 C86.6472542,14.1352549 86.6621695,13.9951765 86.6621695,13.8610588" id="Fill-10" fill="#FFFFFF" mask="url(#mask-63)"></path>
                        </g>
                    </g>
                    <g id="Group-13-Copy" opacity="0.69703311" transform="translate(196.000000, 0.000000)">
                        <g id="Group-3">
                            <mask id="mask-65" fill="white">
                                <use xlink:href="#path-64"></use>
                            </mask>
                            <g id="Clip-2"></g>
                            <path d="M125.794075,19.4001556 C125.794075,5.02721718 115.726198,-0.799708462 103.307127,6.38676077 C99.7402464,8.4499659 96.379231,11.381889 93.3844383,14.8263556 C89.5315141,0.273158205 76.3193212,-4.44832385 60.6064114,4.64280949 C43.0992265,14.7720608 28.6908501,38.4619992 26.8835729,59.215671 C24.606057,59.4523967 22.1161751,60.2885377 19.5006073,61.8022787 C8.73278928,68.03533 0.00411729811,83.185771 0.00411729811,95.6453582 C0.00411729811,95.9667838 0.0322882851,96.2599762 0.0452902792,96.568371 L-0.0002166999,96.5966044 C-0.0002166999,108.534961 8.36223245,113.37372 18.6771477,107.403456 L107.116711,56.2316249 C117.431626,50.2613608 125.794075,35.7450838 125.794075,23.8088992 L125.794075,19.9800249 L125.768071,19.9952274 C125.772405,19.7997659 125.794075,19.5956172 125.794075,19.4001556" id="Fill-1" fill="#ADD0D8" mask="url(#mask-65)"></path>
                        </g>
                        <polygon id="Fill-4" fill="#ADD0D8" points="121.539985 4 132 9.50913075 129.332425 13 119 9.31628926"></polygon>
                        <polygon id="Fill-8" fill="#ADD0D8" points="6 110.705339 14.1317083 116 15 106.159525 6 100"></polygon>
                        <g id="Group-12" transform="translate(10.000000, 4.000000)">
                            <mask id="mask-67" fill="white">
                                <use xlink:href="#path-66"></use>
                            </mask>
                            <g id="Clip-11"></g>
                            <path d="M127.502962,20.4268235 C127.502962,5.89317647 117.307649,0.00109803922 104.73138,7.26792157 C101.119352,9.35639216 97.7157935,12.318902 94.6808993,15.8018824 C90.7814004,1.08596078 77.4019716,-3.68831373 61.4901726,5.50447059 C43.7591927,15.7469804 29.1706339,39.7018039 27.3404808,60.6875294 C25.0341368,60.926902 22.5127387,61.7723922 19.8640639,63.3030588 C8.95995013,69.6036078 0.120793298,84.9256471 0.120793298,97.524549 C0.120793298,97.8495686 0.149320865,98.1460392 0.162487434,98.4578824 L0.116404442,98.4864314 C0.116404442,110.558275 8.5847029,115.451137 19.0301812,109.414118 L108.589185,57.6701176 C119.034664,51.633098 127.502962,36.9545098 127.502962,24.8848627 L127.502962,21.0131765 L127.476629,21.028549 C127.481018,20.830902 127.502962,20.6244706 127.502962,20.4268235" id="Fill-10" fill="#FFFFFF" mask="url(#mask-67)"></path>
                        </g>
                    </g>
                </g>
            </g>
        </g>
    </g>
</svg>
