<?xml version="1.0" encoding="UTF-8"?>
<svg width="49px" height="45px" viewBox="0 0 49 45" version="1.1" xmlns="http://www.w3.org/2000/svg" xmlns:xlink="http://www.w3.org/1999/xlink">
    <!-- Generator: Sketch 52.6 (67491) - http://www.bohemiancoding.com/sketch -->
    <title>Billing icon</title>
    <desc>Created with Sketch.</desc>
    <g id="Desktop" stroke="none" stroke-width="1" fill="none" fill-rule="evenodd">
        <g id="ISV-Landing" transform="translate(-779.000000, -2221.000000)">
            <g id="Features-Section" transform="translate(-1.000000, 1611.000000)">
                <g id="Group-2" transform="translate(244.000000, 296.000000)">
                    <g id="6" transform="translate(485.000000, 273.000000)">
                        <g id="Billing-icon" transform="translate(52.000000, 41.000000)">
                            <polygon id="Fill-3" fill="#89E872" points="36.7189492 10.4461875 41.4986102 10.4461875 41.4986102 5.62475893 36.7189492 5.62475893"></polygon>
                            <g id="Group-32" transform="translate(0.000000, 0.310741)">
                                <path d="M46.2781119,5.31425893 C46.2781119,7.97649107 44.1376203,10.1356875 41.4984508,10.1356875 C38.8592814,10.1356875 36.7187898,7.97649107 36.7187898,5.31425893 C36.7187898,2.65202679 38.8592814,0.492830357 41.4984508,0.492830357 C44.1376203,0.492830357 46.2781119,2.65202679 46.2781119,5.31425893" id="Fill-4" fill="#89E872"></path>
                                <path d="M8.04074407,43.8856875 L8.04074407,5.31425893 C8.04074407,2.65202679 10.1812356,0.492830357 12.8204051,0.492830357 L41.4983712,0.492830357 C38.8592017,0.492830357 36.7187102,2.65202679 36.7187102,5.31425893 L36.7187102,39.0642589 C36.7187102,41.7264911 34.5782186,43.8856875 31.9390492,43.8856875 L8.04074407,43.8856875 Z" id="Fill-6" fill="#FFFFFF"></path>
                                <g id="Group-11" transform="translate(0.000000, 33.750000)">
                                    <path d="M31.9391288,10.1356875 C29.2999593,10.1356875 27.1594678,7.97649107 27.1594678,5.31425893 C27.1594678,2.65202679 29.2999593,0.492830357 31.9391288,0.492830357 L4.85438305,0.492830357 C2.21521356,0.492830357 0.0747220339,2.65202679 0.0747220339,5.31425893 C0.0747220339,7.97649107 2.21521356,10.1356875 4.85438305,10.1356875 L31.9391288,10.1356875" id="Fill-8" fill="#89E872"></path>
                                    <path d="M31.9391288,10.1356875 C29.2999593,10.1356875 27.1594678,7.97649107 27.1594678,5.31425893 C27.1594678,2.65202679 29.2999593,0.492830357 31.9391288,0.492830357 L4.85438305,0.492830357 C2.21521356,0.492830357 0.0747220339,2.65202679 0.0747220339,5.31425893 C0.0747220339,7.97649107 2.21521356,10.1356875 4.85438305,10.1356875 L31.9391288,10.1356875" id="Stroke-10" stroke="#4D5152" stroke-width="1.6" stroke-linejoin="round"></path>
                                </g>
                                <path d="M8.04074407,31.8321161 L8.04074407,5.31425893 C8.04074407,2.65202679 10.1812356,0.492830357 12.8204051,0.492830357 L41.4983712,0.492830357 C38.8592017,0.492830357 36.7187102,2.65202679 36.7187102,5.31425893 L36.7187102,39.0642589 C36.7187102,41.7264911 34.5782186,43.8856875 31.9390492,43.8856875" id="Stroke-12" stroke="#4D5152" stroke-width="1.6" stroke-linejoin="round"></path>
                                <path d="M40.7018407,10.1356875 L41.4984508,10.1356875 C44.1376203,10.1356875 46.2781119,7.97649107 46.2781119,5.31425893 C46.2781119,2.65202679 44.1376203,0.492830357 41.4984508,0.492830357" id="Stroke-14" stroke="#4D5152" stroke-width="1.6" stroke-linejoin="round"></path>
                                <path d="M21.5831966,6.92140179 L23.1764169,6.92140179" id="Stroke-16" stroke="#4D5152" stroke-width="1.6" stroke-linejoin="round"></path>
                                <path d="M24.7696373,6.92140179 L26.3628576,6.92140179" id="Stroke-18" stroke="#4D5152" stroke-width="1.6" stroke-linejoin="round"></path>
                                <path d="M18.3967559,6.92140179 L19.9899763,6.92140179" id="Stroke-20" stroke="#4D5152" stroke-width="1.6" stroke-linejoin="round"></path>
                                <path d="M13.6170949,13.3499732 L31.1425186,13.3499732" id="Stroke-22" stroke="#4D5152" stroke-width="1.6" stroke-linejoin="round"></path>
                                <path d="M13.6170949,16.5642589 L31.1425186,16.5642589" id="Stroke-24" stroke="#4D5152" stroke-width="1.6" stroke-linejoin="round"></path>
                                <path d="M13.6170949,20.0892857 L20.7865864,20.0892857" id="Stroke-26" stroke="#4D5152" stroke-width="1.6" stroke-linejoin="round"></path>
                                <path d="M13.6170949,23.3035714 L20.7865864,23.3035714" id="Stroke-28" stroke="#4D5152" stroke-width="1.6" stroke-linejoin="round"></path>
                                <path d="M13.6170949,26.5178571 L20.7865864,26.5178571" id="Stroke-30" stroke="#4D5152" stroke-width="1.6" stroke-linejoin="round"></path>
                            </g>
                            <text id="€" font-family="Raleway-Bold, Raleway" font-size="11.2" font-weight="bold" line-spacing="19.2" fill="#4D5152">
                                <tspan x="21.5084746" y="24.6607143">€</tspan>
                            </text>
                        </g>
                    </g>
                </g>
            </g>
        </g>
    </g>
</svg>
