<?xml version="1.0" encoding="utf-8"?>
<!-- Generator: Adobe Illustrator 23.0.4, SVG Export Plug-In . SVG Version: 6.00 Build 0)  -->
<svg version="1.1" id="layer" xmlns="http://www.w3.org/2000/svg" xmlns:xlink="http://www.w3.org/1999/xlink" x="0px" y="0px"
	 viewBox="0 0 652 90.5" style="enable-background:new 0 0 652 90.5;" xml:space="preserve">
<style type="text/css">
	.st0{fill:#4F5D6B;}
	.st1{fill-rule:evenodd;clip-rule:evenodd;fill:#E7351D;}
	.st2{fill-rule:evenodd;clip-rule:evenodd;fill:#E7381D;}
</style>
<g>
	<path class="st0" d="M195,87.6h-6l-6.3-17.4h-25.5l-6.4,17.4h-6L168.4,27h3.2L195,87.6z M180.1,64.3l-10.2-25.9l-10.3,25.9H180.1z"
		/>
	<polygon class="st0" points="255.3,45.5 235.3,90.5 215.5,45.5 221.8,45.5 235.3,76.2 249,45.5 	"/>
	<path class="st0" d="M322.2,68h-35.7c1,9.5,5.7,14.3,14.1,14.3c3.2,0,6.2-0.8,8.8-2.5c2.7-1.7,4.7-4.1,5.8-7l5.5,3.2
		c-4.1,8.2-10.7,12.3-20,12.3c-6.3,0-11.4-2-15.2-6c-3.9-4-5.8-9.1-5.8-15.4c0-6.4,1.9-11.7,5.8-15.8c3.9-4.1,9-6.2,15.4-6.2
		c6.8,0,12.1,2.2,15.9,6.5C320.2,55.6,322,61.1,322.2,68 M315.8,62.2c-2.1-7.5-7.1-11.2-15-11.2c-7.8,0-12.6,3.8-14.3,11.2H315.8z"
		/>
	<path class="st0" d="M382.5,42.6c0,4.8-1.7,8.7-5,11.6c-3.1,2.8-7.2,4.3-12,4.3h-9.6v29.1h-5.8V27h15.5c4.9,0,8.9,1.4,12.1,4.1
		C380.9,33.9,382.5,37.8,382.5,42.6 M376.7,42.6c0-3.2-1.1-5.7-3.3-7.4c-2-1.6-4.7-2.4-8-2.4h-9.5v19.9h9.6c3.1,0,5.8-0.9,7.9-2.7
		C375.6,48.1,376.7,45.7,376.7,42.6"/>
	<path class="st0" d="M441,66.6c0,6.5-2,11.7-6.1,15.7s-9.3,6-15.8,6c-6.4,0-11.6-2-15.7-6.1c-4.1-4-6.1-9.3-6.1-15.7
		c0-6.5,2-11.7,6.1-15.7s9.3-6,15.8-6c6.4,0,11.6,2,15.7,6C438.9,55,441,60.2,441,66.6 M434.6,66.6c0-4.7-1.4-8.4-4.3-11.3
		c-2.8-2.9-6.6-4.4-11.2-4.4c-4.5,0-8.2,1.5-11.1,4.4c-2.9,3-4.3,6.7-4.3,11.3c0,4.6,1.4,8.4,4.3,11.3c2.8,2.9,6.6,4.4,11.2,4.4
		s8.4-1.5,11.2-4.4C433.1,75,434.6,71.2,434.6,66.6"/>
	<path class="st0" d="M478.1,87.7h-5.7V51.5h-8v-5.8h13.7V87.7z M479.5,35.8c0,2.6-1.4,4-4.2,4c-2.9,0-4.4-1.4-4.4-4.1
		s1.4-4.1,4.3-4.1C478.1,31.6,479.5,33,479.5,35.8"/>
	<path class="st0" d="M545.7,87.6h-5.8V63.4c0-8.3-3.5-12.4-10.6-12.4c-3.6,0-6.3,1.1-8.3,3.3c-2,2.2-3,5.1-3,8.7v24.6h-5.8V45.5
		h5.8v3.3c3-2.6,6.8-3.8,11.3-3.8c10.9,0,16.4,6.1,16.4,18.3L545.7,87.6L545.7,87.6z"/>
	<path class="st0" d="M610.9,82.2c-3.6,3.7-7.9,5.5-13,5.5c-5,0-9.4-1.8-13.1-5.4c-3.7-3.6-5.5-7.9-5.5-13V51.9h-5.5v-6h5.5V27h5.9
		v18.9h9.5v6h-9.5v17.4c0,3.5,1.2,6.5,3.7,9s5.4,3.7,9,3.7c3.5,0,6.5-1.3,9-3.8L610.9,82.2z"/>
	<path class="st0" d="M621,28.5c0,1.4-0.5,2.6-1.5,3.6s-2.2,1.5-3.6,1.5s-2.6-0.5-3.6-1.5s-1.5-2.2-1.5-3.6s0.5-2.6,1.5-3.6
		s2.2-1.5,3.6-1.5s2.6,0.5,3.6,1.5C620.5,25.9,621,27.1,621,28.5 M619.9,28.5c0-1.1-0.4-2-1.2-2.8s-1.7-1.2-2.8-1.2s-2,0.4-2.8,1.2
		c-0.8,0.8-1.2,1.7-1.2,2.8c0,1.1,0.4,2,1.2,2.8s1.7,1.2,2.8,1.2s2-0.4,2.8-1.2C619.5,30.6,619.9,29.6,619.9,28.5 M618.6,31h-1.5
		l-1.5-1.9h-0.5V31h-1.2v-5.1h1.9c0.3,0,0.6,0,0.8,0s0.4,0.1,0.6,0.2c0.2,0.1,0.4,0.3,0.5,0.5s0.2,0.4,0.2,0.7
		c0,0.4-0.1,0.7-0.3,0.9c-0.2,0.2-0.5,0.4-0.8,0.6L618.6,31z M616.5,27.4c0-0.1,0-0.2-0.1-0.3c0-0.1-0.1-0.2-0.2-0.2
		c-0.1-0.1-0.2-0.1-0.3-0.1s-0.3,0-0.4,0h-0.4v1.4h0.3c0.2,0,0.3,0,0.5,0s0.3-0.1,0.4-0.2c0.1-0.1,0.1-0.1,0.2-0.2
		C616.5,27.6,616.5,27.5,616.5,27.4"/>
	<path class="st1" d="M47.2,71.3c0-10.4,8.5-18.9,18.9-18.9S85,60.9,85,71.3c0,7.5-4.4,14-10.8,17.1h37.3L66.2,0L21,88.3h37
		C51.6,85.3,47.2,78.8,47.2,71.3"/>
	<path class="st2" d="M107.8,15.3c0,7.3-5.9,13.2-13.2,13.2c-7.3,0-13.2-5.9-13.2-13.2c0-7.3,5.9-13.2,13.2-13.2
		C101.8,2.1,107.8,8,107.8,15.3"/>
</g>
</svg>
