<svg xmlns="http://www.w3.org/2000/svg" width="72" height="72" viewBox="0 0 72 72">
    <g fill="none" fill-rule="evenodd">
        <path fill="#65CDEF" d="M72 36c0 19.882-16.118 36-36 36S0 55.882 0 36C0 16.117 16.118 0 36 0s36 16.117 36 36"/>
        <path fill="#00B5E2" d="M41.263 22.523c-3.556 0-6.651 1.724-8.59 4.306-.923-.432-1.93-.727-3.018-.727-3.835 0-6.964 3.015-6.964 6.711 0 .534.079 1.04.203 1.538-3.814.744-6.704 3.968-6.704 7.858 0 4.437 3.754 8.053 8.359 8.053H44.76a7.528 7.528 0 0 0 5.788 2.685c4.093 0 7.43-3.215 7.43-7.159 0-2.287-1.132-4.322-2.873-5.634-.32-2.296-1.564-4.311-3.338-5.719.09-.533.175-1.062.175-1.622 0-5.673-4.792-10.29-10.68-10.29"/>
        <path fill="#FFF" d="M38.7 20.053c-3.556 0-6.652 1.724-8.59 4.306-.923-.432-1.93-.727-3.018-.727-3.835 0-6.964 3.015-6.964 6.711 0 .535.079 1.04.203 1.538-3.814.744-6.704 3.968-6.704 7.858 0 4.437 3.753 8.053 8.359 8.053h20.212a7.528 7.528 0 0 0 5.788 2.685c4.093 0 7.429-3.215 7.429-7.158 0-2.288-1.131-4.323-2.872-5.635-.32-2.296-1.564-4.311-3.338-5.719.09-.533.175-1.062.175-1.622 0-5.673-4.793-10.29-10.68-10.29"/>
        <path fill="#00B5E2" d="M47.986 37.95c3.089 0 5.572 2.393 5.572 5.368 0 2.977-2.483 5.37-5.572 5.37-3.087 0-5.571-2.393-5.571-5.37 0-2.975 2.484-5.369 5.571-5.369"/>
        <path fill="#FFF" d="M47.986 39.292c-.512 0-.928.4-.928.895v4.11l-.74-.712a.943.943 0 0 0-1.306 0 .858.858 0 0 0 0 1.258c.755.732 1.547 1.532 2.307 2.21.17.174.4.292.667.292a.925.925 0 0 0 .668-.293c.774-.664 1.535-1.493 2.306-2.21a.854.854 0 0 0 0-1.257.943.943 0 0 0-1.305 0l-.74.713v-4.111c0-.495-.415-.895-.929-.895"/>
    </g>
</svg>
