<svg xmlns="http://www.w3.org/2000/svg" width="65" height="66" viewBox="0 0 65 66">
    <g fill="none" fill-rule="evenodd">
        <path fill="#89E872" d="M37 64a4 4 0 0 1 4-4c1.77 0 3.254 1.158 3.781 2.752a31.99 31.99 0 0 0 7.897-4.526 4 4 0 0 1 5.548-5.548 31.99 31.99 0 0 0 4.526-7.897C61.158 44.254 60 42.77 60 41a4 4 0 0 1 4-4c.251 0 .494.029.732.074.17-1.336.268-2.693.268-4.074 0-1.381-.098-2.738-.268-4.074A3.924 3.924 0 0 1 64 29a4 4 0 0 1-4-4c0-1.77 1.158-3.254 2.752-3.781a31.99 31.99 0 0 0-4.526-7.897 4 4 0 0 1-5.548-5.548 31.99 31.99 0 0 0-7.897-4.526C44.254 4.842 42.77 6 41 6a4 4 0 0 1-4-4c0-.251.029-.494.074-.732A32.226 32.226 0 0 0 33 1c-1.381 0-2.738.098-4.074.268.045.238.074.481.074.732a4 4 0 0 1-4 4c-1.77 0-3.254-1.158-3.781-2.752a31.99 31.99 0 0 0-7.897 4.526 4 4 0 0 1-5.548 5.548 31.99 31.99 0 0 0-4.526 7.897C4.842 21.746 6 23.23 6 25a4 4 0 0 1-4 4c-.251 0-.494-.029-.732-.074A32.226 32.226 0 0 0 1 33c0 1.381.098 2.738.268 4.074.238-.045.481-.074.732-.074a4 4 0 0 1 4 4c0 1.77-1.158 3.254-2.752 3.781a31.99 31.99 0 0 0 4.526 7.897 4 4 0 0 1 5.548 5.548 31.99 31.99 0 0 0 7.897 4.526C21.746 61.158 23.23 60 25 60a4 4 0 0 1 4 4c0 .251-.029.494-.074.732 1.336.17 2.693.268 4.074.268 1.381 0 2.738-.098 4.074-.268A3.924 3.924 0 0 1 37 64"/>
        <path fill="#65CDEF" d="M22 53.112A9.111 9.111 0 0 1 12.888 44 9.111 9.111 0 0 1 22 34.888 9.111 9.111 0 0 1 31.112 44 9.111 9.111 0 0 1 22 53.112M39.21 44A3.027 3.027 0 0 1 42 40.988a20.114 20.114 0 0 0-3.715-8.985 3.02 3.02 0 0 1-2.111.86 3.038 3.038 0 0 1-3.038-3.037c0-.822.33-1.564.861-2.111A20.114 20.114 0 0 0 25.012 24 3.027 3.027 0 0 1 22 26.79 3.027 3.027 0 0 1 18.988 24a20.114 20.114 0 0 0-8.985 3.715c.532.547.86 1.29.86 2.111a3.038 3.038 0 0 1-3.037 3.038 3.02 3.02 0 0 1-2.111-.861A20.114 20.114 0 0 0 2 40.988 3.027 3.027 0 0 1 4.79 44 3.027 3.027 0 0 1 2 47.012a20.114 20.114 0 0 0 3.715 8.985 3.02 3.02 0 0 1 2.111-.86 3.038 3.038 0 0 1 3.038 3.037 3.02 3.02 0 0 1-.861 2.111A20.114 20.114 0 0 0 18.988 64 3.027 3.027 0 0 1 22 61.21 3.027 3.027 0 0 1 25.012 64a20.114 20.114 0 0 0 8.985-3.715 3.02 3.02 0 0 1-.86-2.111 3.038 3.038 0 0 1 3.037-3.038 3.02 3.02 0 0 1 2.111.861A20.114 20.114 0 0 0 42 47.012 3.027 3.027 0 0 1 39.21 44"/>
        <path stroke="#4D5152" stroke-width="2" d="M39.21 44A3.027 3.027 0 0 1 42 40.988a20.114 20.114 0 0 0-3.715-8.985 3.02 3.02 0 0 1-2.111.86 3.038 3.038 0 0 1-3.038-3.037c0-.822.33-1.564.861-2.111A20.114 20.114 0 0 0 25.012 24 3.027 3.027 0 0 1 22 26.79 3.027 3.027 0 0 1 18.988 24a20.114 20.114 0 0 0-8.985 3.715c.532.547.86 1.29.86 2.111a3.038 3.038 0 0 1-3.037 3.038 3.02 3.02 0 0 1-2.111-.861A20.114 20.114 0 0 0 2 40.988 3.027 3.027 0 0 1 4.79 44 3.027 3.027 0 0 1 2 47.012a20.114 20.114 0 0 0 3.715 8.985 3.02 3.02 0 0 1 2.111-.86 3.038 3.038 0 0 1 3.038 3.037 3.02 3.02 0 0 1-.861 2.111A20.114 20.114 0 0 0 18.988 64 3.027 3.027 0 0 1 22 61.21 3.027 3.027 0 0 1 25.012 64a20.114 20.114 0 0 0 8.985-3.715 3.02 3.02 0 0 1-.86-2.111 3.038 3.038 0 0 1 3.037-3.038 3.02 3.02 0 0 1 2.111.861A20.114 20.114 0 0 0 42 47.012 3.027 3.027 0 0 1 39.21 44z"/>
        <path fill="#FFF" d="M31 44a9 9 0 0 1-9 9 9 9 0 0 1-9-9 9 9 0 0 1 9-9 9 9 0 0 1 9 9"/>
        <path fill="#76E1E5" d="M26 44a4 4 0 1 1-8 0 4 4 0 0 1 8 0"/>
        <path stroke="#4D5152" stroke-linejoin="round" stroke-width="2" d="M31 44a9 9 0 0 1-9 9 9 9 0 0 1-9-9 9 9 0 0 1 9-9 9 9 0 0 1 9 9z"/>
        <path fill="#FFF" d="M60.334 16.5A2.95 2.95 0 0 1 63 13.57a14.709 14.709 0 0 0-2.233-5.338 2.906 2.906 0 0 1-1.419.378 2.96 2.96 0 0 1-2.958-2.958c0-.518.144-.997.378-1.42A14.709 14.709 0 0 0 51.43 2a2.95 2.95 0 0 1-2.93 2.666A2.95 2.95 0 0 1 45.57 2c-1.943.39-3.75 1.16-5.338 2.233.234.422.378.901.378 1.419a2.96 2.96 0 0 1-2.958 2.958c-.518 0-.997-.144-1.42-.378A14.709 14.709 0 0 0 34 13.57a2.95 2.95 0 0 1 2.666 2.93A2.95 2.95 0 0 1 34 19.43c.39 1.943 1.16 3.75 2.233 5.338a2.906 2.906 0 0 1 1.419-.378 2.96 2.96 0 0 1 2.958 2.958c0 .518-.144.997-.378 1.42A14.709 14.709 0 0 0 45.57 31a2.95 2.95 0 0 1 2.93-2.666A2.95 2.95 0 0 1 51.43 31c1.943-.39 3.75-1.16 5.338-2.233a2.906 2.906 0 0 1-.378-1.419 2.96 2.96 0 0 1 2.958-2.958c.518 0 .997.144 1.42.378A14.709 14.709 0 0 0 63 19.43a2.95 2.95 0 0 1-2.666-2.93"/>
        <path stroke="#4D5152" stroke-width="2" d="M60.334 16.5A2.95 2.95 0 0 1 63 13.57a14.709 14.709 0 0 0-2.233-5.338 2.906 2.906 0 0 1-1.419.378 2.96 2.96 0 0 1-2.958-2.958c0-.518.144-.997.378-1.42A14.709 14.709 0 0 0 51.43 2a2.95 2.95 0 0 1-2.93 2.666A2.95 2.95 0 0 1 45.57 2c-1.943.39-3.75 1.16-5.338 2.233.234.422.378.901.378 1.419a2.96 2.96 0 0 1-2.958 2.958c-.518 0-.997-.144-1.42-.378A14.709 14.709 0 0 0 34 13.57a2.95 2.95 0 0 1 2.666 2.93A2.95 2.95 0 0 1 34 19.43c.39 1.943 1.16 3.75 2.233 5.338a2.906 2.906 0 0 1 1.419-.378 2.96 2.96 0 0 1 2.958 2.958c0 .518-.144.997-.378 1.42A14.709 14.709 0 0 0 45.57 31a2.95 2.95 0 0 1 2.93-2.666A2.95 2.95 0 0 1 51.43 31c1.943-.39 3.75-1.16 5.338-2.233a2.906 2.906 0 0 1-.378-1.419 2.96 2.96 0 0 1 2.958-2.958c.518 0 .997.144 1.42.378A14.709 14.709 0 0 0 63 19.43a2.95 2.95 0 0 1-2.666-2.93z"/>
        <path fill="#00B5E2" d="M58 17a9 9 0 0 1-9 9 9 9 0 0 1-9-9 9 9 0 0 1 9-9 9 9 0 0 1 9 9"/>
        <path stroke="#4D5152" stroke-linejoin="round" stroke-width="2" d="M53 17a4 4 0 1 1-8 0 4 4 0 0 1 8 0z"/>
    </g>
</svg>
