<svg xmlns="http://www.w3.org/2000/svg" width="72" height="72" viewBox="0 0 72 72">
    <g fill="none" fill-rule="evenodd">
        <path fill="#89E872" fill-rule="nonzero" d="M72 36c0 19.883-16.117 36-36 36C16.118 72 0 55.883 0 36 0 16.118 16.118 0 36 0c19.883 0 36 16.118 36 36"/>
        <path fill="#4DC130" fill-rule="nonzero" d="M51.19 18H36.594c-.163 0-.487.163-.65.163l-22.702 22.75a.787.787 0 0 0 0 1.137l14.595 14.625c.162.325.486.325.648.325.163 0 .487 0 .65-.163l22.702-22.75c0-.162.162-.487.162-.65V18.813c0-.488-.324-.813-.81-.813zM43.08 31c-2.27 0-4.054-1.788-4.054-4.063 0-2.274 1.784-4.062 4.054-4.062 2.27 0 4.054 1.788 4.054 4.063 0 2.274-1.784 4.062-4.054 4.062z"/>
        <path fill="#D4F6C6" fill-rule="nonzero" d="M49.19 16H34.594c-.163 0-.487.163-.65.163l-22.702 22.75a.787.787 0 0 0 0 1.137l14.595 14.625c.162.325.486.325.648.325.163 0 .487 0 .65-.163l22.702-22.75c0-.162.162-.487.162-.65V16.813c0-.487-.324-.812-.81-.812zM41.08 29c-2.27 0-4.054-1.787-4.054-4.063 0-2.275 1.784-4.062 4.054-4.062 2.27 0 4.054 1.787 4.054 4.063 0 2.275-1.784 4.062-4.054 4.062z"/>
        <path fill="#4DC130" d="M25.834 32.018l.61.61c2.283-1.535 5.48-1.792 7.771.5 1.57 1.57 1.954 3.601 1.299 5.353l-2.275-.366c.635-1.457.078-2.694-.67-3.441-1.245-1.246-2.971-1.09-4.356-.277l3.226 3.226-1.329.581-2.99-2.99a7.06 7.06 0 0 0-.642.718l2.927 2.927-1.341.594-2.267-2.266c-.518 1.34-.4 2.765.585 3.75.76.76 2.074 1.263 3.48.655l.557 2.257c-1.922.85-4.3.016-5.683-1.367-1.893-1.893-1.9-4.777-.733-7.09l-1.308-1.307 1.342-.594.71.71c.184-.234.381-.456.643-.718l-.885-.884 1.329-.581z"/>
        <path fill="#4DC130" fill-rule="nonzero" d="M47.712 45.676a4.149 4.149 0 0 1 4.165 4.165c.002.441.283.832.699.977 1.337.465 2.424 2.091 2.424 3.709a3.614 3.614 0 0 1-3.644 3.645h-8.33a3.614 3.614 0 0 1-3.646-3.645c0-1.902 1.412-3.462 3.24-3.66.524-.058.921-.499.926-1.026a4.15 4.15 0 0 1 4.166-4.165"/>
        <path fill="#FFF" fill-rule="nonzero" d="M45.712 43.676a4.149 4.149 0 0 1 4.165 4.165c.002.441.283.832.699.977 1.337.465 2.424 2.091 2.424 3.709a3.614 3.614 0 0 1-3.644 3.645h-8.33a3.614 3.614 0 0 1-3.646-3.645c0-1.902 1.412-3.462 3.24-3.66.524-.058.921-.499.926-1.026a4.15 4.15 0 0 1 4.166-4.165"/>
    </g>
</svg>
