<svg xmlns="http://www.w3.org/2000/svg" width="65" height="60" viewBox="0 0 65 60">
    <g fill="none" fill-rule="evenodd">
        <path fill="#FFF" d="M53.93 25a2 2 0 0 1-2 2h-35l-8 8v-8h-5a2 2 0 0 1-2-2V3a2 2 0 0 1 2-2h48a2 2 0 0 1 2 2v22z"/>
        <path fill="#FFF" d="M8.93 31h43a2 2 0 0 1 2 2v4h10l-10 10v10a2 2 0 0 1-2 2h-41a2 2 0 0 1-2-2V31z"/>
        <path stroke="#4D5152" stroke-linejoin="round" stroke-width="2" d="M53.93 25a2 2 0 0 1-2 2h-35l-8 8v-8h-5a2 2 0 0 1-2-2V3a2 2 0 0 1 2-2h48a2 2 0 0 1 2 2v22z"/>
        <path stroke="#4D5152" stroke-linejoin="round" stroke-width="2" d="M17.93 31h34a2 2 0 0 1 2 2v4h10l-10 10v10a2 2 0 0 1-2 2h-41a2 2 0 0 1-2-2V38"/>
        <path fill="#89E872" d="M14.93 10h26V4h-26z"/>
        <path fill="#65CDEF" d="M11.93 46h39v-6h-39z"/>
        <path stroke="#4D5152" stroke-linejoin="round" stroke-width="2" d="M4.93 13h46M4.93 17h46M11.93 49h39M11.93 53h29M4.93 21h16M26.93 7h2M30.93 7h2M22.93 7h2M21.93 37h2M25.93 37h2M17.93 37h2"/>
    </g>
</svg>
