<?xml version="1.0" encoding="utf-8"?>
<!-- Generator: Adobe Illustrator 23.0.6, SVG Export Plug-In . SVG Version: 6.00 Build 0)  -->
<svg version="1.1" id="Layer_1" xmlns="http://www.w3.org/2000/svg" xmlns:xlink="http://www.w3.org/1999/xlink" x="0px" y="0px"
	 viewBox="0 0 841.89 226" style="enable-background:new 0 0 841.89 226;" xml:space="preserve">
<style type="text/css">
	.st0{fill:#413D3C;}
	.st1{fill:#2E8DCC;}
</style>
<path class="st0" d="M61.53,87.35l-10.79,31.33H36.88l35.27-99.6h16.18l35.43,99.6h-14.34L98.33,87.35H61.53z M95.56,77.31
	L85.41,48.64c-2.33-6.51-3.86-12.41-5.4-18.18H79.7c-1.55,5.91-3.25,11.97-5.24,18.03L64.29,77.31H95.56z"/>
<path class="st0" d="M130.81,47.16l10.06,36.35c2.2,7.98,4.25,15.37,5.67,22.76H147c1.72-7.23,4.25-14.92,6.75-22.61l12.42-36.5
	h11.61l11.79,35.76c2.83,8.57,5.03,16.11,6.75,23.35h0.48c1.25-7.23,3.29-14.78,5.81-23.2l10.83-35.91h13.67l-24.5,71.52h-12.57
	l-11.62-34.13c-2.66-7.98-4.87-15.08-6.75-23.5h-0.31c-1.88,8.58-4.24,15.96-6.9,23.64l-12.26,33.99h-12.57l-22.93-71.52H130.81z"/>
<path class="st0" d="M249.91,23.99c0.14,4.43-3.08,7.97-8.21,7.97c-4.54,0-7.78-3.55-7.78-7.97c0-4.58,3.39-8.14,8.07-8.14
	C246.83,15.86,249.91,19.41,249.91,23.99z M235.55,118.69V47.16h12.89v71.52H235.55z"/>
<path class="st0" d="M264.06,66.53c0-7.39-0.17-13.45-0.66-19.36h12.68l0.82,11.82h0.32c3.9-6.8,13.01-13.44,26-13.44
	c10.89,0,27.78,5.91,27.78,30.45v42.7h-14.29V77.46c0-11.52-4.71-21.14-18.21-21.14c-9.42,0-16.73,6.07-19.17,13.31
	c-0.65,1.62-0.99,3.84-0.99,6.06v43h-14.28V66.53z"/>
<path class="st0" d="M407.41,47.16c-0.31,5.18-0.62,10.94-0.62,19.65v41.52c0,16.41-3.37,26.46-10.57,32.66
	c-7.19,6.51-17.61,8.58-26.94,8.58c-8.89,0-18.69-2.07-24.67-5.91l3.38-9.9c4.89,2.95,12.56,5.6,21.75,5.6
	c13.78,0,23.87-6.94,23.87-24.97v-7.97h-0.3c-4.14,6.65-12.09,11.96-23.57,11.96c-18.38,0-31.55-15.06-31.55-34.87
	c0-24.24,16.39-37.98,33.38-37.98c12.87,0,19.92,6.5,23.12,12.41h0.31l0.61-10.78H407.41z M393.47,75.39c0-2.23-0.16-4.14-0.76-5.92
	c-2.46-7.53-9.04-13.74-18.85-13.74c-12.85,0-22.04,10.49-22.04,27.05c0,14.03,7.34,25.71,21.89,25.71
	c8.27,0,15.78-5.03,18.68-13.31c0.77-2.21,1.07-4.73,1.07-6.94V75.39z"/>
<path class="st0" d="M486.05,99.18c0,7.39,0.17,13.89,0.66,19.5h-12.59l-0.82-11.67h-0.31c-3.72,5.76-11.95,13.29-25.84,13.29
	c-12.27,0-26.96-6.21-26.96-31.33V47.16h14.2v39.61c0,13.59,4.51,22.76,17.43,22.76c9.52,0,16.15-6.07,18.72-11.83
	c0.82-1.92,1.31-4.28,1.31-6.65V47.16h14.19V99.18z"/>
<g>
	<g>
		<path class="st1" d="M497.05,111c0-5.46,3.69-9.3,8.85-9.3c5.18,0,8.73,3.84,8.73,9.3c0,5.33-3.39,9.31-8.86,9.31
			C500.58,120.31,497.05,116.33,497.05,111z"/>
		<path class="st1" d="M578.29,116.03c-3.41,1.77-10.94,4.14-20.55,4.14c-21.58,0-35.61-14.63-35.61-36.51
			c0-22.02,15.06-37.98,38.42-37.98c7.67,0,14.48,1.92,18.02,3.7l-2.95,10.04c-3.1-1.76-7.99-3.39-15.08-3.39
			c-16.4,0-25.27,12.12-25.27,27.04c0,16.56,10.64,26.75,24.82,26.75c7.38,0,12.26-1.92,15.95-3.55L578.29,116.03z"/>
		<path class="st1" d="M675.46,82.34c0,26.45-20.65,37.97-40.12,37.97c-21.82,0-38.63-14.19-38.63-36.79
			c0-23.93,17.64-37.98,39.95-37.98C659.8,45.54,675.46,60.46,675.46,82.34z M611.53,83.07c0,15.67,10.15,27.49,24.47,27.49
			c13.99,0,24.47-11.68,24.47-27.78c0-12.11-6.82-27.5-24.13-27.5C619.01,55.29,611.53,69.48,611.53,83.07z"/>
		<path class="st1" d="M686.78,66.53c0-7.39-0.17-13.45-0.66-19.36h12.34l0.64,11.53h0.49c4.32-6.8,11.52-13.15,24.34-13.15
			c10.57,0,18.58,5.91,21.94,14.33h0.32c2.4-3.99,5.44-7.08,8.65-9.31c4.64-3.25,9.77-5.02,17.15-5.02
			c10.25,0,25.47,6.21,25.47,31.03v42.11H783.7V78.2c0-13.74-5.46-22.02-16.83-22.02c-8.02,0-14.26,5.46-16.66,11.83
			c-0.64,1.77-1.13,4.13-1.13,6.5v44.18h-13.77V75.83c0-11.37-5.45-19.65-16.19-19.65c-8.8,0-15.21,6.5-17.45,13.01
			c-0.82,1.91-1.13,4.14-1.13,6.35v43.15h-13.77V66.53z"/>
		<path class="st1" d="M52.34,205.47c-9.73,0-15.46-7.34-15.46-16.62c0-9.27,5.73-16.61,15.46-16.61c9.68,0,15.41,7.34,15.41,16.61
			C67.75,198.13,62.02,205.47,52.34,205.47z M52.34,203.78c8.46,0,13.42-6.8,13.42-14.93c0-8.12-4.96-14.92-13.42-14.92
			c-8.5,0-13.46,6.8-13.46,14.92C38.87,196.98,43.83,203.78,52.34,203.78z"/>
		<path class="st1" d="M71.72,181.88h1.73v4.89h0.1c1.17-3.42,4.73-5.42,8.37-5.42c8.23,0,8.32,6.44,8.32,9.24v14.13h-1.73v-14.44
			c0-2.35-0.28-7.46-6.64-7.46c-5.23,0-8.41,3.95-8.41,9.54v12.35h-1.73V181.88z"/>
		<path class="st1" d="M96.03,193.51c-0.1,5.38,2.81,10.27,8.59,10.27c4.41,0,7.55-2.58,8.37-6.8h1.73
			c-0.91,5.34-4.56,8.26-10.1,8.26c-6.83,0-10.41-5.23-10.32-11.55c-0.09-6.27,3.28-12.35,10.32-12.35c7.32,0,10.6,5.65,10.28,12.17
			H96.03z M113.17,192.05c-0.09-4.8-3.18-9.24-8.55-9.24c-5.18,0-8.23,4.7-8.59,9.24H113.17z"/>
		<path class="st1" d="M128.78,173h2.05l8.46,29.63h0.09l8.59-29.63h2.5l8.74,29.63h0.08l8.32-29.63h2.14l-9.32,31.72h-2.27
			l-8.91-30.03h-0.09l-8.78,30.03h-2.23L128.78,173z"/>
		<path class="st1" d="M180.87,181.34c6.87,0,10.74,5.47,10.74,11.96c0,6.48-3.87,11.94-10.74,11.94c-6.86,0-10.73-5.46-10.73-11.94
			C170.14,186.82,174.01,181.34,180.87,181.34z M180.87,203.78c5.88,0,9.01-5.03,9.01-10.48c0-5.46-3.13-10.48-9.01-10.48
			c-5.86,0-9,5.02-9,10.48C171.87,198.75,175.01,203.78,180.87,203.78z"/>
		<path class="st1" d="M197.39,186.95h0.13c0.92-2.98,4.73-5.38,8.97-5.21v1.7c-1.82-0.22-4.37,0.22-6.46,2.21
			c-1.73,1.74-2.46,3.16-2.64,6.59v12.48h-1.73v-22.83h1.73V186.95z"/>
		<path class="st1" d="M208.41,173h1.73v21.01l14.41-12.13h2.51l-10.23,8.53l10.96,14.31h-2.37l-9.96-13.01l-5.32,4.4v8.62h-1.73
			V173z"/>
		<path class="st1" d="M230.2,197.12c0.27,4.22,3.5,6.66,7.73,6.66c3.05,0,7.41-0.9,7.41-4.85c0-3.86-4-4.44-8-5.24
			c-4.05-0.8-8.05-1.82-8.05-6.48c0-4.54,4.5-5.87,8.46-5.87c4.96,0,8.65,2.09,8.65,7.29h-1.73c-0.05-4.13-3-5.82-6.92-5.82
			c-3.19,0-6.73,1.15-6.73,4.4c0,3.64,4,4.22,7.78,5.02c4.64,0.84,8.27,1.91,8.27,6.7c0,4.94-5.05,6.31-9.13,6.31
			c-5.32,0-9.33-2.8-9.46-8.12H230.2z"/>
		<path class="st1" d="M253.4,187.13h0.09c0.73-2.27,3.36-5.79,8.5-5.79c7.19,0,10.51,5.56,10.51,12c0,6.93-3.36,11.9-10.51,11.9
			c-3.87,0-7.13-1.59-8.5-5.29h-0.09v12.92h-1.73v-31h1.73V187.13z M270.77,193.34c0-5.2-2.5-10.52-8.77-10.52
			c-6.23,0-8.55,5.11-8.55,10.52c0,5.41,1.96,10.44,8.55,10.44C268.09,203.78,270.77,198.99,270.77,193.34z"/>
		<path class="st1" d="M293.79,200.49c0,1.34,0,2.76,1.55,2.76c0.33,0,0.73-0.05,1.28-0.14v1.42c-0.5,0.08-0.95,0.18-1.41,0.18
			c-2.73,0-3.14-1.46-3.14-3.34v-1.19h-0.1c-1.09,2.7-4.23,5.06-8.68,5.06c-4.41,0-7.83-1.64-7.83-6.44c0-5.33,4.73-6.45,8.59-6.75
			c7.73-0.54,8.06-1.03,8.06-4.75c0-1.03-1.19-4.49-6.51-4.49c-4.19,0-6.96,2.13-7.18,6.09h-1.73c0.22-5.03,3.4-7.56,8.91-7.56
			c4.09,0,8.18,1.25,8.18,5.96V200.49z M292.07,191.74c-1.37,1.52-5.09,1.34-8.47,1.78c-4.09,0.45-6.4,1.87-6.4,5.29
			c0,2.75,2.05,4.97,6.14,4.97c7.86,0,8.73-6.57,8.73-7.78V191.74z"/>
		<path class="st1" d="M316.92,188.94c-0.32-4.05-3.69-6.13-7.92-6.13c-5.88,0-9.01,5.06-9.01,10.26c0,6.17,2.96,10.7,9.01,10.7
			c4.37,0,7.54-2.93,8.13-7.11h1.74c-0.78,5.46-4.82,8.57-9.87,8.57c-7.6,0-10.73-5.82-10.73-12.17c0-6.36,3.82-11.73,10.73-11.73
			c5.05,0,9.14,2.4,9.63,7.6H316.92z"/>
		<path class="st1" d="M323.61,193.51c-0.09,5.38,2.81,10.27,8.59,10.27c4.41,0,7.55-2.58,8.37-6.8h1.73
			c-0.91,5.34-4.55,8.26-10.1,8.26c-6.82,0-10.41-5.23-10.32-11.55c-0.09-6.27,3.27-12.35,10.32-12.35c7.32,0,10.6,5.65,10.27,12.17
			H323.61z M340.76,192.05c-0.1-4.8-3.19-9.24-8.55-9.24c-5.18,0-8.23,4.7-8.59,9.24H340.76z"/>
		<path class="st1" d="M349.14,204.71v-2.84h2.32v2.84H349.14z"/>
	</g>
</g>
<g>
	<path d="M382.5,173l12.88,31.72h-2.15l-4.11-10.18H373.5l-4.16,10.18h-2.14L380.31,173H382.5z M388.48,192.85l-6.99-17.95h-0.09
		l-7.26,17.95H388.48z"/>
	<path d="M397.41,181.88h1.73v4.89h0.1c1.19-3.42,4.74-5.42,8.41-5.42c8.26,0,8.35,6.44,8.35,9.24v14.13h-1.73v-14.44
		c0-2.35-0.28-7.46-6.68-7.46c-5.26,0-8.46,3.95-8.46,9.54v12.35h-1.73V181.88z"/>
	<path d="M418.3,181.88h2.06l8.73,20.83l8.03-20.83h1.97l-10.05,25.27c-0.96,2.23-1.73,3.95-2.74,4.71
		c-1.24,0.94-2.83,1.02-5.48,1.02v-1.46c2.47,0,3.7-0.32,4.89-1.47c0.69-0.67,1.33-2.35,2.42-5.38L418.3,181.88z"/>
	<path d="M454.45,173h10.69c11.65,0,15.07,7.77,15.07,15.81c0,8.97-4.7,15.91-15.16,15.91h-10.6V173z M456.46,203.02h8.77
		c6.08,0,12.97-3.24,12.97-14.22c0-12.97-8.54-14.12-13.39-14.12h-8.36V203.02z"/>
	<path d="M485.31,193.51c-0.09,5.38,2.83,10.27,8.64,10.27c4.43,0,7.58-2.58,8.41-6.8h1.74c-0.91,5.34-4.57,8.26-10.15,8.26
		c-6.85,0-10.46-5.23-10.37-11.55c-0.08-6.27,3.29-12.35,10.37-12.35c7.35,0,10.64,5.65,10.33,12.17H485.31z M502.54,192.05
		c-0.1-4.8-3.21-9.24-8.59-9.24c-5.21,0-8.27,4.7-8.64,9.24H502.54z"/>
	<path d="M517.31,204.71h-2.15l-9.46-22.83h2.02l8.49,20.88h0.09l7.96-20.88h1.91L517.31,204.71z"/>
	<path d="M529.06,177.57V173h1.73v4.58H529.06z M529.06,204.71v-22.83h1.73v22.83H529.06z"/>
	<path d="M554.01,188.94c-0.32-4.05-3.7-6.13-7.96-6.13c-5.9,0-9.04,5.06-9.04,10.26c0,6.17,2.97,10.7,9.04,10.7
		c4.39,0,7.59-2.93,8.18-7.11h1.74c-0.78,5.46-4.84,8.57-9.92,8.57c-7.62,0-10.78-5.82-10.78-12.17c0-6.36,3.83-11.73,10.78-11.73
		c5.08,0,9.18,2.4,9.69,7.6H554.01z"/>
	<path d="M560.74,193.51c-0.1,5.38,2.83,10.27,8.64,10.27c4.43,0,7.58-2.58,8.4-6.8h1.74c-0.91,5.34-4.57,8.26-10.13,8.26
		c-6.86,0-10.47-5.23-10.38-11.55c-0.09-6.27,3.3-12.35,10.38-12.35c7.35,0,10.64,5.65,10.32,12.17H560.74z M577.96,192.05
		c-0.08-4.8-3.21-9.24-8.58-9.24c-5.21,0-8.28,4.7-8.64,9.24H577.96z"/>
	<path d="M586.38,204.71v-2.74h2.33v2.74H586.38z"/>
</g>
<g>
	<path d="M619.96,173l13.16,31.72h-2.2l-4.2-10.18h-15.96l-4.24,10.18h-2.2L617.72,173H619.96z M626.07,192.85l-7.13-17.95h-0.1
		l-7.42,17.95H626.07z"/>
	<path d="M635.2,181.88h1.77v4.89h0.1c1.21-3.42,4.86-5.42,8.58-5.42c8.45,0,8.54,6.44,8.54,9.24v14.13h-1.76v-14.44
		c0-2.35-0.28-7.46-6.83-7.46c-5.36,0-8.63,3.95-8.63,9.54v12.35h-1.77V181.88z"/>
	<path d="M656.54,181.88h2.1l8.91,20.83l8.21-20.83h2l-10.27,25.27c-0.98,2.23-1.77,3.95-2.8,4.71c-1.26,0.94-2.89,1.02-5.59,1.02
		v-1.46c2.52,0,3.78-0.32,4.99-1.47c0.7-0.67,1.36-2.35,2.48-5.38L656.54,181.88z"/>
	<path d="M686.14,202.76h0.09l6.54-20.88h2.38l6.57,20.88h0.09l6.72-20.88h1.96l-7.7,22.83h-2.2l-6.58-20.7h-0.09l-6.63,20.7h-2.24
		l-7.61-22.83h1.91L686.14,202.76z"/>
	<path d="M714.8,173v13.77h0.1c1.22-3.42,4.86-5.42,8.59-5.42c8.44,0,8.53,6.44,8.53,9.24v14.13h-1.77v-14.44
		c0-2.35-0.28-7.46-6.81-7.46c-5.36,0-8.64,3.95-8.64,9.54v12.35h-1.77V173H714.8z"/>
	<path d="M737.97,193.51c-0.1,5.38,2.89,10.27,8.82,10.27c4.52,0,7.75-2.58,8.59-6.8h1.77c-0.94,5.34-4.67,8.26-10.36,8.26
		c-7.01,0-10.69-5.23-10.6-11.55c-0.09-6.27,3.36-12.35,10.6-12.35c7.51,0,10.87,5.65,10.55,12.17H737.97z M755.56,192.05
		c-0.09-4.8-3.26-9.24-8.77-9.24c-5.33,0-8.45,4.7-8.82,9.24H755.56z"/>
	<path d="M763.27,186.95h0.14c0.94-2.98,4.86-5.38,9.21-5.21v1.7c-1.87-0.22-4.49,0.22-6.63,2.21c-1.77,1.74-2.51,3.16-2.71,6.59
		v12.48h-1.77v-22.83h1.77V186.95z"/>
	<path d="M775.18,193.51c-0.1,5.38,2.9,10.27,8.82,10.27c4.53,0,7.75-2.58,8.59-6.8h1.79c-0.94,5.34-4.68,8.26-10.37,8.26
		c-6.99,0-10.68-5.23-10.6-11.55c-0.08-6.27,3.37-12.35,10.6-12.35c7.52,0,10.88,5.65,10.55,12.17H775.18z M792.77,192.05
		c-0.09-4.8-3.26-9.24-8.77-9.24c-5.32,0-8.44,4.7-8.82,9.24H792.77z"/>
	<path d="M801.38,204.71v-2.84h2.38v2.84H801.38z"/>
</g>
</svg>
