<svg xmlns="http://www.w3.org/2000/svg" width="64" height="56" viewBox="0 0 64 56">
    <g fill="none" fill-rule="evenodd">
        <path fill="#89E872" d="M43 22c0 11.598-9.402 21-21 21S1 33.598 1 22 10.402 1 22 1s21 9.402 21 21"/>
        <path fill="#FFF" d="M37 22c0 8.284-6.716 15-15 15-8.284 0-15-6.716-15-15 0-8.284 6.716-15 15-15 8.284 0 15 6.716 15 15"/>
        <path stroke="#4D5152" stroke-width="2" d="M43 22c0 11.598-9.402 21-21 21S1 33.598 1 22 10.402 1 22 1s21 9.402 21 21z"/>
        <path fill="#65CDEF" d="M49 40c7 4 14 3 14 13v2H19v-2c0-10 7-9 14-13h16z"/>
        <path fill="#FFF" d="M45 44l-4-2-4 2-4-4 2-3h1v-4l5 1 5-1v4h1l2 3z"/>
        <path stroke="#4D5152" stroke-width="2" d="M49 40c7 4 14 3 14 13v2H19v-2c0-10 7-9 14-13"/>
        <path stroke="#4D5152" stroke-width="2" d="M45 44l-4-2-4 2-4-4 2-3 6 1 6-1 2 3zM46 33v4M36 37v-4M40 51h2M40 47h2"/>
        <path fill="#FFF" d="M50 20v4c-1 7-4 9-4 9-2 1-5 1-5 1s-3 0-5-1c0 0-3-2-4-9v-4l4-2 10 4 4-2z"/>
        <path fill="#FFC469" d="M32 20c0-6.075 2.925-9 9-9s9 2.925 9 9l-4 2-5-2-5-2-4 2z"/>
        <path stroke="#4D5152" stroke-width="2" d="M50 20v4c-1 7-4 9-4 9-2 1-5 1-5 1s-3 0-5-1c0 0-3-2-4-9v-4M32 20c0-6.075 2.925-9 9-9s9 2.925 9 9"/>
        <path stroke="#4D5152" stroke-width="2" d="M32 20l4-2 5 2 5 2 4-2M26 18a4 4 0 0 0-8 0c0 2.209 2 3 4 4s4 1.791 4 4a4 4 0 0 1-8 0M22 14v-3M22 30v3"/>
    </g>
</svg>
