<svg xmlns="http://www.w3.org/2000/svg" width="72" height="72" viewBox="0 0 72 72">
    <g fill="none" fill-rule="evenodd">
        <path fill="#8AE872" d="M72 36c0 19.883-16.118 36-36 36S0 55.883 0 36C0 16.118 16.118 0 36 0s36 16.118 36 36"/>
        <path fill="#FFF" d="M19 43.507V19.662a.68.68 0 0 1 .662-.662h23.845a.68.68 0 0 1 .662.662v23.845c0 .354-.31.662-.662.662H19.662a.679.679 0 0 1-.662-.662"/>
        <path fill="#D4F6C6" d="M53 52.338c0 .354-.31.662-.662.662H28.493a.679.679 0 0 1-.662-.662v-5.961h15.676c1.589 0 2.87-1.28 2.87-2.87V27.83h5.961a.68.68 0 0 1 .662.663v23.844z"/>
    </g>
</svg>
