<?xml version="1.0" encoding="UTF-8"?>
<svg width="77px" height="78px" viewBox="0 0 77 78" version="1.1" xmlns="http://www.w3.org/2000/svg" xmlns:xlink="http://www.w3.org/1999/xlink">
    <!-- Generator: Sketch 53 (72520) - https://sketchapp.com -->
    <title>icon_cloud-services</title>
    <desc>Created with Sketch.</desc>
    <g id="Desktop" stroke="none" stroke-width="1" fill="none" fill-rule="evenodd">
        <g id="ISV-Landing" transform="translate(-681.000000, -696.000000)">
            <g id="Intro" transform="translate(240.000000, 696.000000)">
                <g id="icon_cloud-services" transform="translate(441.000000, 0.000000)">
                    <path d="M64.93944,21.7142857 C64.93944,14.4761905 58.93944,7.23809524 52.93944,7.23809524 L48.13944,7.23809524 L48.13944,20.5079365 L15.73944,20.5079365 C7.78704,20.5079365 1.33944,26.9896508 1.33944,34.984127 C1.33944,42.9786032 7.78704,49.4603175 15.73944,49.4603175 L16.93944,49.4603175 L25.33944,49.4603175 L46.93944,49.4603175 L55.33944,49.4603175 L61.33944,49.4603175 C69.29184,49.4603175 75.73944,42.9786032 75.73944,34.984127 C75.73944,27.8099683 70.93944,21.7142857 64.93944,21.7142857" id="Fill-2" fill="#FFFFFF"></path>
                    <path d="M19.33944,20.5079365 L15.73944,20.5079365 C7.78704,20.5079365 1.33944,26.9896508 1.33944,34.984127 C1.33944,42.9786032 7.78704,49.4603175 15.73944,49.4603175 L34.93944,49.4603175" id="Stroke-3" stroke="#4D5152" stroke-width="2.4000001"></path>
                    <polyline id="Stroke-4" stroke="#4D5152" stroke-width="2.4000001" stroke-linejoin="round" points="32.53944 59.1111111 27.73944 54.2857143 22.93944 59.1111111"></polyline>
                    <polyline id="Stroke-5" stroke="#4D5152" stroke-width="2.4000001" stroke-linejoin="round" points="54.13944 59.1111111 49.33944 54.2857143 44.53944 59.1111111"></polyline>
                    <polyline id="Stroke-6" stroke="#4D5152" stroke-width="2.4000001" stroke-linejoin="round" points="43.33944 71.1746032 38.53944 76 33.73944 71.1746032"></polyline>
                    <polyline id="Stroke-7" stroke="#4D5152" stroke-width="2.4000001" stroke-linejoin="round" points="27.73944 54.2857143 27.73944 67.5555556 0.13944 67.5555556"></polyline>
                    <polyline id="Stroke-8" stroke="#4D5152" stroke-width="2.4000001" stroke-linejoin="round" points="49.33944 54.2857143 49.33944 67.5555556 76.93944 67.5555556"></polyline>
                    <path d="M38.53944,53.0793651 L38.53944,76" id="Stroke-9" stroke="#4D5152" stroke-width="2.4000001" stroke-linejoin="round"></path>
                    <path d="M52.84332,20.5079365 C52.84332,18.644127 54.25932,17.1289524 56.06532,16.9492063 C55.60212,14.6293968 54.69132,12.4736508 53.43132,10.5700317 C52.02732,11.7220952 49.96332,11.6569524 48.65292,10.3408254 C47.34372,9.02349206 47.27892,6.94857143 48.42492,5.53714286 C46.53132,4.27047619 44.38692,3.35485714 42.07932,2.8904127 C41.90052,4.7047619 40.39332,6.12825397 38.53932,6.12825397 C36.68532,6.12825397 35.17812,4.7047619 34.99932,2.8904127 C32.69172,3.35485714 30.54732,4.27047619 28.65372,5.53714286 C29.79972,6.94857143 29.73492,9.02349206 28.42572,10.3408254 C27.11652,11.6569524 25.05132,11.7220952 23.64732,10.5700317 C22.38732,12.4736508 21.47652,14.6293968 21.01452,16.9492063 C22.81932,17.1289524 24.23532,18.644127 24.23532,20.5079365 C24.23532,22.371746 22.81932,23.8869206 21.01452,24.0666667 C21.47652,26.3864762 22.38732,28.5422222 23.64732,30.4458413 C25.05132,29.2937778 27.11652,29.3589206 28.42572,30.6750476 C29.73492,31.992381 29.79972,34.0673016 28.65372,35.4787302 C30.54732,36.7453968 32.69172,37.6610159 34.99932,38.1254603 C35.17812,36.3111111 36.68532,34.887619 38.53932,34.887619 C40.39332,34.887619 41.90052,36.3111111 42.07932,38.1254603 C44.38692,37.6610159 46.53132,36.7453968 48.42492,35.4787302 C47.27892,34.0673016 47.34372,31.992381 48.65292,30.6750476 C49.96332,29.3589206 52.02732,29.2937778 53.43132,30.4458413 C54.69132,28.5422222 55.60212,26.3864762 56.06532,24.0666667 C54.25932,23.8869206 52.84332,22.371746 52.84332,20.5079365" id="Fill-10" fill="#89E872"></path>
                    <path d="M40.93944,20.5079365 C40.93944,21.8409524 39.86544,22.9206349 38.53944,22.9206349 C37.21344,22.9206349 36.13944,21.8409524 36.13944,20.5079365 C36.13944,19.1749206 37.21344,18.0952381 38.53944,18.0952381 C39.86544,18.0952381 40.93944,19.1749206 40.93944,20.5079365" id="Fill-11" fill="#FFFFFF"></path>
                    <path d="M37.33944,1.20634921 L39.73944,1.20634921" id="Stroke-12" stroke="#4D5152" stroke-width="2.4000001" stroke-linejoin="round"></path>
                    <path d="M56.53944,20.5079365 L58.93944,20.5079365" id="Stroke-13" stroke="#4D5152" stroke-width="2.4000001" stroke-linejoin="round"></path>
                    <path d="M50.53944,33.7777778 L52.93944,33.7777778" id="Stroke-14" stroke="#4D5152" stroke-width="2.4000001" stroke-linejoin="round"></path>
                    <path d="M37.33944,39.8095238 L39.73944,39.8095238" id="Stroke-15" stroke="#4D5152" stroke-width="2.4000001" stroke-linejoin="round"></path>
                    <path d="M24.13944,33.7777778 L26.53944,33.7777778" id="Stroke-16" stroke="#4D5152" stroke-width="2.4000001" stroke-linejoin="round"></path>
                    <path d="M24.13944,7.23809524 L26.53944,7.23809524" id="Stroke-17" stroke="#4D5152" stroke-width="2.4000001" stroke-linejoin="round"></path>
                    <path d="M46.93944,20.5079365 C46.93944,25.1716825 43.17864,28.952381 38.53944,28.952381 C33.90024,28.952381 30.13944,25.1716825 30.13944,20.5079365 C30.13944,15.8441905 33.90024,12.0634921 38.53944,12.0634921 C43.17864,12.0634921 46.93944,15.8441905 46.93944,20.5079365 Z" id="Stroke-18" stroke="#4D5152" stroke-width="2.4000001" stroke-linejoin="round"></path>
                    <path d="M50.53944,7.23809524 L52.93944,7.23809524 C58.93944,7.23809524 64.93944,14.4761905 64.93944,21.7142857 C70.93944,21.7142857 75.73944,27.8099683 75.73944,34.984127 C75.73944,42.9786032 69.29184,49.4603175 61.33944,49.4603175 L42.13944,49.4603175" id="Stroke-19" stroke="#4D5152" stroke-width="2.4000001"></path>
                    <path d="M15.73944,42.2222222 C11.76384,42.2222222 8.53944,38.9807619 8.53944,34.984127 C8.53944,30.9874921 11.76384,27.7460317 15.73944,27.7460317" id="Stroke-20" stroke="#4D5152" stroke-width="2.4000001"></path>
                    <path d="M37.33944,49.4603175 L39.73944,49.4603175" id="Stroke-21" stroke="#4D5152" stroke-width="2.4000001" stroke-linejoin="round"></path>
                    <path d="M37.33944,44.6349206 L39.73944,44.6349206" id="Stroke-22" stroke="#4D5152" stroke-width="2.4000001" stroke-linejoin="round"></path>
                </g>
            </g>
        </g>
    </g>
</svg>
