<?xml version="1.0" encoding="UTF-8"?>
<svg width="71px" height="51px" viewBox="0 0 71 51" version="1.1" xmlns="http://www.w3.org/2000/svg" xmlns:xlink="http://www.w3.org/1999/xlink">
    <!-- Generator: Sketch 52.6 (67491) - http://www.bohemiancoding.com/sketch -->
    <title>icon_cloud-profit</title>
    <desc>Created with Sketch.</desc>
    <g id="Desktop" stroke="none" stroke-width="1" fill="none" fill-rule="evenodd">
        <g id="ISV-Landing" transform="translate(-269.000000, -2748.000000)">
            <g id="Features-Section" transform="translate(-1.000000, 1611.000000)">
                <g id="Group-2" transform="translate(244.000000, 296.000000)">
                    <g id="4" transform="translate(0.000000, 804.000000)">
                        <g id="icon_cloud-profit" transform="translate(27.000000, 38.000000)">
                            <g id="Group-28" stroke-width="2">
                                <g id="Flexible" transform="translate(9.000000, 1.000000)" fill="#00C3E5" fill-rule="nonzero" stroke="#777777">
                                    <path d="M48.3870968,38 C54.8003226,38 60,32.89565 60,26.6 C60,20.9501125 56.1290323,16.15 50.3225806,16.15 C50.3225806,11.4 47.4193548,7.6 41.6129032,7.6 L40.6451613,7.6 C38.0056452,2.9224375 32.9305645,0 27.0967742,0 C18.5458065,0 11.6129032,6.8058 11.6129032,15.2 C5.19967742,15.2 0,20.30435 0,26.6 C0,32.89565 5.19967742,38 11.6129032,38 L48.3870968,38 Z" id="Shape"></path>
                                </g>
                                <g id="Group-25">
                                    <path d="M39.516129,31 C44.7535968,31 49,26.835925 49,21.7 C49,17.0908812 45.8387097,13.175 41.0967742,13.175 C41.0967742,9.3 38.7258065,6.2 33.983871,6.2 L33.1935484,6.2 C31.0379435,2.38409375 26.8932944,0 22.1290323,0 C15.1457419,0 9.48387097,5.5521 9.48387097,12.4 C4.24640323,12.4 0,16.564075 0,21.7 C0,26.835925 4.24640323,31 9.48387097,31 L39.516129,31 Z" id="Shape-Copy-6" stroke="#777777" fill="#89E872" fill-rule="nonzero"></path>
                                    <path d="M15,13 C15,8.02934091 19,4 23,4" id="Shape" stroke="#FFFFFF"></path>
                                </g>
                            </g>
                            <g id="Group-24" transform="translate(23.000000, 22.000000)">
                                <g id="Group-30">
                                    <path d="M27,13.5 C27,20.9558571 20.9558571,27 13.5,27 C6.04414286,27 0,20.9558571 0,13.5 C0,6.04414286 6.04414286,0 13.5,0 C20.9558571,0 27,6.04414286 27,13.5" id="Fill-2" fill="#89E872"></path>
                                    <path d="M23,13.5 C23,18.7465333 18.7465333,23 13.5,23 C8.25346667,23 4,18.7465333 4,13.5 C4,8.25346667 8.25346667,4 13.5,4 C18.7465333,4 23,8.25346667 23,13.5" id="Fill-3" fill="#FFFFFF"></path>
                                    <path d="M27,13.5 C27,20.9558571 20.9558571,27 13.5,27 C6.04414286,27 0,20.9558571 0,13.5 C0,6.04414286 6.04414286,0 13.5,0 C20.9558571,0 27,6.04414286 27,13.5 Z" id="Stroke-4" stroke="#777777" stroke-width="2"></path>
                                    <g id="Group-19" transform="translate(11.000000, 6.000000)" stroke="#4D5152" stroke-width="2">
                                        <path d="M5.52995392,4.81069959 C5.52995392,3.44257407 4.29193548,2.33333333 2.76497696,2.33333333 C1.23801843,2.33333333 0,3.44257407 0,4.81069959 C0,6.1788251 1.38248848,6.66872428 2.76497696,7.28806584 C4.14746544,7.90740741 5.52995392,8.39730658 5.52995392,9.7654321 C5.52995392,11.1335576 4.29193548,12.2427984 2.76497696,12.2427984 C1.23801843,12.2427984 0,11.1335576 0,9.7654321" id="Stroke-18"></path>
                                        <path d="M2.57142857,1.85802469 L2.57142857,0" id="Stroke-19"></path>
                                        <path d="M2.57142857,12.6666667 L2.57142857,14.5246914" id="Stroke-20"></path>
                                    </g>
                                </g>
                            </g>
                        </g>
                    </g>
                </g>
            </g>
        </g>
    </g>
</svg>
