<?xml version="1.0" encoding="utf-8"?>
<!-- Generator: Adobe Illustrator 23.0.4, SVG Export Plug-In . SVG Version: 6.00 Build 0)  -->
<svg version="1.1" id="Layer_2" xmlns="http://www.w3.org/2000/svg" xmlns:xlink="http://www.w3.org/1999/xlink" x="0px" y="0px"
	 viewBox="0 0 1000 400" style="enable-background:new 0 0 1000 400;" xml:space="preserve">
<style type="text/css">
	.st0{clip-path:url(#SVGID_2_);}
	.st1{fill:#1F70C1;}
	.st2{clip-path:url(#SVGID_4_);}
	.st3{clip-path:url(#SVGID_6_);}
	.st4{clip-path:url(#SVGID_8_);}
	.st5{fill:#ffffff;}
</style>
<g>
	<g>
		<defs>
			<polygon id="SVGID_1_" points="554,0 554,82 610,82 610,318 556,318 556,400 694,400 694,171.8 776.9,399.9 778.6,400 860,171.8
				860,400 1000,400 1000,318 944,318 944,82 998,82 998,0 842.4,0 777.6,182.9 712,0 			"/>
		</defs>
		<clipPath id="SVGID_2_">
			<use xlink:href="#SVGID_1_"  style="overflow:visible;"/>
		</clipPath>
		<g class="st0">
			<polygon class="st1" points="1044,400 0,400 0,373 1016,373 1016,347 0,347 0,319 1044,319 			"/>
			<polygon class="st1" points="989,293 0,293 0,266 961,266 961,240 -14,240 -14,159 961,159 961,134 0,134 0,107 989,107 989,187
				14,187 14,213 989,213 			"/>
			<polygon class="st1" points="1044,81 0,81 0,53 1016,53 1016,27 0,27 0,0 1044,0 			"/>
		</g>
	</g>
	<g>
		<defs>
			<path id="SVGID_3_" d="M222,400v-82h56V188h215v24.9c0,0,18,14,23.7,27.4l11.5,25.9c0,0,5.3,14.5,5.3,27.4l-2.3,25.9
				c0,0-3.6,21.1-9.9,27.3l-22.2,25.9c0,0-28.3,27.4-65.8,27.4H222z"/>
		</defs>
		<clipPath id="SVGID_4_">
			<use xlink:href="#SVGID_3_"  style="overflow:visible;"/>
		</clipPath>
		<g class="st2">
			<polygon class="st1" points="1044,400 0,400 0,373 1016,373 1016,347 0,347 0,319 1044,319 			"/>
			<polygon class="st1" points="989,293 0,293 0,266 961,266 961,240 -14,240 -14,159 961,159 961,134 0,134 0,107 989,107 989,187
				14,187 14,213 989,213 			"/>
			<polygon class="st1" points="1044,81 0,81 0,53 1016,53 1016,27 0,27 0,0 1044,0 			"/>
		</g>
	</g>
	<g>
		<defs>
			<path id="SVGID_5_" d="M222,0v82h56v130h215v-24.9c0,0,18-14,23.7-27.4l11.5-25.9c0,0,5.3-14.5,5.3-27.4l-2.3-25.9
				c0,0-3.6-21.1-9.9-27.3l-22.2-25.9c0,0-28.3-27.4-65.8-27.4H222z"/>
		</defs>
		<clipPath id="SVGID_6_">
			<use xlink:href="#SVGID_5_"  style="overflow:visible;"/>
		</clipPath>
		<g class="st3">
			<polygon class="st1" points="1044,400 0,400 0,373 1016,373 1016,347 0,347 0,319 1044,319 			"/>
			<polygon class="st1" points="989,293 0,293 0,266 961,266 961,240 -14,240 -14,159 961,159 961,134 0,134 0,107 989,107 989,187
				14,187 14,213 989,213 			"/>
			<polygon class="st1" points="1044,81 0,81 0,53 1016,53 1016,27 0,27 0,0 1044,0 			"/>
		</g>
	</g>
	<g>
		<defs>
			<polygon id="SVGID_7_" points="0,-1 0,82 56,82 56,318 1,318 1,400 196,400 196,318 140,318 140,82 195,82 195,-1 			"/>
		</defs>
		<clipPath id="SVGID_8_">
			<use xlink:href="#SVGID_7_"  style="overflow:visible;"/>
		</clipPath>
		<g class="st4">
			<polygon class="st1" points="1044,400 0,400 0,373 1016,373 1016,347 0,347 0,319 1044,319 			"/>
			<polygon class="st1" points="989,293 0,293 0,266 961,266 961,240 -14,240 -14,159 961,159 961,134 0,134 0,107 989,107 989,187
				14,187 14,213 989,213 			"/>
			<polygon class="st1" points="1044,81 0,81 0,53 1016,53 1016,27 0,27 0,0 1044,0 			"/>
		</g>
	</g>
	<rect x="362" y="82" class="st5" width="82" height="76"/>
	<rect x="362" y="241" class="st5" width="82" height="76"/>
</g>
</svg>
