<svg xmlns="http://www.w3.org/2000/svg" width="61" height="56" viewBox="0 0 61 56">
    <g fill="none" fill-rule="evenodd">
        <path fill="#89E872" d="M47.094 13h6V7h-6z"/>
        <path fill="#89E872" d="M59.094 7a6 6 0 0 1-12 0 6 6 0 0 1 12 0"/>
        <path fill="#FFF" d="M11.094 55V7a6 6 0 0 1 6-6h36a6 6 0 0 0-6 6v42a6 6 0 0 1-6 6h-30z"/>
        <path fill="#89E872" d="M41.094 55a6 6 0 0 1 0-12h-34a6 6 0 0 0 0 12h34"/>
        <path stroke="#4D5152" stroke-linejoin="round" stroke-width="2" d="M41.094 55a6 6 0 0 1 0-12h-34a6 6 0 0 0 0 12h34"/>
        <path stroke="#4D5152" stroke-linejoin="round" stroke-width="2" d="M11.094 40V7a6 6 0 0 1 6-6h36a6 6 0 0 0-6 6v42a6 6 0 0 1-6 6M52.094 13h1a6 6 0 0 0 0-12M28.094 9h2M32.094 9h2M24.094 9h2M18.094 17h22M18.094 21h22M18.094 25.387h9M18.094 29.387h9M18.094 33.387h9"/>
        <text fill="#4D5152" font-family="Raleway-Bold, Raleway" font-size="14" font-weight="bold" transform="translate(1)">
            <tspan x="27" y="30">€</tspan>
        </text>
    </g>
</svg>
