<?xml version="1.0" encoding="utf-8"?>
<!-- Generator: Adobe Illustrator 23.0.6, SVG Export Plug-In . SVG Version: 6.00 Build 0)  -->
<svg version="1.1" id="Layer_1" xmlns="http://www.w3.org/2000/svg" xmlns:xlink="http://www.w3.org/1999/xlink" x="0px" y="0px"
	 viewBox="0 0 950.37 202.95" style="enable-background:new 0 0 950.37 202.95;" xml:space="preserve">
<style type="text/css">
	.st0{fill:#F25022;}
	.st1{fill:#80BA01;}
	.st2{fill:#777777;}
	.st3{fill:#02A4EF;}
	.st4{fill:#FFB902;}
</style>
<g>
	<path class="st0" d="M0,0h96.54c-0.01,32.18,0,64.36-0.01,96.54c-32.18,0-64.36,0-96.54,0V0L0,0z"/>
	<path class="st1" d="M106.4,0h96.54c0,32.18,0.01,64.36-0.01,96.54c-32.18-0.01-64.36,0-96.53,0C106.4,64.36,106.4,32.18,106.4,0
		L106.4,0z"/>
	<path class="st2" d="M870.61,36.79c8.9-5.79,20.4-6.33,30.43-3.57c0.09,5.96,0.01,11.93,0.04,17.89
		c-4.77-2.1-10.37-3.47-15.39-1.41c-3.98,1.58-6.34,5.66-6.96,9.74c-0.75,5.18-0.26,10.43-0.39,15.63
		c10.18,0.02,20.36,0.01,30.55,0.01c0.08-6.61-0.08-13.23,0.09-19.84c6.92-1.97,13.77-4.18,20.66-6.26
		c0.06,8.71-0.08,17.42,0.08,26.14c6.88-0.1,13.77-0.02,20.66-0.05v16.95c-6.91-0.28-13.83-0.08-20.74-0.1
		c0.03,9.75,0.01,19.49,0.01,29.25c0.11,5.4-0.29,10.83,0.34,16.21c0.38,3.17,1.54,6.69,4.51,8.33c4.98,2.79,11.3,1.57,15.88-1.49
		v17.12c-5.97,2.59-12.63,3.38-19.09,2.92c-6.12-0.45-12.47-2.68-16.46-7.55c-4.62-5.5-5.8-12.95-5.9-19.92
		c-0.05-14.96,0.01-29.92-0.02-44.89c-10.19-0.01-20.38-0.01-30.56,0.01c-0.01,23.48-0.01,46.96-0.01,70.43c-6.96,0-13.92,0-20.88,0
		c0-23.47-0.03-46.94,0.01-70.41c-4.84-0.09-9.69,0.02-14.53-0.08c0.02-5.57,0.04-11.15-0.01-16.73c4.82-0.11,9.64-0.06,14.47-0.03
		c0.35-7.41-0.78-15.04,1.44-22.25C860.71,46.34,864.87,40.46,870.61,36.79L870.61,36.79z"/>
	<path class="st2" d="M423.56,38c4.21-0.64,8.77,0.8,11.56,4.09c3.27,3.61,3.87,9.35,1.45,13.56c-2.68,4.75-8.67,6.96-13.9,5.82
		c-5.42-0.97-9.94-6.01-9.69-11.63C412.82,43.93,417.76,38.66,423.56,38L423.56,38z"/>
	<path class="st2" d="M263.54,40.59c10.12,0,20.24,0,30.37,0c9.45,24,18.97,47.98,28.44,71.98c2.42,6,4.68,12.07,7.21,18.03
		c12.16-29.99,24.49-59.9,36.56-89.93c9.74-0.16,19.48-0.03,29.22-0.06c-0.02,40.58-0.01,81.17-0.01,121.75
		c-7.03-0.02-14.05,0.06-21.07-0.04c0.08-29.95-0.01-59.9,0.03-89.85c0.01-1.35-0.03-2.69-0.13-4.04c-0.41,0.63-0.78,1.28-1.1,1.95
		C361,101.03,348.7,131.6,336.7,162.28c-5,0.18-10,0.01-15.01,0.09c-12.45-30.66-24.74-61.38-37.13-92.06
		c-0.32-0.64-0.67-1.26-1.05-1.86c-0.26,13.12-0.04,26.26-0.11,39.38c0.01,18.17-0.01,36.34,0.01,54.52
		c-6.63,0.02-13.26,0-19.88,0.01C263.53,121.77,263.53,81.18,263.54,40.59L263.54,40.59z"/>
	<path class="st2" d="M481.02,75c10.08-2.87,20.94-2.75,31.02,0.09c2.08,0.58,4.09,1.39,5.96,2.48c-0.12,6.65,0,13.31-0.06,19.96
		c-6.73-5.14-15.27-8.4-23.83-7.32c-6.8,0.61-13.28,4.14-17.34,9.63c-5.22,6.81-6.43,15.85-5.53,24.17
		c0.67,6.52,3.37,13.03,8.44,17.35c5.27,4.68,12.65,6.34,19.54,5.82c6.81-0.78,13.23-3.66,18.73-7.69
		c0.06,6.3-0.03,12.61,0.05,18.91c-8.54,5.08-18.77,6.39-28.54,5.91c-10-0.53-19.96-4.31-27.2-11.34
		c-7.86-7.58-12.13-18.39-12.63-29.21c-0.51-11.25,1.78-23,8.26-32.4C463.29,83.35,471.77,77.67,481.02,75L481.02,75z"/>
	<path class="st2" d="M709.11,73.68c9.65-1.7,19.76-0.45,28.9,3.01c0.01,6.4,0,12.8,0.01,19.19c-6.38-4.39-14.18-6.75-21.93-6.48
		c-3.9,0.15-8.19,1.8-9.97,5.51c-1.41,3.67-0.43,8.48,3.03,10.68c5.92,3.96,12.98,5.64,19.12,9.19c4.83,2.71,9.52,6.26,11.96,11.38
		c4.6,9.58,2.65,22.24-5.43,29.38c-7.72,7.21-18.83,9.21-29.06,8.83c-7.26-0.47-14.55-1.9-21.23-4.87
		c0.03-6.73-0.04-13.46,0.03-20.18c5.61,4.08,12.09,6.99,18.94,8.18c4.77,0.78,9.96,0.81,14.41-1.32c4.26-2.12,5.02-8.16,2.49-11.86
		c-2.37-2.85-5.84-4.42-9.12-5.97c-6.15-2.77-12.62-5.08-18.02-9.23c-3.8-2.96-6.67-7.14-7.8-11.85
		c-1.67-6.94-1.15-14.76,2.89-20.83C692.94,79.37,700.95,75.13,709.11,73.68L709.11,73.68z"/>
	<path class="st2" d="M564.68,76.42c5.76-3.46,13.09-3.75,19.38-1.64c-0.03,6.96,0,13.93-0.02,20.89
		c-4.12-2.67-9.25-3.81-14.11-3.32c-5.93,0.67-10.62,5.22-13.06,10.44c-2.64,5.53-3.14,11.78-2.97,17.82c0,13.91,0.01,27.82,0,41.73
		c-6.87,0-13.72,0-20.58,0c-0.02-29.07,0.02-58.15-0.02-87.23c6.87-0.09,13.74-0.05,20.61-0.02c-0.03,4.99,0,9.98-0.02,14.98
		C556.12,84.66,559.45,79.39,564.68,76.42L564.68,76.42z"/>
	<path class="st2" d="M414.87,75.11c6.92-0.03,13.85-0.1,20.78,0.03c-0.08,29.07-0.01,58.14-0.03,87.21c-6.91,0-13.82,0-20.73,0
		C414.86,133.28,414.89,104.2,414.87,75.11L414.87,75.11z"/>
	<path class="st2" d="M670.62,95.46c-3.62-8.06-10.16-14.79-18.24-18.43c-9.3-4.23-19.87-4.8-29.89-3.53
		c-10.52,1.33-20.77,6.28-27.45,14.67c-6.1,7.49-9.07,17.12-9.64,26.67c-0.84,11.25,1.04,23.2,7.65,32.59
		c5.63,8.11,14.52,13.68,24.12,15.73c8.02,1.69,16.42,1.69,24.45,0.02c9.39-1.93,18.15-7.13,23.97-14.79
		c5.68-7.22,8.54-16.32,9.18-25.41C675.42,113.68,674.48,104.04,670.62,95.46z M650.45,135.52c-1.99,4.49-5.65,8.28-10.26,10.08
		c-5.39,2.07-11.45,2.19-17.02,0.75c-5.67-1.49-10.47-5.58-13.09-10.8c-3.36-6.71-3.87-14.48-3.17-21.84
		c0.63-6.7,2.96-13.59,8.07-18.21c3.7-3.46,8.74-5.14,13.74-5.42c6.27-0.41,12.95,1.36,17.47,5.93c4.82,4.74,6.69,11.63,7.21,18.19
		C653.76,121.37,653.46,128.86,650.45,135.52z"/>
	<path class="st2" d="M837.84,97.98c-3.21-8.66-9.64-16.15-17.93-20.3c-9.51-4.8-20.57-5.5-30.99-4.21
		c-8.4,1.08-16.66,4.27-23.07,9.9c-7.83,6.74-12.42,16.66-13.77,26.8c-1.29,10.14-0.85,20.82,3.28,30.31
		c3.97,9.31,11.79,16.87,21.21,20.58c9.29,3.66,19.63,4.07,29.41,2.49c10-1.65,19.48-6.91,25.67-15.01
		c6.62-8.36,9.46-19.18,9.45-29.72C841.23,111.77,840.35,104.61,837.84,97.98z M819,127.57c-0.8,4.59-2.39,9.17-5.4,12.81
		c-3.03,3.65-7.54,5.88-12.2,6.56c-5,0.75-10.26,0.39-14.94-1.62c-5.04-2.13-8.95-6.5-11.01-11.52c-2.48-5.98-2.97-12.61-2.48-19.01
		c0.48-6.2,2.23-12.56,6.33-17.38c3.73-4.5,9.46-6.99,15.24-7.31c5.9-0.41,12.19,0.95,16.73,4.93c4.18,3.47,6.49,8.66,7.56,13.89
		C820.02,115.05,820.01,121.4,819,127.57z"/>
	<path class="st3" d="M0,106.4c32.18,0.01,64.36-0.01,96.54,0.01c0.01,32.18,0,64.36,0,96.54H0V106.4L0,106.4z"/>
	<path class="st4" d="M106.41,106.41c32.18-0.01,64.36-0.01,96.54-0.01c0,32.18,0,64.36,0,96.54H106.4
		C106.41,170.76,106.4,138.58,106.41,106.41L106.41,106.41z"/>
</g>
</svg>
