<?xml version="1.0" encoding="UTF-8"?>
<svg width="52px" height="45px" viewBox="0 0 52 45" version="1.1" xmlns="http://www.w3.org/2000/svg" xmlns:xlink="http://www.w3.org/1999/xlink">
    <!-- Generator: Sketch 52.6 (67491) - http://www.bohemiancoding.com/sketch -->
    <title>icon_customer-value</title>
    <desc>Created with Sketch.</desc>
    <g id="Desktop" stroke="none" stroke-width="1" fill="none" fill-rule="evenodd">
        <g id="ISV-Landing" transform="translate(-279.000000, -2220.000000)">
            <g id="Features-Section" transform="translate(-1.000000, 1611.000000)">
                <g id="Group-2" transform="translate(244.000000, 296.000000)">
                    <g id="2" transform="translate(0.000000, 273.000000)">
                        <g id="icon_customer-value" transform="translate(37.000000, 39.000000)">
                            <path d="M33.8709677,18.7222222 C33.8709677,27.9576667 26.2887097,35.4444444 16.9354839,35.4444444 C7.58225806,35.4444444 -1.76214598e-12,27.9576667 -1.76214598e-12,18.7222222 C-1.76214598e-12,9.48677778 7.58225806,2 16.9354839,2 C26.2887097,2 33.8709677,9.48677778 33.8709677,18.7222222" id="Fill-2" fill="#89E872"></path>
                            <path d="M29.0322581,18.7222222 C29.0322581,25.3187407 23.616129,30.6666667 16.9354839,30.6666667 C10.2548387,30.6666667 4.83870968,25.3187407 4.83870968,18.7222222 C4.83870968,12.1257037 10.2548387,6.77777778 16.9354839,6.77777778 C23.616129,6.77777778 29.0322581,12.1257037 29.0322581,18.7222222" id="Fill-3" fill="#FFFFFF"></path>
                            <path d="M33.8709677,18.7222222 C33.8709677,27.9576667 26.2887097,35.4444444 16.9354839,35.4444444 C7.58225806,35.4444444 -1.76214598e-12,27.9576667 -1.76214598e-12,18.7222222 C-1.76214598e-12,9.48677778 7.58225806,2 16.9354839,2 C26.2887097,2 33.8709677,9.48677778 33.8709677,18.7222222 Z" id="Stroke-4" stroke="#4D5152" stroke-width="1.6"></path>
                            <path d="M38.7096774,33.0555556 C44.3548387,36.2407407 50,35.4444444 50,43.4074074 L50,45 L14.516129,45 L14.516129,43.4074074 C14.516129,35.4444444 20.1612903,36.2407407 25.8064516,33.0555556 L38.7096774,33.0555556 Z" id="Fill-5" fill="#65CDEF"></path>
                            <polygon id="Fill-6" fill="#FFFFFF" points="35.483871 36.2407407 32.2580645 34.6481481 29.0322581 36.2407407 25.8064516 33.0555556 27.4193548 30.6666667 28.2258065 30.6666667 28.2258065 27.4814815 32.2580645 28.2777778 36.2903226 27.4814815 36.2903226 30.6666667 37.0967742 30.6666667 38.7096774 33.0555556"></polygon>
                            <path d="M38.7096774,33.0555556 C44.3548387,36.2407407 50,35.4444444 50,43.4074074 L50,45 L14.516129,45 L14.516129,43.4074074 C14.516129,35.4444444 20.1612903,36.2407407 25.8064516,33.0555556" id="Stroke-7" stroke="#4D5152" stroke-width="1.6"></path>
                            <polygon id="Stroke-8" stroke="#4D5152" stroke-width="1.6" points="35.483871 36.2407407 32.2580645 34.6481481 29.0322581 36.2407407 25.8064516 33.0555556 27.4193548 30.6666667 32.2580645 31.462963 37.0967742 30.6666667 38.7096774 33.0555556"></polygon>
                            <path d="M36.2903226,27.4814815 L36.2903226,30.6666667" id="Stroke-9" stroke="#4D5152" stroke-width="1.6"></path>
                            <path d="M28.2258065,30.6666667 L28.2258065,27.4814815" id="Stroke-10" stroke="#4D5152" stroke-width="1.6"></path>
                            <path d="M31.4516129,41.8148148 L33.0645161,41.8148148" id="Stroke-11" stroke="#4D5152" stroke-width="1.6"></path>
                            <path d="M31.4516129,38.6296296 L33.0645161,38.6296296" id="Stroke-12" stroke="#4D5152" stroke-width="1.6"></path>
                            <path d="M39.516129,17.1296296 L39.516129,20.3148148 C38.7096774,25.8888889 36.2903226,27.4814815 36.2903226,27.4814815 C34.6774194,28.2777778 32.2580645,28.2777778 32.2580645,28.2777778 C32.2580645,28.2777778 29.8387097,28.2777778 28.2258065,27.4814815 C28.2258065,27.4814815 25.8064516,25.8888889 25,20.3148148 L25,17.1296296 L28.2258065,15.537037 L36.2903226,18.7222222 L39.516129,17.1296296 Z" id="Fill-13" fill="#FFFFFF"></path>
                            <path d="M25,17.1296296 C25,12.2921296 27.358871,9.96296296 32.2580645,9.96296296 C37.1572581,9.96296296 39.516129,12.2921296 39.516129,17.1296296 L36.2903226,18.7222222 L32.2580645,17.1296296 L28.2258065,15.537037 L25,17.1296296 Z" id="Fill-14" fill="#FFC469"></path>
                            <path d="M39.516129,17.1296296 L39.516129,20.3148148 C38.7096774,25.8888889 36.2903226,27.4814815 36.2903226,27.4814815 C34.6774194,28.2777778 32.2580645,28.2777778 32.2580645,28.2777778 C32.2580645,28.2777778 29.8387097,28.2777778 28.2258065,27.4814815 C28.2258065,27.4814815 25.8064516,25.8888889 25,20.3148148 L25,17.1296296" id="Stroke-15" stroke="#4D5152" stroke-width="1.6"></path>
                            <path d="M25,17.1296296 C25,12.2921296 27.358871,9.96296296 32.2580645,9.96296296 C37.1572581,9.96296296 39.516129,12.2921296 39.516129,17.1296296" id="Stroke-16" stroke="#4D5152" stroke-width="1.6"></path>
                            <polyline id="Stroke-17" stroke="#4D5152" stroke-width="1.6" points="25 17.1296296 28.2258065 15.537037 32.2580645 17.1296296 36.2903226 18.7222222 39.516129 17.1296296"></polyline>
                            <path d="M20.1612903,15.537037 C20.1612903,13.7780185 18.7169355,12.3518519 16.9354839,12.3518519 C15.1540323,12.3518519 13.7096774,13.7780185 13.7096774,15.537037 C13.7096774,17.2960556 15.3225806,17.9259259 16.9354839,18.7222222 C18.5483871,19.5185185 20.1612903,20.1483889 20.1612903,21.9074074 C20.1612903,23.6664259 18.7169355,25.0925926 16.9354839,25.0925926 C15.1540323,25.0925926 13.7096774,23.6664259 13.7096774,21.9074074" id="Stroke-18" stroke="#4D5152" stroke-width="1.6"></path>
                            <path d="M16.9354839,12.3518519 L16.9354839,9.96296296" id="Stroke-19" stroke="#4D5152" stroke-width="1.6"></path>
                            <path d="M16.9354839,25.0925926 L16.9354839,27.4814815" id="Stroke-20" stroke="#4D5152" stroke-width="1.6"></path>
                            <g id="Sales-Tools-icon"></g>
                        </g>
                    </g>
                </g>
            </g>
        </g>
    </g>
</svg>
