<?xml version="1.0" encoding="UTF-8"?>
<svg width="32px" height="50px" viewBox="0 0 32 50" version="1.1" xmlns="http://www.w3.org/2000/svg" xmlns:xlink="http://www.w3.org/1999/xlink">
    <!-- Generator: Sketch 52.6 (67491) - http://www.bohemiancoding.com/sketch -->
    <title>Time Saving</title>
    <desc>Created with Sketch.</desc>
    <g id="Desktop" stroke="none" stroke-width="1" fill="none" fill-rule="evenodd">
        <g id="ISV-Landing" transform="translate(-788.000000, -1944.000000)">
            <g id="Features-Section" transform="translate(-1.000000, 1611.000000)">
                <g id="Group-2" transform="translate(244.000000, 296.000000)">
                    <g id="5" transform="translate(485.000000, 0.000000)">
                        <g id="Time-Saving" transform="translate(61.000000, 38.000000)">
                            <path d="M2.36842105,44.9032258 L27.6315789,44.9032258 L27.6315789,41.0322581 C27.6315789,28.6451613 17.3684211,24.7741935 17.3684211,24.7741935 L17.3684211,23.2258065 C17.3684211,23.2258065 27.6315789,19.3548387 27.6315789,6.96774194 L27.6315789,3.09677419 L2.36842105,3.09677419 L2.36842105,6.96774194 C2.36842105,19.3548387 12.6315789,23.2258065 12.6315789,23.2258065 L12.6315789,24.7741935 C12.6315789,24.7741935 2.36842105,28.6451613 2.36842105,41.0322581 L2.36842105,44.9032258 Z" id="Shape" fill="#FFFFFF" fill-rule="nonzero"></path>
                            <rect id="Rectangle-path" fill="#00C3E5" fill-rule="nonzero" x="0" y="0" width="30" height="3.09677419"></rect>
                            <rect id="Rectangle-path" fill="#00C3E5" fill-rule="nonzero" x="0" y="44.9032258" width="30" height="3.09677419"></rect>
                            <path d="M2.36842105,44.9032258 L27.6315789,44.9032258 C27.6315789,44.9032258 26.0526316,34.8387097 15,34.8387097 C3.94736842,34.8387097 2.36842105,44.9032258 2.36842105,44.9032258 Z" id="Shape" fill="#89E872" fill-rule="nonzero"></path>
                            <path d="M8.68421053,44.9032258 L27.6315789,44.9032258 C27.6315789,44.9032258 26.0526316,34.8387097 15,34.8387097 C11.0526316,34.8387097 8.68421053,44.9032258 8.68421053,44.9032258 Z" id="Shape" fill="#43C125" fill-rule="nonzero"></path>
                            <rect id="Rectangle-path" stroke="#4D5152" stroke-width="1.548387" x="0" y="0" width="30" height="3.09677419"></rect>
                            <rect id="Rectangle-path" stroke="#4D5152" stroke-width="1.548387" x="0" y="44.9032258" width="30" height="3.09677419"></rect>
                            <path d="M3.15789474,13.1612903 C6.04125,19.494 12.6315789,24 12.6315789,24 L13.4210526,24 C13.4210526,24 10.2631579,17.0322581 10.2769737,13.1612903 L3.15789474,13.1612903 Z" id="Shape" fill="#89E872" fill-rule="nonzero"></path>
                            <path d="M26.8282895,13.1612903 L10.2768836,13.1612903 C10.2631579,17.0322581 13.4210526,24 13.4210526,24 L17.3684211,24 C17.3684211,24 23.9447368,19.494 26.8282895,13.1612903 Z" id="Shape" fill="#43C125" fill-rule="nonzero"></path>
                            <g id="Group" transform="translate(2.368421, 3.096774)" stroke="#4D5152" stroke-width="1.548387">
                                <path d="M25.2631579,41.8064516 L25.2631579,37.9354839 C25.2631579,25.5483871 15,21.6774194 15,21.6774194 L15,20.1290323 C15,20.1290323 25.2631579,16.2580645 25.2631579,3.87096774 L25.2631579,0" id="Shape"></path>
                                <path d="M0,0 L0,3.87096774 C0,16.2580645 10.2631579,20.1290323 10.2631579,20.1290323 L10.2631579,21.6774194 C10.2631579,21.6774194 0,25.5483871 0,37.9354839 L0,41.8064516" id="Shape"></path>
                            </g>
                            <rect id="Rectangle-path" fill="#F28C13" fill-rule="nonzero" x="14.2105263" y="25.5483871" width="1.57894737" height="1.5483871"></rect>
                            <rect id="Rectangle-path" fill="#F28C13" fill-rule="nonzero" x="14.2105263" y="28.6451613" width="1.57894737" height="1.5483871"></rect>
                            <rect id="Rectangle-path" fill="#F28C13" fill-rule="nonzero" x="14.2105263" y="31.7419355" width="1.57894737" height="1.5483871"></rect>
                        </g>
                    </g>
                </g>
            </g>
        </g>
    </g>
</svg>
