<svg xmlns="http://www.w3.org/2000/svg" width="65" height="64" viewBox="0 0 65 64">
    <g fill="none" fill-rule="evenodd">
        <path fill="#FFF" d="M54.116 18c0-6-5-12-10-12h-4v11h-27c-6.627 0-12 5.373-12 12s5.373 12 12 12h38c6.627 0 12-5.373 12-12 0-5.947-4-11-9-11"/>
        <path stroke="#4D5152" stroke-width="2" d="M16.116 17h-3c-6.627 0-12 5.373-12 12s5.373 12 12 12h16"/>
        <path stroke="#4D5152" stroke-linejoin="round" stroke-width="2" d="M27.116 49l-4-4-4 4M45.116 49l-4-4-4 4M36.116 59l-4 4-4-4"/>
        <path stroke="#4D5152" stroke-linejoin="round" stroke-width="2" d="M23.116 45v11h-23M41.116 45v11h23M32.116 44v19"/>
        <path fill="#89E872" d="M44.036 17a2.969 2.969 0 0 1 2.685-2.95 14.795 14.795 0 0 0-2.195-5.288 2.971 2.971 0 0 1-3.982-.19 2.971 2.971 0 0 1-.19-3.982 14.776 14.776 0 0 0-5.288-2.194 2.969 2.969 0 0 1-2.95 2.684 2.969 2.969 0 0 1-2.95-2.684 14.776 14.776 0 0 0-5.288 2.194 2.971 2.971 0 0 1-.19 3.982 2.971 2.971 0 0 1-3.982.19 14.776 14.776 0 0 0-2.194 5.288A2.969 2.969 0 0 1 20.196 17a2.969 2.969 0 0 1-2.684 2.95 14.776 14.776 0 0 0 2.194 5.288 2.971 2.971 0 0 1 3.982.19 2.971 2.971 0 0 1 .19 3.982 14.776 14.776 0 0 0 5.288 2.194 2.969 2.969 0 0 1 2.95-2.684 2.969 2.969 0 0 1 2.95 2.684 14.776 14.776 0 0 0 5.288-2.194 2.971 2.971 0 0 1 .19-3.982 2.971 2.971 0 0 1 3.982-.19 14.795 14.795 0 0 0 2.195-5.288A2.969 2.969 0 0 1 44.036 17"/>
        <path fill="#FFF" d="M34.116 17a2 2 0 1 1-3.999.001 2 2 0 0 1 4-.001"/>
        <path stroke="#4D5152" stroke-linejoin="round" stroke-width="2" d="M31.116 1h2M47.116 17h2M42.116 28h2M31.116 33h2M20.116 28h2M20.116 6h2M39.116 17a7 7 0 1 1-14 0 7 7 0 0 1 14 0z"/>
        <path stroke="#4D5152" stroke-width="2" d="M42.116 6h2c5 0 10 6 10 12 5 0 9 5.053 9 11 0 6.627-5.373 12-12 12h-16M13.116 35a6 6 0 0 1 0-12"/>
        <path stroke="#4D5152" stroke-linejoin="round" stroke-width="2" d="M31.116 41h2M31.116 37h2"/>
    </g>
</svg>
