<svg xmlns="http://www.w3.org/2000/svg" width="72" height="72" viewBox="0 0 72 72">
    <g fill="none" fill-rule="evenodd">
        <path fill="#65CDEF" d="M72 36c0 19.883-16.117 36-36 36C16.118 72 0 55.883 0 36 0 16.118 16.118 0 36 0c19.883 0 36 16.118 36 36"/>
        <path fill="#FFF" d="M30.128 25.997L29.06 24.93l-2.901 2.902-1.393-1.393-1.067 1.067 2.46 2.463 3.968-3.972zm3.514 1.545a6.697 6.697 0 0 1-6.698 6.697 6.697 6.697 0 1 1 0-13.394 6.697 6.697 0 0 1 6.698 6.697z"/>
        <path fill="#00B5E2" d="M47.601 26.088l-1.066-1.067-1.436 1.46-1.436-1.46-1.067 1.067 1.455 1.456-1.454 1.48 1.036 1.037 1.466-1.466 1.466 1.466 1.036-1.038-1.455-1.479 1.455-1.456zm4.151 1.453a6.697 6.697 0 1 1-13.394 0c0-3.7 3-6.697 6.697-6.697a6.696 6.696 0 0 1 6.697 6.697z"/>
        <path fill="#FFF" d="M30.128 42.914l-1.067-1.067-2.901 2.902-1.393-1.393-1.067 1.067 2.46 2.463 3.968-3.972zm3.514 1.545a6.697 6.697 0 0 1-6.698 6.697 6.697 6.697 0 1 1 0-13.394 6.697 6.697 0 0 1 6.698 6.697z"/>
        <path fill="#00B5E2" d="M47.601 43.005l-1.066-1.067-1.436 1.46-1.436-1.46-1.067 1.067 1.455 1.456-1.454 1.48 1.036 1.037 1.466-1.467 1.466 1.467 1.036-1.038-1.455-1.478 1.455-1.457zm4.151 1.453a6.697 6.697 0 1 1-13.394 0c0-3.7 3-6.697 6.697-6.697a6.696 6.696 0 0 1 6.697 6.697z"/>
    </g>
</svg>
