<svg xmlns="http://www.w3.org/2000/svg" width="198" height="85" viewBox="0 0 198 85">
    <path fill="#FF5E52" fill-rule="evenodd" d="M185.157 33.75c.014.14-.074.22-.26.239-.015-.14.071-.22.26-.24zm-55.226-1.143a.899.899 0 0 1-.29.309 1.338 1.338 0 0 0-.327.281 1.248 1.248 0 0 0-.39.36c-.082.126-.217.199-.404.218A36.055 36.055 0 0 1 127 35.242c-.5.453-1.053.947-1.662 1.482l-.007-.071c-.094.01-.135.061-.126.155-.13.108-.25.238-.35.39a1.425 1.425 0 0 1-.422.398c.083-.103.168-.195.256-.275.086-.08.123-.19.108-.33-.226.118-.421.29-.586.521-.167.23-.41.409-.728.535a1.85 1.85 0 0 0 .264-.204.698.698 0 0 0 .186-.268c.225-.116.443-.293.657-.528.212-.234.424-.48.636-.739l.14-.014-.372.535.33-.246-.007-.07c.22-.165.389-.37.506-.62-.179.114-.31.222-.393.324l-.015-.14c-.051-.042-.087-.038-.106.01-.018.05-.052.076-.097.081l-.443.542a1.88 1.88 0 0 1-.457.401c-.038.1-.146.205-.323.317l-.12.225a1.676 1.676 0 0 1-.29.278c-.111.083-.211.152-.3.208-.21.258-.436.494-.673.706-.24.214-.49.43-.753.645.337-.413.712-.806 1.125-1.18.41-.37.81-.766 1.194-1.185.084-.102.166-.217.25-.344a3.98 3.98 0 0 1 .248-.345c.108-.342.277-.525.513-.549.084-.103.079-.15-.014-.14a.532.532 0 0 0 .193-.198c.04-.074.132-.095.277-.063l-.007-.07.211-.022.632-.773c.21-.258.45-.472.717-.64-.01-.094-.003-.143.021-.145.023-.002.053-.052.091-.15a84.613 84.613 0 0 0 1.416-1.102 22.62 22.62 0 0 0 1.046-.888c.198-.176.412-.356.634-.536l-.468 1.447zm-.297 13.63a1.442 1.442 0 0 0-.135-.27c.196.075.306.206.325.392-.096.01-.158-.03-.19-.122zm-.262-12.478l.245-.183-.015.048c-.055.038-.13.082-.23.135zm-5.72 4.555c.13-.108.237-.226.32-.352a1.58 1.58 0 0 1 .318-.352l.007.07c-.2.352-.416.564-.645.634zm.497-1.4c.103.086.084.134-.056.148-.005-.046.014-.095.056-.147zm4.844 8.962l.127-.155c.047-.005.076.063.09.204-.093.01-.165-.007-.217-.049zm.105-.366c.014.14-.027.193-.127.154-.01-.092.033-.144.127-.154zm-.478.545a.435.435 0 0 1-.211-.333l.281-.028c.01.094.003.141-.02.143-.024.003-.033.028-.029.075-.004-.047.04-.076.134-.086.01.095.06.136.155.127-.08.15-.182.185-.31.102zm-.247-1.039c.06-.101.12-.107.176-.018.004.047-.017.073-.064.077-.046.005-.067.031-.062.078-.095.01-.112-.036-.05-.137zm-.12-.13l-.022-.21.211-.022c.01.094-.053.172-.19.232zm-11.4-15.43c-.24.427-.456.863-.648 1.308a.6.6 0 0 0-.143.334c-.013.12-.086.21-.221.27l.084.134c-.898 1.416-1.554 2.912-2.307 4.36-.753 1.45-1.754 3.224-2.765 4.462a.847.847 0 0 1-.234.485c-.13.132-.293.4-.425.509-.642.73-.623.82-1.188 1.47a30.345 30.345 0 0 1-2.576 2.543c-.056-2.204-.03-2.52.736-6.5.317-1.644.651-2.912 1.359-4.58.307-.693.726-1.86 1.103-2.586.377-.723.849-1.442 1.231-2.077.849-1.378.771-1.527 1.457-2.247.293-.308 1.898-1.055 2.264-1.187.446-.043 1.348.57 1.57.763.337.291.358.632.468.763.247.117.356.524.466.678.111.156.047.336.156.467-.149.395-.145.205-.386.63zm-10.429 19.8c-.381.18-1.519.23-1.977.157-.458-.073-.756-.293-.896-.66.471.193 1.9.29 2.85.293.15-.014.226.003.231.049.01.094-.06.147-.208.162zm7.582-1.531c-.018.05-.051.076-.097.08l-.323.317a.526.526 0 0 1 .154-.228c.065-.053.14-.132.225-.236.046-.005.06.018.041.067zm-1.369 1.047c-.222.14-.366.356-.43.646l-.007-.07c-.005-.046-.034-.09-.086-.133.168-.205.328-.388.479-.546.148-.157.964-1.014 1.086-1.216-.02.286-.819 1.178-1.042 1.319zm-.335 4.551c-.091.269-.229.635-.34.954-.109.318-.25.597-.339.89-.09.293-.244.618-.276.763-.327.98-.907 2.152-1.271 2.994a131.234 131.234 0 0 1-1.74 3.868c-.18.013-.358.029-.54.041-.85.057-3.32.31-4.223.333 3.31-4.805 8.993-10.36 8.993-10.36.01.093-.174.247-.264.517zm-6.221 14.99l-.364 1.112a.938.938 0 0 1-.15.264l-.158.194a.632.632 0 0 0-.043.288c.01.093-.026.191-.112.295l-.688.922c-.074.196-.148.393-.224.59-.075.197-.152.37-.23.52a2.123 2.123 0 0 1-.584.911c-.281.265-1.128 1.946-1.185 2.33a7.651 7.651 0 0 1-.445.507c-.13.13-.227.318-.299.563-.446.716-1.055 1.177-1.4 1.649-.602.82-.68 1.038-.68 1.038-.164.253-.588.734-.757.94a5.144 5.144 0 0 1-.764.735c-.088.056-.153.133-.232.165-.14.058-.478-.368-.66-.518-.108-.09-.205-.505-.268-.665-.063-.16.057-.583.038-.77-.043-.42-.071-.642.026-1.078.033-.145.05-.324.053-.537.002-.213.203-1.16.282-1.31.33-1.316.535-1.675 1.129-3.003.544-1.217.467-1.173 1.048-2.417.085-.104.166-.242.243-.415.077-.174.155-.336.234-.486.072-.244.122-.437.155-.583a.877.877 0 0 1 .176-.372l.19-.233c.036-.099.233-.152.224-.245-.01-.095.008-.168.05-.218.044-.12.098-.216.156-.303.848-.089 2.314-.07 3.099-.148.418-.075 1.194-.194 1.663-.186.215.003.56-.05.777-.068-.062.14-.22.37-.3.533zm-9.461 7.531c.03-.305.94-2.29 1.009-2.505.068-.219.147-.482.236-.791.018.178-.006.39-.071.638-.065.246-1.004 2.249-1.094 2.56l-.08.098zm-.153-6.166c-.153.132-.217.316-.193.552-.037.097-.03.156.018.175.05.018.055.077.018.176-.604 1.054-1.006 2.1-1.21 3.139-.201 1.037-1.363 4.116-1.447 5.166-.204.02-.339-.03-.407-.148a.291.291 0 0 1-.021.12c-.193-.502.115-1.603.246-1.947a5.08 5.08 0 0 0 .28-1.092l.643-1.708c.085-.104.157-.206.218-.306a1.82 1.82 0 0 0 .147-.3l-.036-.35c.071-.245.152-.502.242-.77.092-.27.195-.53.312-.777.07-.244.176-.48.319-.707.143-.227.25-.463.32-.706.22-.165.344-.344.372-.535.027-.192.083-.34.168-.443-.005-.047-.02-.069-.043-.067-.024.003-.04-.043-.05-.137a.947.947 0 0 1 .296-.243.25.25 0 0 0 .12-.14l.33-.034a6.528 6.528 0 0 0-.295.656c-.079.15-.195.291-.347.426zm-1.089 14.091l-.007-.07c-.004-.047-.019-.081-.046-.101a.154.154 0 0 1-.046-.103c-.037.099-.058.123-.063.077-.004-.046-.03-.067-.077-.062.023-.24.112-.296.267-.17.155.127.147.27-.028.43zm-1.806-2.686l-.124-.144.062-.104.082-.02a1.765 1.765 0 0 1-.187-.744c.002-.235.035-.448.104-.64.139.08.229.263.27.546.04.282-.015.472-.166.569.414.248.401.427-.041.537zm-.655-.804c.047.467.03.753-.055.857-.145-.033-.18-.136-.103-.309.079-.175-.001-.74-.068-.92l-.118.224c-.086-.843.093-2.012.268-2.62.176-.61.997-2.756 1.413-3.386l-1.036 2.741c-.271.92-.387 2.57-.3 3.413zm2.39-11.645c-.391.06-.758.088-1.1.078.36-.05.71-.107 1.054-.177.341-.067.712-.108 1.114-.124-.324.087-.68.16-1.068.223zm2.259-5.015c.01-.011.034-.046.066-.095.193-.019.395-.041.609-.068-.02.037-.039.074-.057.113-.02 0-.04.003-.061.003l-.688.058.13-.01zm.933-.195c.06-.008.127-.01.19-.016l.003.01.006-.01c.097-.01.192-.022.294-.026-.019.048-.036.099-.058.144-.031.003-.068.011-.097.014-.132.011-.274.013-.412.018.026-.044.05-.09.074-.134zM109.55 51.93c.063.067.06.134-.008.2-.07.062-.138.094-.203.091.002-.067.072-.164.211-.291zm.373-.586c.106-.13.227-.258.367-.386a.674.674 0 0 1-.166.394 4.028 4.028 0 0 1-.365.385.666.666 0 0 1 .164-.393zm1.09-.946l-.008.188c-.134-.005-.2.026-.203.092-.003.068-.074.132-.209.192.125-.173.268-.326.42-.472zm.052-.06l.467-.431c.128.139.091.22-.11.246-.201.026-.304.105-.309.238l-.098.063c.015-.014.034-.1.05-.115zm-21.89 18.948c.302-.026.589-.07.857-.13.263-.062.548-.105.854-.132-.815.244-1.387.33-1.712.262zm-1.829.157c-.04-.036.004-.069.139-.099.133-.03.24-.012.318.06l-.457.04zm-3.398.435c-1.826.31-2.575.596-4.287.857a137.42 137.42 0 0 0-5.247.912 5.03 5.03 0 0 1 1.365-.347 18.643 18.643 0 0 0 1.484-.243c1.333-.154 1.6-.365 2.846-.634 1.243-.27 2.53-.483 3.865-.634.038.034.029.065-.026.089zm-16.517 3.146c-.648.094-1.244.232-1.794.415.223-.25.514-.402.877-.452l1.085-.15c.322-.087.549-.144.682-.174.133-.032.439-.019.917.037-.53.121-1.12.232-1.767.324zM81.6 31.317l.142 1.405a7.082 7.082 0 0 1-.142-1.405zM77.34 44.173a1.178 1.178 0 0 0-.08.61c-.024.488-.166.79-.293 1.393-.129.606-.146 1.12-.431 1.575-.16.3-.287.71-.382.933-.096.223-.321.622-.488.828l.021.21c-.374.855-1 1.97-2.337 3.326-.743.741-1.866 1.544-2.49 1.696-.495.12-.764.084-1.047-.057-.622-.395-.254-2.077-.183-2.713.007-.072.393-.818.42-.886.017.025-.394 1.29-.355 1.32-.014-.14.44-1.449.487-1.454a.372.372 0 0 0-.087.02c.206-.522.278-.773.496-1.347l.007.07c.005.048.04.033.103-.045.063-.077.092-.139.087-.186.243-.403.486-.818.726-1.245.241-.426.55-.954.85-1.268-.005-.047.005-.072.028-.074.024-.003.033-.027.028-.074.225-.118.328-.27.31-.457.093-.01.136-.06.126-.155l.14-.015c.458-.613.973-.98 1.465-1.504.491-.522 2.727-2.34 3.247-2.82.065.184-.291 2.146-.368 2.319zm-8.813-4.923c.003.035-.007.065-.017.094l-.105.133-.166.104c.169-.24.33-.478.496-.718-.037.163-.1.298-.208.387zM32.595 50.33c-.072.84-.075 1.371-.09 1.976-.134-.474-.188-1.079-.155-1.934.032-.854.086-1.163.208-1.586l.187-.063c-.043.45-.078.767-.15 1.607zm2.513-8.996c.19-.68.46-1.324.816-1.927.352-.604.708-1.184 1.068-1.741.045-.052.063-.148.048-.289.368-.463.685-.921.95-1.374.265-.452.58-.91.95-1.373.41-.562.792-1.12 1.151-1.678.358-.557 1.509-1.58 2.036-2.014.045-.05.555-.328.607-.333.191.658.169 1.278-.297 3.025-.227.847-1.316 3.278-1.627 4.013l1.414-2.296c-.551 1.61-1.42 2.796-2.206 3.964-.79 1.169-1.834 2.216-2.99 3.09-.351.308-3.25 2.082-3.166 1.743.082-.325 1.048-2.369 1.246-2.81zM197.861 7.017c.149.056.178.113.089.169-.037.099-.132.225-.282.383-.15.157-.2.233-.154.228-.037.1-.14.145-.305.138-.167-.006-.245.037-.235.13-.1-.036-.157-.02-.174.053-.016.073-.076.068-.178-.017a2.273 2.273 0 0 1-1.136.364 4.5 4.5 0 0 0-1.22.23c-1.07.203-1.952.374-2.648.516-.696.142-1.553.335-2.57.58l-.88.09c-.304.03-.57.105-.794.221-.094.01-.154.005-.18-.017-.026-.02-.083-.003-.172.053-.094.01-.163.041-.204.092-.042.052-.11.082-.204.091a.394.394 0 0 1-.277.064.408.408 0 0 0-.278.064l-.422.042c-.141.014-.29.054-.45.117-.16.064-.284.124-.372.18.093-.01.2-.009.319.002.12.012.2-.007.243-.06-.028.193-.228.32-.6.381-.374.062-.698.13-.975.205a97.645 97.645 0 0 1-2.025 5.244 200.004 200.004 0 0 0-1.852 4.518 252.446 252.446 0 0 0-1.77 4.615 79.989 79.989 0 0 0-1.788 5.47c-.08.15-.15.275-.21.375-.062.102-.062.22 0 .355l-.112.295a31.098 31.098 0 0 1-1.103 3.484c-.395 1.01-.61 2.274-.646 3.791.005.048.016.047.036-.003.019-.049.03-.05.035-.003.005.047-.005.071-.028.074-.025.002-.033.027-.029.073.226-.117.56-.316 1.005-.599.445-.28.752-.525.921-.732-.047.005-.072-.003-.074-.028-.002-.022-.027-.032-.073-.028.317-.126.55-.291.695-.496a4.74 4.74 0 0 1 .54-.623c-.037.1-.076.185-.115.26-.04.075-.079.163-.115.26l.062-.077a.626.626 0 0 0-.04.289c.078-.15.171-.277.28-.384a.76.76 0 0 0 .203-.446l.175-.373c.595-.674 1.115-1.272 1.56-1.79.444-.518.961-1.138 1.552-1.861-.446.755-.938 1.385-1.479 1.888a9.236 9.236 0 0 0-1.484 1.819 19.428 19.428 0 0 0 1.615-1.583c.468-.52.95-1.137 1.446-1.85.079-.15.279-.407.597-.77.319-.363.668-.765 1.05-1.207.382-.44.73-.855 1.047-1.242.315-.387.512-.655.593-.805l.014.14a35.773 35.773 0 0 0 2.074-3.014 20.708 20.708 0 0 1 2.286-3.034c-.07.244-.169.442-.295.597l-1.257 1.618a6.148 6.148 0 0 0-.512.904 3.854 3.854 0 0 1-.519.833 9.082 9.082 0 0 0-.575.981c-.178.35-.347.674-.506.974a.902.902 0 0 0 .281-.383c.057-.148.125-.272.21-.377.337-.412.638-.833.903-1.262.263-.428.566-.826.91-1.192.37-.559.74-1.105 1.112-1.64.372-.534.772-1.011 1.204-1.434.108.13.108.25 0 .354-.107.107-.204.21-.288.314-.44.802-.916 1.583-1.431 2.345a156.12 156.12 0 0 1-1.58 2.29c-.037.098.028.044.197-.163.167-.205.346-.436.534-.692.187-.255.364-.486.534-.694.167-.205.233-.26.196-.161.047-.005.07-.018.067-.042-.003-.024.02-.038.067-.043-.085.105-.123.19-.115.26a.58.58 0 0 1-.046.253c.055.09.118.12.186.088.068-.03.127-.024.18.018.378-.465.653-.8.821-1.006.168-.206.34-.378.517-.514.174-.135.348-.295.52-.479.169-.182.446-.506.825-.97-.075.197-.177.36-.306.492-.129.131-.231.296-.305.492.13-.108.268-.263.415-.468.144-.203.305-.361.484-.475-.529.859-1.119 1.7-1.769 2.521a16.881 16.881 0 0 0-1.691 2.585c.224-.117.395-.3.512-.548.117-.248.259-.476.428-.682-.304.74-.62 1.364-.947 1.87a38.17 38.17 0 0 0-1.094 1.814c.093-.01.059.125-.102.401-.162.277-.196.41-.101.4-.038.1-.168.23-.387.394-.16.3-.437.708-.836 1.22a83.834 83.834 0 0 1-1.29 1.622l-1.329 1.625c-.421.516-.712.924-.87 1.224-.042.052-.052.089-.025.11.026.02.017.057-.024.108-.637.727-1.318 1.494-2.04 2.3a20.773 20.773 0 0 1-2.265 2.181.896.896 0 0 1-.367.25c-.16.063-.304.15-.436.258l-.407.183c-.136.06-.296.125-.477.19-.273.122-.693.177-1.264.164-.57-.013-.956-.08-1.157-.202-.497.239-.911.246-1.242.02a3.983 3.983 0 0 1-.82-.734l-.022-.21c-.402-.244-.572-.746-.508-1.51-.005-.046-.015-.046-.036.003-.017.05-.053.053-.104.01a3.495 3.495 0 0 1-.532-.69c-.144-.246-.21-.559-.203-.939a7.392 7.392 0 0 1-.157-2.255c.045-.95.229-1.939.55-2.966.141-.96.308-1.876.504-2.748l.108-.414a83.704 83.704 0 0 1-2.902 4.897 33.934 33.934 0 0 1-3.451 4.502l-.042.288c-.043.052-.098.2-.168.443-.342.366-.71.7-1.107.999-.395.3-.74.655-1.03 1.062-.041.052.008.071.15.056-.244.404-.7.71-1.364.92-.666.209-1.277.365-1.835.47a7.168 7.168 0 0 1-2.441.105c-.84-.105-1.451-.397-1.831-.88-.487-.139-.924-.474-1.31-1.002a6.654 6.654 0 0 1-.66-2.31 12.421 12.421 0 0 1-.05-1.817c-.259.407-.515.814-.792 1.227a3.75 3.75 0 0 1-.603 1.054l-.695.852c-.234.497-.623.985-1.165 1.467-.544.48-1.01.907-1.398 1.277-.127.154-.306.385-.534.693-.23.307-.462.472-.696.496-.048.005-.085-.016-.113-.06-.03-.044-.066-.064-.112-.06-.236.025-.416.102-.545.233-.129.13-.316.162-.559.093-.343.365-.806.46-1.393.283.619.031 1.012-.056 1.182-.262-.11-.131-.411-.196-.908-.192-.497.002-.933.024-1.308.061a5.385 5.385 0 0 1-.92-.651 5.574 5.574 0 0 1-.552-.548c-.105-.083-.19-.11-.257-.08-.068.03-.154.005-.257-.08-.056-.09-.075-.147-.053-.172.021-.026.005-.06-.046-.103l-.373-.175c-.052-.041-.108-.13-.17-.267a2.956 2.956 0 0 0-.176-.336c-.39-.575-.579-1.266-.565-2.072.012-.806.03-1.565.052-2.278.085-.102.127-.271.127-.509 0-.236.039-.43.118-.58-.103-.083-.115-.2-.035-.351.079-.15.16-.276.246-.38a.468.468 0 0 1-.077.292.57.57 0 0 0-.07.362c.233-.497.394-1.01.483-1.54-.1-.036-.145-.02-.138.05a.243.243 0 0 1-.051.183c-.115-.178-.058-.325.168-.443.18-1.958.516-3.767 1.012-5.426.494-1.659 1.013-3.32 1.554-4.984a135.314 135.314 0 0 0-3.914 5.542 54.423 54.423 0 0 0-3.448 5.921 15.159 15.159 0 0 0-1.46 2.774 15.223 15.223 0 0 1-1.46 2.774c-.023.24-.081.482-.174.728-.093.247-.15.512-.167.798-.053-.041-.086-.027-.103.045-.017.073-.029.064-.038-.03-.131.108-.19.231-.176.372l.05.492c-.099-.037-.161-.078-.19-.123-.029-.043-.092-.086-.19-.123a2.659 2.659 0 0 1-.688.922l-1.217-.09c-.042.052-.049.112-.017.18.03.067.09.073.179.016l.014.14c.01.095.06.126.152.092.091-.033.142-.002.151.091-.329.034-.541-.075-.637-.326a2.056 2.056 0 0 0-.462-.698.473.473 0 0 0-.27.133c-.087.08-.18.102-.278.064-.145-.032-.266-.161-.36-.389-.093-.227-.216-.38-.366-.46.037-.098.083-.126.134-.084.051.042.08.087.085.133.037-.099.025-.215-.036-.351a.889.889 0 0 0-.247-.33c.14-.014.183-.065.126-.155-.051-.041-.121-.034-.21.021-.09.057-.163.041-.219-.048.145.032.26-.003.344-.106-.245-1.016-.318-1.979-.222-2.888a.442.442 0 0 1 .046-.253.433.433 0 0 0 .046-.253 35.64 35.64 0 0 1 1.4-6.14c.121-.368.236-.731.357-1.099-.01.008-.02.018-.03.025-.304.269-.584.533-.842.796l-.805.826c-.279.289-.631.667-1.056 1.137l.007.07a.636.636 0 0 1-.386.394l-.64.703.498-.689a1.98 1.98 0 0 0-.723.57c-.211.26-.45.471-.717.64.117.226.12.38.011.46-.11.083-.207.176-.29.28a.337.337 0 0 1 .08-.257.949.949 0 0 0 .15-.265c-.309.221-.59.486-.842.796a12.96 12.96 0 0 1-.765.858l.014.14c-.081.15-.233.285-.457.401a.463.463 0 0 1 .19-.232c.088-.055.128-.13.118-.225a1.14 1.14 0 0 0-.26.24l-.252.31c.005.047-.001.118-.014.214-.015.096-.068.149-.162.158l-.014-.14-.007-.071-.45.472c-.023.24-.212.472-.568.696-.357.226-.53.386-.52.479.146.032-.015.203-.481.51-.467.308-.787.54-.96.7.051.043.075.159.07.348a4.04 4.04 0 0 0 .001.355l-.19.232a94.724 94.724 0 0 0-1.517 5.69 98.55 98.55 0 0 1-1.735 6.35c-.174.633-.37 1.256-.593 1.87-.222.615-.444 1.218-.669 1.808l-.239.45c.005.046.032.079.082.098.048.019.029.056-.06.113.01.093-.007.165-.049.218a.748.748 0 0 0-.12.224c-.067.234-.146.467-.233.703.306-.023.613-.04.919-.045.944-.012 1.721-.123 2.326-.329l-.026.09c.382.043.61.024.686-.059 1.772-.132 3.654-.22 5.65-.265 1.995-.045 3.708-.06 5.142-.048a.504.504 0 0 1 .373-.004.502.502 0 0 0 .372-.002c.15-.014.446-.009.89.011.437.02.89.034 1.36.043.465.008.911.013 1.332.016.419.003.705-.002.86-.015 0 0 .627.017 1.073.019.446.003 1.634.07 1.982.04.348-.029 1.388-.024 2.132-.02.743.003 1.783.07 3.421-.045 1.639-.115 1.334.055 1.334.055.134.046.122.13-.038.249-.16.12-.296.204-.409.252a.773.773 0 0 1-.162.303c-.076.084-.034.196.123.337-.014.213-.168.434-.456.661-.292.228-.338.43-.141.607l-.183.623-.33.607a.628.628 0 0 1-.314.056.619.619 0 0 0-.312.056c-1.043.339-1.963.563-2.762.67-.8.106-1.665.228-2.597.367-1.852.06-3.687.116-5.51.165-1.822.05-3.602.158-5.335.326-.48-.056-1.01-.102-1.594-.14a5.768 5.768 0 0 0-1.672.128 5.65 5.65 0 0 0-1.703-.013c-.621.082-1.226.118-1.817.112-2.043.038-4.05.168-6.021.384-.151.016-.3.028-.45.044-.14.282-.28.563-.418.845.055-.304.123-.576.203-.824l-.096.01c-.078.2-.182.479-.317.836-.091.055-.064.077.076.063l.141-.014c.061.135.1.274.113.414l-.077-.063c-.08.15-.133.32-.16.513a.64.64 0 0 1-.31.457c-.168.206-.27.383-.301.528a3.177 3.177 0 0 1-.225.59 5.98 5.98 0 0 0-.73 1.565c-.158.536-.482.971-.968 1.305-.023.238-.84 1.87-1.094 2.179-.356.225-.553.493-.593.805-.038.311-.188.598-.445.862l-.07.007a3.5 3.5 0 0 1-.797 1.252c-.344.342-.684.719-1.022 1.132-.046.005-.06-.018-.043-.066.02-.05.006-.072-.041-.067-.123.2-.526 1.063-.532 1.23-.007.166-.08.28-.215.342-.21.257-.494.147-.853.35-.359.202-.594.451-.707.746l-.211.021c-.046.005-.072-.017-.077-.063l.007.07c-.131.107-.388.253-.773.434-.384.18-.807 1.008-1.27 1.126-.46.118-.902.537-1.325.58-.422.043-.736.318-.942.15-.037.099-.021.144.048.138.071-.008.109.012.113.059-.088.055-1.633-.24-1.913-.212-.323.08-.967-.216-1.25-.21a.987.987 0 0 1-.743-.316c.028-.193-.129-.348-.25-.48-.391-.425-.758-1.294-.758-1.294-.07-.23-.067-.423-.311-.493s-.083.144-.196-.033c-.043-.421-.188-.458-.435-.787-.246-.33-.313-.643-.201-.938-.014-.14-.012-.236.007-.285a.313.313 0 0 0 .02-.144c.071-.244.086-.447.045-.607a1.843 1.843 0 0 1-.025-.601 4.97 4.97 0 0 1 .108-.497c-.077-.092-.096-.17-.058-.236.04-.066.333-.968.32-1.02l.102-.025.048-.18c-.122.036-.181.077-.17.124-.147-.132-.162-.256-.05-.37.114-.113.158-.223.132-.33.12.026.152.103.099.23a.3.3 0 0 0 .007.279c.026-.104.049-.2.063-.277.09-.506.888-2.337 1.032-2.777l.112-.295-.119.225c.014-.333.092-.613.234-.84.144-.227.196-.529.157-.903l.135-.085a.62.62 0 0 0 .143-.334.329.329 0 0 1 .15-.263c-.07-.231-.053-.42.048-.573.104-.153.196-.304.275-.453l-.015-.141c.122-.202.207-.411.257-.63a1.49 1.49 0 0 1 .216-.476c-.804.075-1.587.14-2.345.195-.915.078-.05.173-.801.285-.753.113-1.578.179-2.474.197-.61.053-1.209.15-1.796.298a8.646 8.646 0 0 1-1.856.246l-2.57.276c-.897.096-1.726.177-2.487.243-.206.19-.55.312-1.037.363a4.213 4.213 0 0 0-.1.011c.001-.01-.023-.022-.099-.038a8.408 8.408 0 0 0-1.94.282l-.882.22-.086.036c-.533.122-1.107.225-1.723.307a84.62 84.62 0 0 0-1.784.253c-.08-.071-.14-.085-.174-.043-.038.042-.096.027-.174-.043l.857-.13c-1.032-.028-1.764.101-2.196.388.531-.122.976-.208 1.34-.258-.63.148-1.257.286-1.885.432.118-.04.225-.09.315-.153-.304.025-.598.06-.883.104-.285.043-.446.124-.48.244.113-.048.321-.087.626-.112.131-.011.246-.037.355-.067-1.53.354-3.059.71-4.583 1.05a86.576 86.576 0 0 0-6.53 1.73c-.056.025-.158.12-.306.287-.057.025-.106.018-.144-.017-.04-.035-.115-.028-.23.02-.151.013-.197.047-.14.1.06.052-.027.05-.259-.008-.548.182-1.114.424-1.7.725-.49.157-1.062.375-1.714.653-.65.277-1.194.559-1.626.848.035-.12.082-.19.138-.214-.282.12-.415.226-.392.322l-.085.036-.058-.052a.468.468 0 0 1-.27.153c-.104.018-.116.063-.038.133a.19.19 0 0 0-.112.126c-.147.167-.158.327-.03.48.128.153.117.312-.031.48a.47.47 0 0 1-.149-.248c-.022-.095-.1-.165-.235-.212a2.965 2.965 0 0 1-.193.278.675.675 0 0 1-.226.135c.122.26.2.5.235.719.034.218-.051.423-.257.615a3.458 3.458 0 0 1-.845-.536l-.617-.555c-.204.19-.265.36-.186.508.081.147.142.315.186.505-.192-.023-.328-.069-.406-.139-.079-.07-.202-.07-.372.002a3.006 3.006 0 0 1-.252-1.41c.037-.458.124-.847.27-1.167-.134-.048-.173-.044-.115.009.059.053.012.085-.139.099-.022-.096.029-.181.15-.259.12-.078.104-.188-.053-.33-.094-.01-.14.023-.14.1.003.077-.092.103-.284.082a10.13 10.13 0 0 1 1.228-1.769c.49-.573 1.112-1.123 1.862-1.65.115-.049.176-.05.187-.002.01.047.045.058.1.035.019-.06.002-.092-.044-.097-.05-.006-.082-.056-.106-.15.193.021.315-.018.369-.119.057-.101.215-.183.481-.243-.134-.048-.225-.035-.272.037-.046.07-.163.095-.356.074a21.263 21.263 0 0 1 3.732-1.94 46.44 46.44 0 0 1 4.427-1.536c.261-.216.593-.33.995-.346.056-.024.238-.05.543-.075.321-.087.648-.186.979-.3a5.23 5.23 0 0 1 1.04-.248l-.06-.054a.437.437 0 0 1 .229-.018.438.438 0 0 1 .23-.02c.321-.087.615-.16.88-.22.267-.062.58-.118.942-.167a.97.97 0 0 1 .284-.083.977.977 0 0 0 .284-.082l-.77.094c.208-.037.44-.108.696-.218.256-.109.478-.153.67-.13a.608.608 0 0 1 .312-.055c-.079-.072.028-.09.315-.056.113-.048.245-.079.4-.092l.084-.035c.104-.02.19-.056.286-.083a6.477 6.477 0 0 0-.972.14c-.476.098-.893.172-1.256.224.266-.062.618-.16 1.054-.293.41-.127.818-.15 1.22-.085.078-.024.166-.038.236-.068.226-.096.72-.178 1.483-.243.36-.05.71-.095 1.042-.131.334-.04.556-.082.67-.13.113-.049.36-.128.739-.238.38-.11.7-.195.968-.256a.89.89 0 0 1-.33-.015.256.256 0 0 0-.187.001c.017-.059.098-.081.242-.063.143.016.29.018.444.005l.085-.036a.607.607 0 0 1 .314-.056c.056-.024.294-.075.711-.148l1.542-.19a6.138 6.138 0 0 1 1-.114c-.497.003-.774.018-.829.041.17-.072.359-.126.57-.163a8.99 8.99 0 0 1 .528-.03c.2-.008.375-.019.53-.031l-.086.036 1.236-.338a.457.457 0 0 1 .228-.02c.36-.05.675-.105.942-.167.264-.06.424-.103.483-.128.055-.023.262-.046.613-.066.353-.021.73-.039 1.132-.053.399-.015.923-.032 1.572-.048.057-.024.286-.082.684-.174.4-.093.75-.15 1.055-.178a.76.76 0 0 1 .726-.191.997.997 0 0 0 .784-.14.194.194 0 0 1-.112.126l.67-.083c-.004-.002-.01 0-.012-.003-.004-.003-.011-.002-.017-.003.955-.157 1.908-.3 2.854-.427.981-.132 1.608-.22 2.562-.263.04.036-.004.054-.128.055-.123 0-.194.031-.212.09l-3.802.441 1.514-.1c.419-.075.488-.119.89-.134.36-.05.731-.091 1.116-.124.379-.032.749-.074 1.113-.124l-.059-.053c.114-.048.266-.061.456-.039.095.011.2-.006.315-.055l.17-.073c.19.023.367.012.53-.03.159-.044.334-.053.528-.03a.596.596 0 0 0-.313.054c.054-.024.178-.025.372-.002.016-.06.054-.1.112-.126.186-.132 1.03-1.784 1.34-1.656-.02.06-.052.13-.157.368-.032.074-.541.92-.752 1.249.21-.054.422-.097.633-.128.143-.28.296-.543.467-.77a48.977 48.977 0 0 0 1.517-2.299c-.262.6-1.4 2.456-1.719 3.034.034-.003.228-.042.263-.045-.01-.043.1-.097.125-.127.043-.052.24-.366.32-.515.014.146-.166.494-.241.621l.382-.056c.141-.255.326-.54.414-.66 1.355-1.866 2.665-3.528 3.703-4.894.622-.82 1.772-2.382 2.387-2.975l-1.368 2.155c.954-1.327 2.138-2.737 3.416-4.145 1.278-1.406 2.791-2.684 3.859-3.834.046-.004.09-.033.133-.084l.19-.233c.041-.05.086-.079.133-.084.285-.455.71-.882 1.1-1.253a1.26 1.26 0 0 0 .316-.387c.261-.215.406-.42.434-.611.22-.354.527-.41.804-1.296.022-.239.703-2.846.76-3.231.054-.384.096-.672.124-.865l-2.568 3.545c-.117.249-.687.784-.81.985-.12.202-.269.382-.44.541-.339.414-.656.788-.953 1.126a6.992 6.992 0 0 1-.973.915c-.352.273-.71.475-1.075.606-.367.133-.73.286-1.09.466l-.681.281a5.615 5.615 0 0 0-.377.145c-.068.03-.168.099-.298.207-.221.165-1.135.306-1.383.427-.248.119-.502.074-.759-.136l-.247-.33-.281.028c-.15-.079-.51-.29-.65-.513a4.092 4.092 0 0 0-.452-.593c-.21-.215-.253-.33-.55-.465a2.134 2.134 0 0 1-.771-.597l-.213-.688c-.117-.224-.221-.439-.313-.642a5.645 5.645 0 0 1-.244-.65 2.683 2.683 0 0 1-.008-.425c.01-.143.027-.333.05-.573.056-.383.07-.692.047-.927.025-.52.077-1.017.148-1.498a73.32 73.32 0 0 1-.67 1.065c-1.022 1.594-1.493 3.096-2.772 4.503l-.041.288c-.043.052-.099.2-.168.442-.343.367-.711.7-1.107 1-.396.3-.74.655-1.03 1.062-.042.05.008.07.15.057-.244.402-.7.71-1.365.918-.666.21-1.277.366-1.834.47a7.17 7.17 0 0 1-2.441.105c-.841-.104-1.452-.397-1.831-.879-.487-.139-.924-.474-1.31-1.003a6.664 6.664 0 0 1-.66-2.31 12.547 12.547 0 0 1-.004-2.484c.082-.836.221-1.666.422-2.492.2-.824.43-1.605.685-2.34.103-.39.166-.578.227-.915.06-.337.295-.867.446-1.262.248-.804.068-.184.392-.996-.102.03-.213.06-.344.09l-.296.132c-.239-.023-.124 0-.467.13-.341.13-.625.253-.85.37l-3.03 1.435c.098.038.603-.084.645-.136.041-.051.109-.082.204-.092-.212.259-.912.554-1.231.657-.322.104.032-.018-.179.24-.103-.083-.149-.079-.14.014.01.095-.032.145-.126.155l-.17 1.34c.04-.051.058-.124.049-.218.102.085.121.154.056.207-.065.054-.096.105-.092.151-.065.291-.092.483-.082.576l-.126.156c-.09.53-.19 1.06-.3 1.591a42.46 42.46 0 0 1-.372 1.6c-.145.44-.057 1.133-.237 1.459-.18.327-.193.678-.342 1.072-.108.342-.248 1.434-.408 1.71-.162.276-.322.564-.481.864-.164.255-.312.541-.445.862-.012.03-.03.055-.042.084 0 0-.062.083-.187.116a.893.893 0 0 0 .176-.372c.031-.145.088-.293.168-.443.084-.103.165-.23.246-.38.079-.15.165-.327.057-.457-.207.304-.473.676-.658.954-.185.28-.335.796-.493 1.096-.23.07-.357.177-.454.375a4.192 4.192 0 0 1-.399.66c-.046.004-.071-.018-.076-.063-.207.304-.43.563-.668.777-.24.213-.951 1.41-1.17 1.575-.096.01-.12 0-.075-.029.044-.028.04-.063-.01-.105a.297.297 0 0 0-.342.141c-.082.126-.198.15-.348.07-.173.16-.727.522-.944.71-.218.187-1.99.652-2.271.68-.048.006-.066.054-.056.149-.119-.225-.304-.423-.522-.234-.219.187-.383.192-.496.014l.408-.183c-.104-.085-.222-.084-.355 0-.133.085-.32.116-.56.093-.103-.085-.14-.093-.108-.024.03.067.021.104-.025.109a3.212 3.212 0 0 1-.541-.088 3.677 3.677 0 0 0-.471-.094c.308.253.724.376 1.244.37.086.033-.211.138-.773.08a.908.908 0 0 1-.598-.295.906.906 0 0 0-.599-.295c-.042.051.056.1.06.146.006.047-.16.03-.263-.054 0 0-.224-.217-.344-.32a2.142 2.142 0 0 0-.39-.28c.037-.1.044-.147.02-.145-.023.002-.04-.383-.049-.476-.09.056-.106.117-.052.183.054.065.032.079-.068.042a1.647 1.647 0 0 0-.116-.45 2.132 2.132 0 0 1-.111-.464 1.81 1.81 0 0 1-.055.233 3.773 3.773 0 0 1-.093-1.623c.088-.53.59-2.185.739-2.579l-.015-.14.07-.008c.28-.974.671-1.901 1.175-2.78a18.275 18.275 0 0 1 1.702-2.48c.332-.459.486-.687.464-.685-.025.002-.173.171-.446.506-.276.336-.607.796-.997 1.379a25.53 25.53 0 0 0-1.127 1.852c-.36.653-.673 1.3-.94 1.942-.266.642-.736 1.902-.73 2.42-.018.287-.026.56-.024.82.003.259.02 1.017.138 1.242.123.272.195.524.22.76-.302-.16-.45-.929-.533-1.275a6.362 6.362 0 0 1-.153-1.156c-.018-.423.01-.84.086-1.25.077-.41.488-1.439.553-1.73.09-.055.13-.119.122-.19-.007-.07.032-.156.117-.26a1.06 1.06 0 0 0 .182-.302.809.809 0 0 1 .252-.31c.22-.636.526-1.235.92-1.796.392-.56.798-1.12 1.214-1.685a34.622 34.622 0 0 1 3.16-3.514c1.143-1.11 3.373-2.809 4.652-3.743l-.028-.281c-.62.442-2.23 1.581-2.797 2.065-.567.483-1.157.969-1.77 1.456a.763.763 0 0 1-.383.43c-.182.09-.306.256-.376.5a1.28 1.28 0 0 0-.292.277l-.284.349c-.211.258-.478.545-.8.861a5.226 5.226 0 0 0-.731.855 25.353 25.353 0 0 0-1.468 1.994 21.248 21.248 0 0 0-1.242 2.114c.072-.244.187-.504.347-.781.161-.276.302-.538.418-.788-.047.005-.09.057-.126.155a.806.806 0 0 1-.12.225l.176-.373c.289-.407.587-.863.891-1.367.304-.503.65-.942 1.04-1.312a5.718 5.718 0 0 1 1.169-1.432 9.185 9.185 0 0 0 1.31-1.446 85.18 85.18 0 0 0 1.893-1.647c.563-.506 2.286-1.717 3.13-2.276a17.367 17.367 0 0 1 .114-1.68c.024-.215.035-.465.03-.748a13.444 13.444 0 0 0-.071-1.058c-.057-.088-.058-.217-.004-.39.053-.17.044-.37-.026-.6-.048.005-.097-.013-.148-.056.084-.102.103-.27.056-.502a1.653 1.653 0 0 0-.189-.549c-.052-.041-.216-.938-.226-1.032-.064-.1.255-.72.113-.445-.495.558-8.249 12.966-12.408 17.856l-1.24 1.323c-.043.052-.051.089-.025.11.025.02.017.057-.024.108-.637.728-1.468 1.392-2.19 2.198a20.748 20.748 0 0 1-2.267 2.181.886.886 0 0 1-.364.25 1.58 1.58 0 0 0-.437.258l-.407.183a7.26 7.26 0 0 1-.479.19c-.272.122-.692.177-1.262.164-.57-.014-.956-.08-1.157-.202-.497.238-.911.245-1.241.019a3.947 3.947 0 0 1-.821-.733l-.022-.211c-.403-.243-.573-.746-.508-1.51-.005-.046-.017-.044-.035.004-.019.049-.054.053-.106.01a3.563 3.563 0 0 1-.532-.69c-.142-.246-.21-.558-.202-.94a7.39 7.39 0 0 1-.158-2.254c.046-.95.23-1.94.552-2.966.14-.96.306-1.876.502-2.748l.042-.16c-.086.164-.2.316-.362.452a1.438 1.438 0 0 0-.411.54c-.234.26-.456.496-.668.705a1.703 1.703 0 0 0-.436.683l-.077.008c.01.095.001.143-.025.145-.026.002-.034.05-.024.145l-2.508 2.88c-.918 1.182-2.03 2.347-3.34 3.497a24.557 24.557 0 0 1-4.097 2.934c-.448.188-.906.4-1.375.636-.47.236-.953.452-1.452.645-.256.026-.4.157-.426.397a4.18 4.18 0 0 0 1.6-.339c.496-.216.99-.467 1.48-.753a28.674 28.674 0 0 0 3.81-2.693 65.405 65.405 0 0 0 3.32-2.927.777.777 0 0 1-.332.566 1.175 1.175 0 0 0-.416.503l-2.998 2.646a7.21 7.21 0 0 0-.797.578c-.336.271-.628.466-.874.585-.686.4-1.37.813-2.052 1.238-.684.423-1.512.708-2.481.854-.36.036-1.062.346-1.612.324-.53-.021-.462.139-.976.19-.307.032-.712.067-.973.047a24.95 24.95 0 0 1-1.022-.11c-.417-.005-.913-.212-1.465-.382-.517-.159-.905-.419-1.306-.628-.705-.367-.835-1.021-1.346-1.703-.509-.681-.617-1.401-.82-2.374-.141-.364-.227-1.018-.17-1.23.096-.364-.01-.478-.1-.848l.1-.523v-.01c-.402.128-.686.22-.821.293l-.551.196c-1.114.393-2.072.753-3.308 1.145-.667.211-2.944 1.023-3.248.951l2-.804c.343-.146.614-.185.893-.363.28-.178.58-.319.9-.422a9.183 9.183 0 0 0 1.03-.516c.344-.2.667-.382.967-.55a.92.92 0 0 0-.45.172c-.13.095-.257.162-.387.204-.513.164-.808.153-1.27.372-.46.219-.937.39-1.43.512l-1.047.33c.858-.364 2.04-1.126 2.918-1.48.087-.063.002-.052-.256.03-.256.082-.535.18-.835.295-.3.113-.579.211-.836.294-.256.082-1.354.542-1.268.479.32-.257-.96.299-.942.283.26-.205.737-.331.887-.408.13-.042 1.115-.42 1.148-.484a.594.594 0 0 1 .178-.19c.003-.106-.035-.165-.11-.176-.074-.013-.121-.05-.142-.114l-1.253.402a3.329 3.329 0 0 1-.722.152 4.28 4.28 0 0 0-.705.12c-.245.062-.659.185-1.237.37.173-.126.35-.21.532-.25.181-.04.359-.124.53-.25a2.49 2.49 0 0 0-.61.17c-.235.092-.46.138-.674.136a41.928 41.928 0 0 1 2.96-1.254c1.051-.402 1.884-.796 2.796-1.177-.255-.024-.662.066-.974.152-.267.073-.98.29-1.238.372.667-.461 1.766-.926 2.332-1.156 1.191-.487 2.604-1.12 3.158-1.347l1.374-.607c.127-.726.294-1.491.493-2.153.213-.707.467-1.407.76-2.1.622-1.53 1.108-2.773 1.977-4.163.87-1.389 1.756-2.744 2.66-4.067.232-.26.427-.515.584-.768.155-.253.35-.508.582-.77-.01-.093-.002-.141.024-.144.027-.002.035-.05.025-.144.097-.057.212-.21.342-.46.065.134.028.28-.111.437.102-.01.162-.063.178-.161a.436.436 0 0 1 .095-.222c.106.037.123.07.049.101-.075.032-.108.095-.098.187.429-.373.838-.805 1.23-1.295.39-.489.806-.873 1.244-1.156l-.029-.28c.256-.026.42-.079.49-.156.07-.078.21-.103.42-.078a4.777 4.777 0 0 1 1.881-1.398c.297-.124.58-.14.85-.05.269.091.582.118.942.082l.511.445c.304-.077.666-.08 1.09-.004.422.076.675.275.76.597.056.042.096.05.12.023.022-.025.065.006.125.094.478.615 1.083 1.807 1.108 2.822.024 1.015.132 2.152-.08 3.12a5.697 5.697 0 0 1-.268.808 8.53 8.53 0 0 0-.276.738c-.116.39-.255.807-.417 1.249a9.568 9.568 0 0 1-.572 1.264l-1.312 2.404c-.446.709-.674 1.022-1.151 1.684-.476.664-.954 1.21-1.428 1.636l-2.204 1.817c-1.974 1.505-4.34 2.392-5.598 2.833 0 0-.584 2.657.458 5.694 1.232-.169 2.084-.887 3.12-1.418 1.034-.53 1.937-1.094 2.706-1.693a63.44 63.44 0 0 0 2.18-1.89c.737-.665 1.438-1.291 2.105-1.88l.21-.235a.973.973 0 0 0 .418-.468 1.11 1.11 0 0 1 .342-.46c.378-.37.767-.74 1.171-1.113a9.892 9.892 0 0 0 1.087-1.175.128.128 0 0 0 .109-.081c.02-.05.078-.103.177-.16.256-.547.63-.94 1.126-1.18a61.406 61.406 0 0 0 2.594-3.563 66.897 66.897 0 0 0 2.404-3.899c.266.068.425-.03.475-.297.052-.264.147-.475.286-.631.084-.197.172-.348.266-.453l.28-.312c.045-.052.074-.15.086-.293.011-.143.065-.243.165-.3a.465.465 0 0 1 .292-.173.247.247 0 0 0 .217-.163c.065-.385.141-.653.23-.804l.14-.156.308-.032c.06.09.059.197-.007.32-.064.126-.144.24-.238.343-.018.334-.08.625-.182.871-.07.166-.128.373-.18.599.39-.996.806-2.05 1.253-3.168l-.021-.212c.069-.242.105-.352.108-.33l.01.106c.006.047.009.082.011.105.003.024.038-.086.11-.33.157-.3.382-.772.672-1.417.29-.644.588-1.325.894-2.042.306-.716.592-1.396.859-2.039.266-.641.479-1.114.639-1.413a3.378 3.378 0 0 1-.842.12 3.502 3.502 0 0 0-.84.12l1.315-.346c.084-.102.176-.134.274-.098.099.038.19.006.275-.1l-.007-.07c-.005-.045-.032-.067-.078-.062-1.2.311-2.473.605-3.818.883a37.784 37.784 0 0 0-3.945 1.039c.056.09.142.116.257.08.114-.034.218-.057.312-.067l3.67-.94c-.046.006-.067.02-.065.043.002.024-.021.037-.067.042-.047.005-.16.064-.337.176l-2.637.622c-.325.08-.636.16-.936.236-.3.08-.617.111-.95.097l-.014-.14c-.052-.041-.123-.034-.211.021a.62.62 0 0 1-.274.099.441.441 0 0 1 .302-.173c.117-.012.142-.109.078-.292-.096.01-.129.038-.1.081.03.045-.004.072-.097.081-.095.01-.134-.022-.117-.094.017-.073-.02-.08-.108-.025-.231.07-.453.094-.669.068a1.135 1.135 0 0 0-.66.138c.084-.103.144-.322.181-.657.037-.335.1-.53.189-.587.182-.066.339-.164.467-.296.13-.13.237-.225.328-.282.36-.178.724-.31 1.095-.395.37-.084.763-.194 1.175-.332a47.078 47.078 0 0 1 3.706-.943 42.547 42.547 0 0 0 3.91-1.035c.35-.745.648-1.414.898-2.007a46.68 46.68 0 0 1 .75-1.709c.252-.546.501-1.115.75-1.708.247-.593.52-1.283.82-2.07a2.27 2.27 0 0 0 .232-.166c.065-.054.142-.109.232-.166.042-.05.058-.123.049-.218.234-.023.354-.118.362-.285.006-.165.129-.237.369-.214.2.121.472.224.812.307.34.085.627.115.862.091.118.225.284.35.5.375.216.026.402.101.556.228l.557.582c.215.262.335.51.36.745a.659.659 0 0 0-.137.403.539.539 0 0 1-.207.412c-.243.876-.56 1.725-.949 2.545-.39.82-.754 1.673-1.09 2.559l4.12-.701c1.398-.236 2.68-.437 3.847-.603 1.167-.165 2.533-.257 4.095-.273.238.024.451.025.64.006a.477.477 0 0 1 .443.168c-.09.056-.06.112.089.168.147.056.176.114.087.17-.038.099-.13.225-.28.382-.15.157-.203.234-.155.23-.038.098-.14.144-.306.137-.167-.007-.245.036-.236.13-.098-.037-.155-.02-.171.053-.018.072-.077.067-.18-.017a2.266 2.266 0 0 1-1.136.363c-.4.017-.807.094-1.22.23-1.069.204-1.95.375-2.647.516-.697.143-1.554.336-2.57.58-.282.03-.575.059-.88.09-.306.03-.57.105-.795.222-.094.01-.153.005-.179-.017-.026-.02-.084-.003-.172.053-.094.009-.162.04-.204.092-.042.051-.11.082-.204.091a.395.395 0 0 1-.278.064.406.406 0 0 0-.278.063l-.422.043c-.14.014-.29.054-.45.117-.16.064-.284.124-.372.179.093-.01.2-.008.32.003.118.013.2-.008.243-.06-.03.192-.23.32-.601.38-.374.063-.697.131-.974.206a97.623 97.623 0 0 1-2.026 5.244 188.69 188.69 0 0 0-1.85 4.517 243.143 243.143 0 0 0-1.77 4.616 79.235 79.235 0 0 0-1.79 5.469c-.08.15-.15.276-.21.376-.06.102-.06.22 0 .355l-.112.295a30.84 30.84 0 0 1-1.103 3.484c-.395 1.01-.61 2.274-.645 3.792.005.047.016.046.035-.004.018-.049.03-.05.035-.004.005.048-.005.072-.027.074-.025.003-.033.028-.028.074.223-.117.56-.317 1.004-.599.445-.28.752-.526.92-.732-.047.005-.07-.003-.073-.028-.002-.023-.028-.033-.074-.028.318-.126.55-.292.696-.496a4.62 4.62 0 0 1 .54-.623 2.436 2.436 0 0 1-.115.26 2.09 2.09 0 0 0-.116.26l.063-.077a.627.627 0 0 0-.042.288 1.53 1.53 0 0 1 .281-.383.756.756 0 0 0 .204-.447l.175-.372c.594-.675 1.114-1.272 1.559-1.79.445-.519.96-1.139 1.552-1.862-.445.755-.937 1.385-1.478 1.89a9.21 9.21 0 0 0-1.485 1.818 19.303 19.303 0 0 0 1.615-1.583c.468-.52.95-1.137 1.447-1.85.08-.15.278-.406.597-.77.318-.364.826-1.15 1.208-1.592.382-.44.49-.8.806-1.187.317-.387.595-1.004.675-1.153l.015.14c.302-.393.6-.803.895-1.225a.189.189 0 0 0-.031-.04.318.318 0 0 0 .098-.11c.003-.01.008.01.014.036.372-.535.738-1.092 1.098-1.674a20.671 20.671 0 0 1 2.286-3.037 1.673 1.673 0 0 1-.295.599l-1.256 1.617a6.135 6.135 0 0 0-.513.904 3.843 3.843 0 0 1-.52.834 9.105 9.105 0 0 0-.575.98l-.096.187c.004 0 .007.004.01.004-.004.006-.01.002-.014.004-.141.275-.277.537-.405.78a.895.895 0 0 0 .28-.384c.057-.148.127-.272.21-.377.338-.411.83-1.259 1.096-1.688.263-.429.615-.933.976-1.336.467-.636.673-.96 1.045-1.495.03-.043.063-.08.093-.122l2.576-4.276c.49-.76.748-1.042 1.188-1.844.44-.801 1.026-1.599 1.5-2.438.35-.603.357-.808.357-.808.075-.804.096-1.227.075-1.44-.037-.363-.026-.543-.078-1.058.054-.035.185.09.296.19a.765.765 0 0 0-.148.575c.124-.151.174-.341.154-.569.069.062.129.114.155.112-.084.104-.08.15.015.14l-.015-.14a.577.577 0 0 1 .24-.095c.07-.008.097-.081.083-.222-.052-.042-.086-.027-.101.046-.018.073-.072.114-.165.123.01.094-.01.143-.057.148.07-.008-.062-.65.024-.755.14-.013.23.22.289.333.057.113.134.163.228.154l-.021-.21c.168-.207.304-.268.408-.184.046-.005.002-.285-.027-.33-.028-.043.003-.07.099-.08.164.22.306.369.616.148.06.136.156.226.296.212.047-.005.21-.304.18-.372-.032-.067-.025-.127.017-.178.196.075.343.107.437.097-.075.197-.047.36.085.488.13.129.058-.121.119.015.051.043.12-.316.208-.395.085-.08.149-.357.093-.446l.078.062.007.07c.098.039.098.239.095.215-.002-.023-.296.299-.202.29-.075.197-.04.312.107.343.036-.097.256-.3.237-.488.206.168.234.437.082.808-.152.37.198-.332.452-.17 0 0 .191 1.314.404 2.354.106.805.129 1.372.227 2.095.096.725.183 1.461.259 2.21-.004-.046.006-.06.032-.039.026.022.043.079.053.173l.043.421c-.047.004-.073-.016-.078-.063l.021.21c.109.131.146.27.114.415a1.335 1.335 0 0 0-.028.429c-.075.197-.036.335.114.414.018.188.045.34.081.453a.754.754 0 0 1 .004.39l.057.562c.005.047-.014.097-.056.148.01.094.028.163.056.207a.485.485 0 0 1 .057.207l.022.21.05.493s.09 1.628.012 2.384c.23-.07.358-.112.581-.254.223-.14.453-.199.693-.176.089-.056.246-.231.433-.25.491-.286.135.135.965-.091.223-.116.441-.198.65-.242.208-.045.424-.126.65-.244.093-.01.16-.063.197-.162.093-.01.166.007.218.049.05.042.073.016.063-.078.094-.01.166.008.218.05 1.054-.344 1.189-.234 1.91-.361.084-.015.336-.114.422-.106.364-.848 1.24-2.982 1.543-3.78l1.255-3.038c.276-.547.545-1.036.81-1.466.265-.428.467-.887.607-1.374l-.022-.211c.422-.043.704-.308.844-.795a.89.89 0 0 1 .38-.11.526.526 0 0 0 .372-.18c.473 0 .918.061 1.334.185.414.124.796.263 1.143.416.118.226.337.404.659.537.32.134.476.39.468.769.005.047-.072.22-.23.52-.039.1-.044.17-.014.214.027.045.022.117-.014.214.014.14-.05.218-.19.232l.05.492-.357 1.385c.01.095.024.129.046.102.02-.025.037.008.046.102-.23.071-.37.215-.418.432-.05.219-.139.382-.27.49l.02.21c-.182.066-.28.159-.29.278-.013.12-.037.229-.074.327-.244.404-.428.8-.554 1.192-.127.392-.267.76-.42 1.107-.08.15-.108.236-.08.257.025.02-.004.083-.088.185.005.048-.064.078-.204.092-.03.193-.071.351-.13.475-.058.124-.075.304-.052.538-.212.258-.366.593-.467 1.005-.1.413-.256.748-.466 1.005a18.37 18.37 0 0 0-.679 2.411c-.3.788-.612 1.553-.94 2.296-.326.743-.594 1.48-.805 2.21l-.139 1.435c-.14.488-.253.995-.342 1.525a4.646 4.646 0 0 0 .023 1.63 5.467 5.467 0 0 0 1.82-1.675 33.192 33.192 0 0 0 2.293-2.61 86.577 86.577 0 0 0 2.194-2.884.807.807 0 0 0 .177-.134l.6-.732a9.874 9.874 0 0 1 1.162-1.744c.261-.215.473-.461.634-.738.162-.276.32-.588.475-.935.083-.103.181-.196.29-.278.11-.082.208-.175.292-.279.149-.393.363-.734.643-1.022.278-.289.469-.627.572-1.017.041-.05.075-.066.101-.045.008.005.006.015.008.024l.148-.394c.542-.717.744-1.459 1.282-2.223a33.86 33.86 0 0 0 1.475-2.279 1.07 1.07 0 0 0 .484-.475c.088-.178.152-.794.423-.81l.026.001c.207-.044.214-.11.214-.11.186-.26.363-.52.535-.779.007-.011.213.776.222.764.092-.14-.011-1.082.077-1.222.283-.455.362-.442.747-.86.289-.408.977-1.3 1.383-1.648.594-.51.993-.732 1.394-.985.4-.254.86-.395 1.378-.424.517-.028 1.121.089 1.812.349.596.271 1.612.635 2.092.917.479.283.913.713 1.303 1.288l.23.567c.089-.055.126-.154.112-.295l.211-.022c.089-.055.127-.154.113-.294-.004-.039-.013-.053-.021-.056l.013-.015a.535.535 0 0 1 .154-.229.515.515 0 0 0 .154-.228c.057-.384.075-.67.056-.857a5.66 5.66 0 0 1 .13-.475c.053-.17.178-.219.375-.145-.033-.327.06-.561.285-.703a2.44 2.44 0 0 0 .586-.52c.046-.005.084.015.112.059.029.045.086.039.176-.018.041-.05.028-.074-.042-.067-.07.008-.085-.014-.042-.066a.493.493 0 0 1 .214.014c.05.02.12.023.215.013.037-.097.008-.142-.085-.133-.094.01-.145-.032-.154-.126.19.028.316.086.372.175.056.09.157.15.303.182-.371-.388-.404-.598-.1-.629.305-.03.448.097.43.383.267-.17.503-.18.707-.037.203.146.344.356.42.632.29.066.54.183.746.35.153.126.337.213.537.28a.177.177 0 0 0-.08.03c.128.318.258.672.392 1.06.134.389.246.791.336 1.208.02.187.05.374.093.558.042.186.028.4-.042.643a5.87 5.87 0 0 1-.13.475 2.73 2.73 0 0 1-.2.481 238.576 238.576 0 0 0-1.764 5.36c-.234.734-.497 1.53-.788 2.387-.293.859-.657 1.924-1.096 3.199.14-.014.136.057-.014.214-.15.157-.179.231-.084.222-.085.103-.129.25-.134.439a2.61 2.61 0 0 1-.055.502c.099.038.081.098-.052.183-.134.085-.15.17-.046.254.197-.4.447-.732.75-1 .305-.266.608-.558.908-.872a.866.866 0 0 1-.407.538.87.87 0 0 0-.408.538l1.341-1.484-.322.316c.074-.196.198-.375.372-.534.173-.16.323-.317.45-.472l-.373.534 1.75-1.667a20.863 20.863 0 0 1 1.611-1.618 38.584 38.584 0 0 1 1.768-1.492c-.038.099-.09.163-.159.193-.067.031-.12.095-.157.193.197.076.334.037.414-.113.08-.15.161-.276.246-.38.13-.107.252-.19.365-.25a.929.929 0 0 0 .296-.242c.177-.112.32-.234.425-.363.104-.128.224-.246.355-.355-.239.45-.58.829-1.022 1.133a4.76 4.76 0 0 0-1.163 1.147c.566-.484 1.035-.886 1.405-1.208.37-.32.742-.618 1.117-.893.27-.198.553-.412.835-.623.183-.567.372-1.141.553-1.706.046-.005.058-.018.032-.04-.026-.02.01-.011.11.025.129-.58.323-1.12.58-1.62.258-.499.501-1.02.73-1.564.191-.446.373-.866.547-1.263.172-.395.353-.84.54-1.332.031-.145.054-.277.066-.397.01-.119.082-.233.214-.341l-.014-.14.148.056c.107-.342.23-.638.37-.89.141-.25.239-.567.295-.953.136-.06.194-.184.175-.372.05.042.149.056.29.041.176-.112.294-.242.35-.39.056-.147.154-.229.295-.243l-.014-.14c.093-.01.145.033.155.126.046-.005.068-.03.063-.077.108.13.233.19.373.175l.492-.05c.103.085.137.175.1.273.19.03.3.041.323.04.023-.003.089.061.197.192.075-.196.161-.276.26-.24l.028.282c.099.038.146.033.14-.015-.004-.046.043-.05.142-.014.15.08.235.214.254.4.019.188.169.267.45.239a.97.97 0 0 0 .286.361c.129.106.181.278.159.517.004.047-.025.097-.091.15a.534.534 0 0 0-.154.229c-.044.052-.092.27-.147.654-.067.29-.159.536-.281.738a2.76 2.76 0 0 0-.287.668c-.253.31-.363.629-.33.956-.22.165-.337.413-.35.745a8.947 8.947 0 0 0-.757 1.993 16.815 16.815 0 0 1-.736 2.204l.015.141c-.16.3-.226.567-.203.8.449-.706.92-1.44 1.41-2.2.492-.76.959-1.517 1.404-2.272.14-.014.209-.044.204-.092-.004-.046.041-.05.14-.014.032-.145.08-.268.14-.369.062-.1.131-.226.21-.376.006.047.032.068.079.063l.35-.745c.094-.01.171-.064.232-.165a.634.634 0 0 1 .296-.243c-.005-.047.002-.083.024-.11.02-.025.03-.061.024-.108l2.465-3.018c.8-.98 1.73-1.855 2.79-2.625.337.06.54.064.604.01a.342.342 0 0 0 .12-.226c.013-.095.03-.155.052-.182.02-.026.155.02.405.136.065-.29.155-.335.27-.134.115.202.287.267.518.197.107.13.244.2.411.206.166.008.372.045.617.115.036-.098.008-.143-.085-.133-.094.01-.146-.032-.156-.127.24.024.395.162.47.414.072.254.166.492.285.716.094-.009.103-.034.028-.073-.075-.04-.066-.064.028-.074.01.094.026.151.053.172.026.022.041.056.046.102.196.075.33.227.401.456.07.23.116.438.135.625.09.89-.05 1.721-.422 2.492-.373.772-.64 1.52-.802 2.246l-.12.225a233.746 233.746 0 0 0-2.17 7.672 37.254 37.254 0 0 0-1.247 8.36l-.133.084.007.07c.01.095-.008.168-.049.22-.043.05-.059.123-.05.217.207-.305.523-.68.953-1.126.428-.445.888-.93 1.38-1.453.49-.522.95-1.02 1.377-1.488.425-.469.74-.856.947-1.16.052.042.034.091-.056.147-.09.057-.082.127.022.211.173-.16.39-.476.65-.953.258-.476.472-.817.642-1.024.289-.407.529-.738.716-.994.187-.256.342-.472.467-.652.124-.177.255-.38.4-.607.142-.228.338-.52.585-.877a33.045 33.045 0 0 1 1.06-1.81c.224-.353.439-.695.642-1.024.204-.327.345-.567.425-.716.056.09.056.195-.003.32a.746.746 0 0 0-.066.396c.022-.013.037-.036.056-.053.23-.6.479-1.2.75-1.803a67.107 67.107 0 0 0 1.542-3.705l1.255-3.038c.275-.547.545-1.036.81-1.466.264-.428.467-.886.606-1.374l-.02-.21c.42-.043.702-.308.842-.796a.89.89 0 0 1 .38-.11.528.528 0 0 0 .373-.18c.473 0 .917.062 1.333.185.414.124.796.263 1.144.417.117.225.336.404.658.536.32.134.476.39.469.768.004.048-.073.221-.23.521-.04.1-.044.171-.015.214.027.045.022.117-.014.215.014.14-.049.218-.19.232l.05.492-.357 1.385c.01.094.024.128.046.101.02-.025.037.009.046.102-.23.071-.37.215-.418.433-.049.218-.138.381-.27.488l.021.211c-.182.066-.28.16-.29.278-.013.12-.038.23-.074.327-.244.404-.429.8-.555 1.192-.127.392-.267.761-.42 1.107-.08.15-.107.236-.08.257.025.021-.004.083-.088.186.005.048-.063.078-.203.092-.03.192-.072.35-.13.474-.059.125-.076.304-.052.538-.212.259-.367.594-.467 1.005-.1.413-.256.748-.466 1.005-.295.836-.52 1.64-.68 2.411-.299.789-.611 1.554-.939 2.296-.327.743-.595 1.48-.805 2.211l-.14 1.434c-.14.487-.253.996-.341 1.525a4.646 4.646 0 0 0 .023 1.63 5.459 5.459 0 0 0 1.82-1.675 33.195 33.195 0 0 0 2.293-2.61 87.02 87.02 0 0 0 2.193-2.884.807.807 0 0 0 .176-.133l.601-.732a9.922 9.922 0 0 1 1.162-1.745c.261-.214.473-.462.635-.738a9.51 9.51 0 0 0 .474-.936 1.66 1.66 0 0 1 .291-.277c.11-.082.207-.174.292-.278a2.95 2.95 0 0 1 .642-1.023c.278-.289.47-.627.572-1.016.042-.051.075-.067.102-.046.026.02.016.057-.025.109l.52-.479a79.928 79.928 0 0 0 1.621-2.223 33.808 33.808 0 0 0 1.475-2.278c.224-.117.386-.276.485-.475.067-.136.194-.207.373-.222.317-.806.646-1.639.998-2.52l-.021-.211c.07-.243.106-.353.109-.33l.01.105.011.106c.003.024.038-.086.108-.33.158-.3.384-.772.674-1.418.29-.644.586-1.324.894-2.042.305-.716.592-1.397.859-2.04.265-.64.479-1.112.638-1.412a3.369 3.369 0 0 1-.84.12 3.493 3.493 0 0 0-.841.12l1.315-.345c.084-.103.175-.135.274-.099.098.038.19.005.274-.099l-.007-.07c-.005-.046-.032-.067-.078-.063-1.2.312-2.473.605-3.818.884-1.347.278-2.66.624-3.945 1.038.056.09.142.117.257.08.114-.034.218-.057.313-.066l3.671-.94c-.047.005-.07.019-.067.043.002.023-.021.037-.067.041-.048.005-.16.065-.337.176l-2.637.623c-.324.08-.636.159-.936.236-.3.079-.616.11-.949.096l-.014-.14c-.052-.041-.123-.034-.211.021a.637.637 0 0 1-.275.1.441.441 0 0 1 .303-.174c.116-.012.142-.108.076-.291-.094.01-.127.037-.097.08.027.046-.006.073-.099.082-.094.01-.134-.023-.116-.095.015-.073-.021-.08-.11-.024a1.6 1.6 0 0 1-.668.067 1.137 1.137 0 0 0-.66.138c.084-.103.144-.322.181-.657.038-.334.101-.53.19-.587a1.22 1.22 0 0 0 .467-.296 1.98 1.98 0 0 1 .326-.281c.36-.179.726-.31 1.098-.396.37-.084.76-.194 1.173-.331a46.973 46.973 0 0 1 3.706-.944 42.3 42.3 0 0 0 3.91-1.035c.35-.745.65-1.414.897-2.007a51.31 51.31 0 0 1 .75-1.708c.253-.546.503-1.116.751-1.709s.52-1.282.82-2.07c.09-.056.167-.112.232-.166a2.52 2.52 0 0 1 .232-.165c.041-.05.059-.124.05-.218.233-.024.353-.118.361-.285.007-.166.13-.237.369-.215.202.122.473.225.813.308.34.084.626.114.862.09.117.225.284.35.5.375.215.026.4.102.555.228l.557.582c.216.262.337.51.36.745a.662.662 0 0 0-.136.404.545.545 0 0 1-.207.411c-.243.876-.56 1.725-.95 2.545-.39.82-.754 1.673-1.09 2.56l4.12-.702c1.398-.236 2.68-.437 3.848-.603 1.167-.164 2.532-.256 4.093-.272.24.023.453.024.64.005a.479.479 0 0 1 .445.168c-.09.057-.06.113.087.169zm-186.6 28.22c-.094.013-.08-.062.041-.224l.09.133c-.041.055-.085.084-.13.091zm-.265.69c-.047.007-.065-.038-.055-.137a.322.322 0 0 1 .148-.238c.019.142.006.229-.037.259-.044.031-.063.07-.056.117zM22.51 3.924a.306.306 0 0 1-.233-.15c.198.07.374.142.527.218a1.446 1.446 0 0 0-.294-.068zM5.861 49.1a.717.717 0 0 1-.141.274c-.053-.04-.053-.126.002-.255a.64.64 0 0 1 .212-.284c-.034.103-.058.19-.072.265zm.603-1.646c-.096.353-.222.661-.377.925-.053-.04-.043-.14.032-.295.075-.156.152-.287.233-.396-.078-.23-.077-.4.004-.51a1.13 1.13 0 0 0 .172-.314c.08-.108.116-.197.107-.27-.01-.07.05-.162.177-.278-.006-.047.014-.074.06-.081l.07-.01c.081-.107.11-.257.084-.447-.025-.19.052-.322.233-.396-.013-.095.014-.244.083-.448.038.286-.013.536-.151.748a1.07 1.07 0 0 0-.15.747l-.21.03a5.875 5.875 0 0 0-.367.995zm2.306-6.532c-.004.025 0 .038.001.054a.618.618 0 0 0-.05-.156c.046-.006.063.027.05.102zM5.004 51.51a5.52 5.52 0 0 0-.239.614c-.085.255-.192.439-.318.552.163-.554.353-1.09.57-1.604.218-.514.408-1.049.573-1.606.17.22.162.426-.026.622-.187.196-.268.389-.243.578l.019.143-.152.202c-.06.082-.062.167-.001.255-.042.055-.087.074-.136.056-.05-.017-.07.021-.056.116l.009.072zM1.027 66.155l.389-2.45a6.636 6.636 0 0 0-.389 2.45zm8.628-9.12a1.621 1.621 0 0 1 .11-.778c.106-.28.236-.552.392-.817-.063.252-.135.516-.217.793a7.598 7.598 0 0 1-.285.803zM2.53 59.482c.002.193-.035.368-.109.523l-.181.458c.004-.026.015-.047.019-.072.049-.345.122-.695.217-1.047.035-.101.053-.055.054.138zm-.865 3.425a4.801 4.801 0 0 0-.199.645 1.251 1.251 0 0 1-.025-.723c.061-.25.18-.436.354-.557a2.096 2.096 0 0 1-.13.635zm.402-1.545a2.095 2.095 0 0 1-.282.838c-.112-.13-.12-.274-.02-.432a.693.693 0 0 0 .117-.453c.135-.18.222-.384.29-.597-.044.203-.08.415-.105.644zm2.351-7.81c-.12.162-.165.363-.134.6-.171-.218-.211-.43-.12-.637.09-.205.174-.387.249-.543l.019.143c.04-.054.075-.059.106-.015.028.045.066.063.113.057a1.539 1.539 0 0 1-.233.395zm.309 19.571c-.082.108-.005.146.229.114-.013-.096-.09-.133-.23-.114zm-2.991-9.68c-.013-.097.001-.171.042-.225.04-.054.054-.129.042-.223.052.04.075.122.067.244-.008.121-.059.19-.151.203zm1.252-5.623c-.047.006-.065-.039-.055-.138.011-.098.04-.151.087-.158.1.035.117.082.054.138-.064.058-.093.11-.086.158zm1.124-3.353l-.182.243c-.06-.088-.058-.174.003-.255a.35.35 0 0 0 .072-.264c.052.042.072.1.057.174-.014.074.003.109.05.102zm-.91 2.814c-.152-.075-.2-.164-.144-.27.058-.105.107-.185.148-.239.052.041.061.113.028.214a.658.658 0 0 0-.032.295zm-.38 1.433c-.101-.033-.132-.09-.094-.168a.459.459 0 0 0 .037-.26c.105.084.137.152.097.205-.04.054-.053.129-.04.223zm-.614 1.83l.032-.082c-.016.09-.043.173-.07.256.013-.057.024-.119.038-.174zm4.534 12.134c-.186.026-.58.341-.807.422-.228.08-.403.007-.528-.217.513-.071 1.31-.629 1.55-.613l-.215.408zm-2.384.896c-.435-.061-.701-.278-.798-.652a2.55 2.55 0 0 1 .64-.016c.191.02.398-.032.62-.16.183.314.374.505.574.574-.255.229-.6.314-1.036.254zm-.91-.418c-.094.012-.152-.076-.177-.266.14-.02.225.005.259.072.032.07.005.133-.082.194zM1.72 71.398c-.01-.071-.039-.104-.085-.097-.034.1-.014.158.059.173.073.014.092.071.058.174-.192-.023-.303-.14-.331-.354a1.881 1.881 0 0 0-.23-.658c.146.027.269.144.367.349.098.204.2.346.306.429-.087.06-.135.055-.144-.016zm.038.83c-.526-.024-.857-.196-.994-.515A6.443 6.443 0 0 0 .203 70.7c-.032-.238-.064-.488-.1-.748a3.93 3.93 0 0 1-.028-.76c.107 1.535.69 2.52 1.744 2.954.007.047-.015.074-.06.08zm-.876-2.856c.013.094.044.162.098.204.052.04.035.091-.051.152-.06-.089-.124-.127-.194-.118-.07.01-.076.058-.016.147-.172-.219-.117-.346.163-.385zm-.099-.205l.07-.01.02.143c-.09.06-.124.065-.106.014.017-.05.023-.1.016-.147zm.446 1.755c-.33-.343-.514-.656-.552-.94.33.34.514.654.552.94zm5.702-5.916c.018-.22.09-.389.219-.503-.07.203-.114.404-.134.6a.656.656 0 0 1-.294.477c.12-.163.19-.354.209-.574zm.264-1.235a.791.791 0 0 0 .083-.448c.106.082.121.2.047.357a.897.897 0 0 0-.073.518.363.363 0 0 1-.057-.427zm.141-.82a.245.245 0 0 0 .077-.228c.106.082.127.152.063.209a.53.53 0 0 0-.146.238c-.06-.089-.057-.162.006-.219zm.548-2.327l.127-.382c.019.143-.034.465-.158.967-.031-.239-.02-.433.03-.585zm1.114-3.425c.085-.253.158-.505.22-.757a2.437 2.437 0 0 1-.154.712c-.09.23-.161.495-.216.793a2.89 2.89 0 0 1 .15-.748zm.248-1.088a.362.362 0 0 0 .047-.187c.099.035.117.08.054.137a.247.247 0 0 0-.077.229c-.053-.04-.061-.1-.024-.179zm.564-16.75c-.006-.047.01-.097.051-.152l.006-.012-.063.198c.003-.01.009-.02.006-.033zm.4-1.29l-.112.233c-.019-.143.018-.22.111-.233zm3.059-7.581a.32.32 0 0 0 .186-.208c.058.09.046.175-.038.26a2.063 2.063 0 0 0-.186.207c-.066-.136-.053-.222.038-.26zm68.294.476c.005.047.03.067.078.063l-.078-.063-.007-.07.064-.078c.004.047-.005.072-.029.074-.023.003-.033.027-.028.074zm-53.517 33.63c.693-.08 1.393-.134 2.098-.163.705-.03 1.46 0 2.26.087-.341.018-.689.01-1.043-.024-.355-.034-.65.042-.882.227a.55.55 0 0 1-.192-.115c-.896.128-1.756.253-2.579.375-.822.122-1.642.28-2.455.474.045.069.093.098.145.096-.727.18-1.456.342-2.188.473-.081.014-.16.034-.24.049-.034.03-.084.04-.15.03-.74.144-1.464.311-2.164.515a3.112 3.112 0 0 0 1.096-.214 2.262 2.262 0 0 1 1.081-.145c-.009.044-.083.052-.22.02-.271.128-.58.213-.926.253a4.056 4.056 0 0 0-.991.238c-.048-.01-.064.009-.05.06.013.05-.004.07-.05.06-.128-.077-.39-.03-.79.141-.4.17-.734.32-1.003.448a19.982 19.982 0 0 0-1.39.397.752.752 0 0 0-.236.09c-.056.033-.163.08-.32.14-.224.14-.476.236-.752.292-.278.055-.5.136-.668.24-.26.084-.54.15-.84.201-.3.05-.608.135-.924.253-.02.09-.041.134-.064.128-.023-.005-.068.032-.133.113a3.667 3.667 0 0 1 1.015-.34c.351-.062.666-.18.946-.354a91.923 91.923 0 0 1 4.425-1.203 74.526 74.526 0 0 1 4.518-.967 9.705 9.705 0 0 1-1.211.402c-.435.114-.856.22-1.263.318-.26.083-.53.152-.806.209-.277.054-.541.1-.79.14a57.39 57.39 0 0 0-3.107.968c-1.043.357-2.101.674-3.176.953-.325.163-.677.332-1.052.51-.376.174-.82.323-1.328.445-.158.059-.303.11-.43.151-.132.043-.32.082-.57.12-.168.105-.276.152-.321.141a10.76 10.76 0 0 0-1.273.53c-.433.21-.88.382-1.343.515l-.257.067.012.098c-.213.005-.089-.003-.168.105-.121-.008-.16.659-.393.901-.1-.035-.623.164-.666.194a.49.49 0 0 1-.204.065c.018.143.063.209.132.2.07-.01.154.002.254.037a.374.374 0 0 1-.314.044 4.3 4.3 0 0 1-.334-.1c-.582.275-1.131.34-1.648.194-.519-.146-.853-.426-1.002-.841-.095.013-.168-.002-.22-.042a.804.804 0 0 0-.228-.113l.14-.02c-.26-.158-.643-.178-1.148-.058-.508.119-.81-.009-.906-.382a.483.483 0 0 1 .214.005l.225.079c-.248-.063-.461-.252-.646-.564a4.057 4.057 0 0 1-.425-1.067 4.231 4.231 0 0 1-.125-1.217 3.89 3.89 0 0 1 .177-1.079c.013.095-.001.17-.042.224-.04.054-.031.125.029.214a1.33 1.33 0 0 0 .155-.711c-.011-.265.016-.5.086-.702a1.897 1.897 0 0 0-.002.8c.055.233.083.543.088.93.052.041.075.027.065-.044-.009-.072.009-.11.057-.117-.118-.517-.115-.953.004-1.309.12-.355.17-.774.154-1.256.106.082.152.063.136-.055-.015-.12.022-.185.116-.197-.05.344-.103.655-.162.93-.06.274-.026.523.099.748.08-.108.117-.197.107-.268a.247.247 0 0 1 .046-.188 2.962 2.962 0 0 1 .018-.947c.055-.298.113-.573.176-.824-.029.15-.058.286-.088.412a1.295 1.295 0 0 0-.009.474 96.188 96.188 0 0 1 3.153-11.99c1.278-3.81 2.64-7.607 4.087-11.393a1.226 1.226 0 0 1-.335.156c-.137.044-.126.126.033.25l-.14.019c-.048.007-.073-.014-.08-.062-.062.252-.136.504-.22.757a1.623 1.623 0 0 1-.38.635c.136-.406.277-.777.424-1.113.144-.335.256-.75.333-1.245.268-.133.397-.321.39-.563-.009-.24.12-.427.388-.562a.436.436 0 0 1-.207.32c-.111.063-.13.187-.058.37.013.096.029.13.05.103.02-.027.032-.017.038.03.224-.467.443-.97.657-1.507.166-.421.313-.848.45-1.279a.07.07 0 0 1-.046.023l-.08-.061c-.202.27-.34.58-.411.929-.073.35-.204.708-.393 1.072-.107-.082-.14-.162-.103-.24a.25.25 0 0 0 .016-.134c.009.011.02.02.04.017.208-.222.333-.446.374-.67.042-.223.123-.416.245-.578-.013-.095-.032-.141-.054-.138-.025.003-.039-.019-.045-.067a.324.324 0 0 0 .147-.238c.01-.098.032-.197.067-.3.242-.324.418-.7.528-1.126.11-.427.308-.807.598-1.137-.063.251-.13.453-.204.61-.076.155-.12.355-.136.6.262-.183.414-.469.457-.863.188-.365.338-.76.448-1.189.11-.426.256-.846.44-1.26l-.07.01a.57.57 0 0 1 .202-.355.59.59 0 0 0 .203-.355c-.095.013-.158.07-.191.172-.035.102-.098.159-.192.171a.59.59 0 0 1 .15-.492c.123-.138.192-.329.208-.574l.14-.02-.009-.071c.033-.1.078-.216.132-.345a.772.772 0 0 0 .053-.408.917.917 0 0 0 .28-.583c.017-.22.13-.442.34-.665l-.02-.142c.121-.163.206-.33.253-.508.049-.176.133-.345.254-.507.1.035.157.027.175-.025.017-.05.071-.082.165-.095.062-.25-.024-.36-.257-.328.11-.257.243-.505.4-.746.158-.239.262-.532.312-.878.105.083.113.142.023.178-.09.038-.106.1-.047.188.162-.216.267-.497.318-.843-.048.007-.07.022-.066.045.004.025-.02.04-.066.046-.052-.04-.06-.089-.019-.143.04-.053.059-.104.052-.152.093-.014.141-.007.145.016.003.024.047.006.135-.055-.013-.095-.044-.151-.094-.169-.05-.016-.078-.049-.084-.097a55.234 55.234 0 0 1 2-5.073c.79-1.756 1.413-3.417 1.872-4.982.291-.67.524-1.333.7-1.987.174-.653.33-1.353.47-2.1a19.32 19.32 0 0 0 .815-3.527c-.012-.095.004-.157.047-.188.043-.03.06-.092.047-.189l-.066-.498c.014-.244.044-.551.092-.921.045-.37.073-.7.082-.992l-.09-.678c-.034-.26-.165-.352-.392-.272.027-.15-.011-.265-.117-.347.08-.108.231-.142.45-.1.22.043.337-.057.352-.303.152.077.28.143.382.202.103.057.207.128.314.21-.013-.095-.066-.22-.157-.378a1.28 1.28 0 0 0-.296-.358c.185-.025.386-.126.6-.301-.012-.095-.043-.14-.088-.133-.047.006-.077-.037-.09-.134.107.084.202.167.283.252.083.086.217.115.404.09l.21-.03c.046-.006.09-.037.13-.091.146.028.247.074.305.14.055.064.126.067.214.006-.006-.047-.037-.092-.09-.133.107.083.275.107.51.074.04-.053.036-.077-.01-.071-.046.006-.053-.04-.019-.143.125.226.28.324.467.298.186-.025.389.068.607.28a.69.69 0 0 0-.276-.471 2.784 2.784 0 0 1-.406-.38c.198.07.369.192.511.365.14.175.25.377.33.608a.934.934 0 0 0 .234.15c.049.018.104.07.163.158.75.284 1.279.875 1.589 1.777.308.9.456 1.837.443 2.807a12.093 12.093 0 0 1-.472 3.444 137.217 137.217 0 0 1-.989 3.298 47.085 47.085 0 0 1-1.169 3.286c-.41 1.026-.85 2.105-1.317 3.234-.07.204-.14.383-.214.54a3.14 3.14 0 0 0-.205.608c-.394.976-.775 1.95-1.145 2.92-.37.972-.78 1.925-1.225 2.859l-1.893 4.55a34.82 34.82 0 0 1-.941 2.31c-.35.775-.69 1.525-1.021 2.248a481.894 481.894 0 0 0-1.874 4.693 350.17 350.17 0 0 1-1.822 4.54 2.477 2.477 0 0 1-.11.523c-.05.153-.116.283-.196.39-.355.922-.682 1.851-.986 2.79a24.36 24.36 0 0 1-1.065 2.726l.03.215c-.095.012-.147.069-.157.167a.328.328 0 0 1-.146.238l-1.125 3.353a39.103 39.103 0 0 0-.975 3.405c-.062.25-.109.523-.141.818-.032.295-.15.577-.351.848.038.286.019.506-.055.662a1.594 1.594 0 0 0-.144.528l-.14.02c.02.142-.014.256-.097.34-.084.085-.097.17-.036.259.085-.06.123-.138.11-.233-.012-.096.024-.174.112-.233a2.345 2.345 0 0 1-.1.594 2.444 2.444 0 0 0-.108.524 2.339 2.339 0 0 1-.005-.58c-.089.06-.132.175-.134.345-.001.17.048.271.148.307a.903.903 0 0 0 .066.499c-.187.026-.275.074-.266.146.01.071-.035.089-.135.055-.012-.096 0-.17.041-.224a.886.886 0 0 0 .113-.233c-.108-.083-.147-.029-.122.162l-.069.01-.019-.143c-.128.114-.186.208-.177.279a.603.603 0 0 1-.037.26c.018.142.089.132.21-.03.02.154.025.275.017.372.04-.01.08-.022.123-.034a.841.841 0 0 1 .08-.296c.07.082.098.165.093.247.745-.21 1.755-.506 2.198-.752.045.01.052.035.019.076-.034.039-.004.07.089.091.1-.024.162-.082.182-.172.02-.092.099-.12.236-.09 1.186-.347 2.348-.701 3.489-1.058 1.14-.359 2.297-.69 3.474-.991l-.07-.017c.02-.091.053-.13.1-.12.045.01.096-.002.152-.036l-.03.136a52.329 52.329 0 0 1 2.798-.717c.94-.215 1.932-.392 2.977-.535a.315.315 0 0 1-.065.128.294.294 0 0 0-.065.128l.779-.25a.77.77 0 0 1 .705.089c.238.008.483-.008.733-.047.249-.037.443-.041.58-.01.021-.09.078-.136.176-.138a.31.31 0 0 0 .244-.123l-.045.204a.692.692 0 0 1 .56.092c.167.11.346.068.533-.128.036.057.094.07.174.04.077-.03.145-.062.2-.097.093.02.101.035.028.042-.074.007-.093.039-.057.094l3.211-.124c-.056.035-.108.047-.153.036-.046-.01-.125.02-.236.09-.01.045.008.073.054.084.045.01.04.033-.015.067-.103.025-.19.04-.264.047-.073.008-.12.056-.14.147.31.118.68.144 1.106.073.424-.07.839-.033 1.242.106-.315.118-.671.144-1.066.078-.396-.066-.728-.035-.997.093.035.056.07.064.104.024.031-.04.088-.026.172.04a4.356 4.356 0 0 1-.34.064.926.926 0 0 0-.355.133c.3.164.562.19.78.072.218-.117.494-.161.826-.133-.632.237-1.376.328-2.232.275a.413.413 0 0 1-.335.21.67.67 0 0 0-.405.193zm-.238.516c-.118.185-.304.237-.561.156.083-.086.168-.128.254-.128.085-.002.186-.011.307-.028zm7.78-1.199c.066-.033.126-.043.177-.027-.032.102-.117.145-.252.128-.138-.015-.197-.048-.181-.099.102.033.188.033.255-.002zm-6.743 1.279c.109-.078.24-.09.395-.042-.151.027-.302.045-.454.07a.224.224 0 0 0 .059-.028zm-1.204.703c.135-.07.228-.094.28-.078.016-.051-.077-.024-.28.078zm36.58 2.771c.21-.037.388-.1.54-.19a.782.782 0 0 1 .514-.102c-.154.012-.335.076-.54.19-.206.114-.378.148-.513.102zm5.41-1.214c-.073.083-.279.105-.613.066-.336-.039-.572-.081-.706-.128.152-.012.364-.011.631.005.267.014.497.034.689.057zm-9.537 2.233c.247-.08.523-.133.827-.157-.187.13-.41.212-.667.244-.255.031-.565.072-.927.123.265-.061.52-.132.767-.21zm6.093-1.39c-.035.119-.17.202-.407.253-.237.048-.432.08-.586.093.455-.194.785-.308.993-.345zm-3.077.612c-.322.083-.673.182-1.052.292-.38.11-.71.224-.993.345.298-.335.749-.528 1.36-.58.61-.052 1.121-.193 1.535-.42-.188.131-.472.252-.85.363zm23.21-4.053c-.257.032-.49.066-.698.103.34-.145.758-.22 1.253-.222-.112.048-.298.088-.554.119zm.877-.45a.734.734 0 0 1-.36-.043c.057-.023.162-.042.315-.056.152-.013.267.016.346.087a.996.996 0 0 0-.301.011zM49.885 48.088l.299-.012c-.089-.04-.187-.036-.299.012zm35.053 16.927c-.172.073-.453.101-.845.086-.393-.015-.712-.02-.959-.02.36-.049.69-.072.986-.069.295.004.567.005.818.003zM74.875 66.31a1.51 1.51 0 0 1-.916.078c.074-.084.226-.136.455-.155.23-.02.382.005.46.077zm4.99-.803c.04.035-.18.025-.66-.031-.02-.094.06-.116.243-.064.182.052.322.084.418.095zm-7.339 1.336a1.796 1.796 0 0 1-.417.021c-.023-.095.025-.127.142-.099.114.03.229.019.342-.03.134.047.11.082-.067.108zM53.524 77.975c.013-.044.063-.084.13-.122a.08.08 0 0 0-.03.042c-.01.03-.043.056-.1.08zm2.954-.946c.132-.108.32-.241.564-.395.243-.158.488-.236.739-.237-.074.082-.235.203-.48.359a1.806 1.806 0 0 1-.823.273zm32.627-12.542l.098-.015c-.022-.007-.052-.004-.098.015zm-38.919-16.41h-.003l.303-.011c-.115.049-.213.053-.3.012zm21.963 19.16a.917.917 0 0 1-.356.074c-.125.001-.3.05-.526.146.033-.12.157-.197.366-.234a1.04 1.04 0 0 1 .516.014zm-7.767 1.518c.096-.014.177-.021.265-.03l-.706.139a1.72 1.72 0 0 1 .441-.11zm.585-.095l-.084.037c-.072.006-.158.018-.236.027l.32-.064zM49.138 77.86c-.035.04 0 .037.114-.01l-.038.132a.642.642 0 0 1-.125.17c.018-.059-.016-.11-.105-.15-.086-.04-.119-.014-.098.082-.095-.013-.031-.143.19-.393.078.07.1.125.062.169zm4.865-5.656c-.133.03-.217.104-.253.223.17-.072.357-.112.556-.12.2-.007.299-.087.294-.241-.078-.071-.146-.094-.202-.07-.057.024-.123 0-.201-.07l2.252-.96a21.41 21.41 0 0 1 2.283-.817l-.34.146c.99-.164 1.947-.389 2.875-.68.734-.231 1.439-.428 2.126-.607-.308.09-.59.186-.844.294a.379.379 0 0 0-.14.1.68.68 0 0 1-.226.134c-.42.073-.683.136-.798.184l-.11.126a1.39 1.39 0 0 1-.4.092 1.244 1.244 0 0 0-.398.092 1.69 1.69 0 0 0-.526.145l-.553.236c-.225.096-.661.23-1.307.401-.622.265-1.37.57-2.24.915-.868.344-1.605.696-2.207 1.057-.412.228-.703.417-.872.567-.167.148-.458.338-.872.566-.057.024-.024.036.1.035.123 0 .13.023.018.072-.606.205-1.062.49-1.369.855-.304.362-.443.746-.413 1.15-.235-.212-.284-.426-.145-.64.137-.213.277-.481.421-.804a15.53 15.53 0 0 0 1.703-1.23c.587-.484 1.24-.931 1.955-1.34.022.095-.034.157-.167.189zm9.39-3.196c.182-.047.37-.1.548-.143a9.76 9.76 0 0 0-.548.143zm-13.816 8.626c.01.046-.08.058-.271.037l.308-.286c-.035.118-.048.201-.037.249zm19.94-55.944c-.141.014-.207.068-.197.162.097.038.163-.017.196-.162zM59.374 48.482l.064-.078.007.07-.07.008zm9.302-33.664c.023.235-.033.383-.169.443.054-.14.088-.215.106-.232-.04-.027-.062-.026-.057.015.005.046-.017.072-.063.077.074-.197.135-.298.183-.303zm-10.934 8.49a.329.329 0 0 0-.138.049c-.027.017-.054.022-.082.03.007-.007.014-.013.012-.023-.002-.023.02-.037.066-.042l.142-.014zm11.09-1.337c-.008-.093.023-.132.096-.116a.566.566 0 0 0 .18.017c.004.048-.087.08-.275.1zm-1.901 16.975c.027-.016.044-.032.064-.049-.024-.022-.046-.016-.064.05zm-.47.615a.532.532 0 0 0 .154-.229c.056.09.04.163-.05.219a.459.459 0 0 0-.189.232.24.24 0 0 1 .084-.222zm4.468 9.89l-.12.226c.085-.104.125-.179.12-.225zm.624-.843l.12-.226c-.179.114-.218.19-.12.226zm-.743 1.069c-.085.103-.16.3-.224.59l.224-.59zm1.292-1.977l-.38.465a.934.934 0 0 0 .38-.465zm-5.85 4.84l.014.14.014.141-.028-.28zm1.661-4.64c-.275.55-.54 1.096-.793 1.642a11.454 11.454 0 0 0-.637 1.769c-.052-.516.025-.926.23-1.23.207-.306.385-.654.533-1.049.076-.195.173-.395.295-.597.121-.2.245-.38.372-.535zm7.983-22.204c-.06.101-.112.178-.154.229.037-.099.075-.186.116-.26.038-.076.078-.161.116-.261a.465.465 0 0 1-.078.292zm-4.61 23.08l-.357.676a1.9 1.9 0 0 0 .358-.676zm24.137-31.12c-.024-.234-.083-.346-.176-.337-.082-.795.022-1.634.313-2.516.084-.103.122-.19.115-.26a.24.24 0 0 1 .053-.182c.131-.108.272-.23.425-.363.152-.133.217-.317.193-.551.05.041.17.053.358.034l.38-.464c.168-.206.31-.197.429.027.099.037.133.034.105-.011-.029-.044-.019-.069.028-.073.104.084.201.121.296.111.031-.145.153-.251.359-.32.206-.067.43-.067.675.003.01.094-.02.156-.088.186-.069.03-.074.09-.018.179.61-.061.994-.242 1.153-.542.015.14.061.242.137.305a.97.97 0 0 1 .202.228c-.09.057-.116.154-.077.292a.63.63 0 0 0 .211.333c.178-.112.403-.111.676.003.271.114.42.289.443.522.005.048.054.067.149.057.01.094.026.151.053.172.025.022.042.078.052.172-.057-.089-.108-.131-.155-.126a5.999 5.999 0 0 0-.189.587c-.05.195-.162.396-.33.6.006.048.054.066.148.057.094-.01.144.01.148.056l-.352.035c-.242.404-.534.8-.873 1.19a4.05 4.05 0 0 0-.783 1.392c-.094.01-.139.026-.137.049.003.024-.044.04-.137.05.127-.156.182-.303.168-.444a1.84 1.84 0 0 0-.38.465l-.632.064a1.75 1.75 0 0 0-.619.204c-.047.005-.066.055-.056.148l-.302-.182-.043-.422c-.272.124-.4.278-.38.465-.094.009-.11-.047-.052-.173.058-.123.037-.204-.06-.242-.09.057-.143.12-.158.193-.018.073-.072.114-.166.124l-.029-.281c-.094.01-.138.038-.133.084.027-.665-.288-.964-.944-.898zm2.84 9.082c.005.046-.003.083-.024.108-.021.027-.026.086-.016.18-.09.057-.118.011-.085-.133.032-.146.074-.197.126-.155zm23.986 10.369a.239.239 0 0 1 .084-.221c.066-.054.096-.104.09-.152l.072-.007c-.038.1-.08.162-.123.19-.045.03-.087.092-.123.19zm-.31.102c.071-.007.103-.034.099-.08l.141-.015c-.085.104-.15.158-.197.162-.047.005-.092.034-.134.085-.01-.094.021-.144.092-.152zm-21.236 23.364l.53-.922.242-.088-.772 1.01zm-.091.18l-1.046 1.614c.123-.284.318-.768.511-1.02.192-.254.36-.53.535-.594zm23.048-20.95c.318-.126.534-.338.646-.633a.92.92 0 0 1-.32.352c-.133.084-.242.179-.326.28zM93.543 78.648c-.051-.043-.054-.066-.008-.07a.428.428 0 0 0 .034.119c-.008-.017-.01-.037-.026-.05zm30.294-56.004c-.002-.022-.016-.027-.026-.036.057.018.109.044.17.057-.09.057-.137.05-.144-.02zm1.155 13.475c-.076.197-.182.303-.323.317l.19-.232c.092-.01.138-.038.133-.085zm.19-.232l-.19.232c.136-.06.2-.137.19-.232zM92.013 80.828c-.148-.477-.18-1.547.05-2.207.024.234.167.584.099.851-.067.266-.13 1.071-.149 1.356zm33.237-46.367c-.002-.027-.028-.017-.071.023.025-.007.039-.02.071-.023zm-.196.162c.053-.066.093-.11.125-.139-.082.025-.133.067-.125.139zm-1.866 1.218c.17-.182.368-.333.593-.45.384-.418.78-.825 1.191-1.222.409-.396.855-.784 1.338-1.164l-.063.077a231.23 231.23 0 0 1-1.75 1.668 27.222 27.222 0 0 0-1.608 1.653c.027-.19.127-.378.299-.562zm4.531-1.56c.224-.117.333-.222.323-.316-.047.005-.155.111-.323.316zm-1.25.98c-.005-.047.038-.076.133-.085.06.135-.026.215-.26.24.088-.057.131-.11.126-.156zm.111-.297c.01.095-.01.143-.056.148a.554.554 0 0 0-.204.092c-.005-.046.027-.085.095-.116a.435.435 0 0 0 .165-.124zm2.136-2.06c.093-.01.136-.061.126-.156l.07-.007c-.037.1-.09.164-.158.193a.464.464 0 0 0-.165.124c-.01-.094.032-.146.127-.155zm21.023 3.843c-.005-.046.015-.083.06-.113.043-.027.085-.09.122-.19.02.188-.041.289-.182.303zm-20.471 9.74l-.184-.408c.02.188.081.324.184.408zm14.689.499c-.76-.019-1.2-.14-1.316-.364l.352-.035c.404.243.724.375.964.399zm-16.513-2.373c.099.038.153.116.165.231.012.118.07.219.173.303-.09.056-.165.005-.23-.155a1.504 1.504 0 0 1-.108-.38zm34.829-33.482c-.024-.233-.083-.346-.177-.336-.081-.796.023-1.635.313-2.516.084-.103.123-.19.115-.26a.239.239 0 0 1 .053-.183c.131-.108.272-.229.425-.363.152-.133.217-.317.193-.551.051.042.171.053.359.034l.379-.464c.168-.206.31-.197.429.028.099.036.133.034.106-.012-.03-.043-.02-.068.028-.073.103.085.2.121.295.111.032-.144.153-.251.359-.32.206-.067.43-.067.675.003.01.094-.02.156-.088.186-.068.031-.074.091-.017.18.61-.062.993-.243 1.153-.543.014.14.06.242.137.305.078.063.144.14.202.229-.09.056-.117.154-.078.291a.63.63 0 0 0 .212.334c.177-.113.403-.112.675.002s.42.289.444.523c.005.048.053.066.148.056.01.094.026.151.053.172.025.022.043.078.053.172-.057-.088-.11-.131-.155-.126a6.003 6.003 0 0 0-.19.587c-.05.195-.162.396-.329.601.005.047.053.066.147.056.095-.01.144.01.149.056l-.352.035c-.243.404-.535.8-.874 1.19a4.05 4.05 0 0 0-.782 1.392c-.095.01-.14.026-.137.049.002.024-.045.04-.138.05.127-.155.182-.303.168-.443-.13.108-.256.263-.379.464l-.633.064a1.74 1.74 0 0 0-.618.205c-.048.004-.066.054-.057.147l-.302-.182-.043-.422c-.272.124-.399.278-.38.465-.094.01-.11-.047-.052-.172.058-.124.038-.205-.06-.243-.09.057-.143.121-.158.194-.017.073-.072.114-.166.123l-.028-.28c-.095.009-.138.037-.134.083.027-.664-.288-.964-.943-.898zm2.84 9.082c.005.047-.003.083-.025.109-.02.026-.026.085-.016.179-.09.057-.118.012-.085-.133.032-.146.074-.196.126-.155zm21.717-16.87c.023.235-.032.383-.169.444.054-.14.088-.216.106-.232-.04-.028-.06-.027-.056.014.005.047-.018.072-.064.077.074-.196.135-.297.183-.302zm-10.934 8.49a.317.317 0 0 0-.137.05c-.027.017-.055.02-.083.03.007-.007.014-.014.012-.023-.002-.023.02-.038.068-.043l.14-.014zm8.719 16.932a.531.531 0 0 0 .155-.229c.055.09.04.163-.05.218a.459.459 0 0 0-.19.233.238.238 0 0 1 .085-.222zm-7.087 8.242l.064-.078.007.07-.07.008zM118.21 24.753c-.022-.008-.042.046 0 0zm-41.762-1.815v.014l-.006-.005c.003-.003.004-.007.006-.01zm3.658 47.922c-.214.028 0 .028 0 0zM187.67 10.214c-.141.015-.206.068-.197.162.098.038.163-.016.197-.162zm-.863 21.594c.075-.196.186-.385.334-.566.146-.18.279-.394.395-.644a1.76 1.76 0 0 1-.325.637 4.974 4.974 0 0 0-.404.573zm1.067-1.74c.023-.003.053-.052.09-.152.005.047-.013.097-.055.148-.043.052-.06.101-.056.147-.01-.093-.004-.14.021-.143zm-2.79-1.918c.071-.244.176-.373.317-.387a.943.943 0 0 0-.154.229c-.02.049-.073.103-.162.158zm1.904-17.653c-.01-.094.022-.133.094-.117a.566.566 0 0 0 .18.018c.004.047-.088.08-.274.099z"/>
</svg>
