<?xml version="1.0" encoding="UTF-8" standalone="no"?>
<svg width="131px" height="34px" viewBox="0 0 131 34" version="1.1" xmlns="http://www.w3.org/2000/svg" xmlns:xlink="http://www.w3.org/1999/xlink" xmlns:sketch="http://www.bohemiancoding.com/sketch/ns">
    <!-- Generator: Sketch 3.3.2 (12043) - http://www.bohemiancoding.com/sketch -->
    <title>LOGO</title>
    <desc>Created with Sketch.</desc>
    <defs></defs>
    <g id="HOMEPAGE" stroke="none" stroke-width="1" fill="none" fill-rule="evenodd" sketch:type="MSPage">
        <g id="100-homepage" sketch:type="MSArtboardGroup" transform="translate(-240.000000, -37.000000)" fill="#00ADFF">
            <g id="NAV/Main-Nav" sketch:type="MSLayerGroup">
                <path d="M277.957393,44.5798754 L271.685514,44.5798754 L264.957419,51.9505416 L264.957419,39.0050673 L259.212079,39.0050673 L259.212079,64.839758 L264.957419,64.839758 L264.957419,58.678637 L266.960728,56.5619328 L272.252488,64.839758 L278.829391,64.839758 L270.853952,52.5553143 L277.699379,45.4749947 L285.287624,64.9153546 C284.796246,65.9359084 284.26707,66.2382947 283.284314,66.2382947 C282.528349,66.2382947 281.583392,65.8981101 280.827426,65.4445306 L278.899713,69.6023424 C280.373846,70.471703 281.923576,71 284.002482,71 C287.442126,71 289.105251,69.4511492 290.654981,65.3302567 L298.441428,44.5798754 L292.469299,44.5798754 L288.046899,58.3762507 L283.435508,44.5798754 L277.957393,44.5798754 L277.957393,44.5798754 Z M240,62.1560795 L242.456889,58.3762507 C244.64831,59.9637788 246.954885,60.7953411 248.84392,60.7953411 C250.507924,60.7953411 251.263011,60.1905685 251.263011,59.2825306 L251.263011,59.206934 C251.263011,57.9595905 249.298379,57.5446883 247.067401,56.8634401 C244.233408,56.0327568 241.020554,54.7098167 241.020554,50.7787947 L241.020554,50.7031981 C241.020554,46.5831847 244.346803,44.2774891 248.429018,44.2774891 C250.999302,44.2774891 253.795496,45.1468497 255.987797,46.620983 L253.795496,50.5898033 C251.792187,49.4180563 249.789757,48.6998888 248.314744,48.6998888 C246.917087,48.6998888 246.198919,49.3046614 246.198919,50.0984255 L246.198919,50.1740221 C246.198919,51.3079707 248.126632,51.8371468 250.318933,52.5931125 C253.152925,53.5380698 256.441376,54.8988081 256.441376,58.6030404 L256.441376,58.678637 C256.441376,63.1766333 253.077329,65.2168619 248.693606,65.2168619 C245.857856,65.2168619 242.683678,64.2727837 240,62.1560795 Z M299.981489,39.0050673 L305.726829,39.0050673 L305.726829,51.9505416 L312.454924,44.5798754 L319.334212,44.5798754 L311.622482,52.5553143 L319.5988,64.839758 L313.021898,64.839758 L307.730138,56.5619328 L305.726829,58.678637 L305.726829,64.839758 L299.981489,64.839758 L299.981489,39.0050673 Z M329.944104,54.8232116 L329.944104,54.747615 C329.944104,48.9644768 334.366504,44.2018925 340.565423,44.2018925 C344.38305,44.2018925 346.764342,45.4870343 348.654257,47.6037385 L345.139016,51.3835673 C343.853874,50.0228289 342.568732,49.1534683 340.527625,49.1534683 C337.655834,49.1534683 335.613847,51.6859536 335.613847,54.6720184 L335.613847,54.747615 C335.613847,57.8470746 337.618036,60.3408826 340.754415,60.3408826 C342.682127,60.3408826 344.005067,59.5101993 345.403604,58.1872592 L348.767652,61.5882262 C346.802141,63.7436076 344.534243,65.2924584 340.489827,65.2924584 C334.404302,65.2924584 329.944104,60.6063497 329.944104,54.8232116 Z M351.087412,39.0050673 L356.832752,39.0050673 L356.832752,51.9505416 L363.559968,44.5798754 L370.440135,44.5798754 L362.729285,52.5553143 L370.703844,64.839758 L364.127821,64.839758 L358.836061,56.5619328 L356.832752,58.678637 L356.832752,64.839758 L351.087412,64.839758 L351.087412,39.0050673 Z M321.456191,50.3419168 L321.456191,64.839758 L327.201531,64.839758 L327.201531,44.5956979 L321.456191,50.3419168 Z M327.201531,40.10825 C327.201531,41.8249955 325.810026,43.2164999 324.09416,43.2164999 C322.376535,43.2164999 320.985031,41.8249955 320.985031,40.10825 C320.985031,38.3915044 322.376535,37 324.09416,37 C325.810026,37 327.201531,38.3915044 327.201531,40.10825 Z" id="LOGO" sketch:type="MSShapeGroup"></path>
            </g>
        </g>
    </g>
</svg>
